<svg width="21" height="21" viewBox="0 0 21 21" fill="none" xmlns="http://www.w3.org/2000/svg">
<path d="M10.4414 5.70898C13.2715 5.70898 15.6074 8.04492 15.6074 10.875C15.6074 13.75 13.2715 16.041 10.4414 16.041C7.56641 16.041 5.27539 13.75 5.27539 10.875C5.27539 8.04492 7.56641 5.70898 10.4414 5.70898ZM10.4414 14.2441C12.2832 14.2441 13.7656 12.7617 13.7656 10.875C13.7656 9.0332 12.2832 7.55078 10.4414 7.55078C8.55469 7.55078 7.07227 9.0332 7.07227 10.875C7.07227 12.7617 8.59961 14.2441 10.4414 14.2441ZM17 5.5293C17 6.20312 16.4609 6.74219 15.7871 6.74219C15.1133 6.74219 14.5742 6.20312 14.5742 5.5293C14.5742 4.85547 15.1133 4.31641 15.7871 4.31641C16.4609 4.31641 17 4.85547 17 5.5293ZM20.4141 6.74219C20.5039 8.4043 20.5039 13.3906 20.4141 15.0527C20.3242 16.6699 19.9648 18.0625 18.7969 19.2754C17.6289 20.4434 16.1914 20.8027 14.5742 20.8926C12.9121 20.9824 7.92578 20.9824 6.26367 20.8926C4.64648 20.8027 3.25391 20.4434 2.04102 19.2754C0.873047 18.0625 0.513672 16.6699 0.423828 15.0527C0.333984 13.3906 0.333984 8.4043 0.423828 6.74219C0.513672 5.125 0.873047 3.6875 2.04102 2.51953C3.25391 1.35156 4.64648 0.992188 6.26367 0.902344C7.92578 0.8125 12.9121 0.8125 14.5742 0.902344C16.1914 0.992188 17.6289 1.35156 18.7969 2.51953C19.9648 3.6875 20.3242 5.125 20.4141 6.74219ZM18.2578 16.8047C18.7969 15.502 18.6621 12.3574 18.6621 10.875C18.6621 9.4375 18.7969 6.29297 18.2578 4.94531C17.8984 4.0918 17.2246 3.37305 16.3711 3.05859C15.0234 2.51953 11.8789 2.6543 10.4414 2.6543C8.95898 2.6543 5.81445 2.51953 4.51172 3.05859C3.61328 3.41797 2.93945 4.0918 2.58008 4.94531C2.04102 6.29297 2.17578 9.4375 2.17578 10.875C2.17578 12.3574 2.04102 15.502 2.58008 16.8047C2.93945 17.7031 3.61328 18.377 4.51172 18.7363C5.81445 19.2754 8.95898 19.1406 10.4414 19.1406C11.8789 19.1406 15.0234 19.2754 16.3711 18.7363C17.2246 18.377 17.9434 17.7031 18.2578 16.8047Z" fill="black"/>
</svg>
