<svg width="21" height="21" viewBox="0 0 21 21" fill="none" xmlns="http://www.w3.org/2000/svg">
<path d="M19.0664 0.8125C19.8301 0.8125 20.5039 1.48633 20.5039 2.29492V19.5C20.5039 20.3086 19.8301 20.9375 19.0664 20.9375H1.77148C1.00781 20.9375 0.378906 20.3086 0.378906 19.5V2.29492C0.378906 1.48633 1.00781 0.8125 1.77148 0.8125H19.0664ZM6.44336 18.0625V8.49414H3.47852V18.0625H6.44336ZM4.96094 7.14648C5.9043 7.14648 6.66797 6.38281 6.66797 5.43945C6.66797 4.49609 5.9043 3.6875 4.96094 3.6875C3.97266 3.6875 3.20898 4.49609 3.20898 5.43945C3.20898 6.38281 3.97266 7.14648 4.96094 7.14648ZM17.6289 18.0625V12.8066C17.6289 10.2461 17.0449 8.22461 14.0352 8.22461C12.5977 8.22461 11.6094 9.0332 11.2051 9.79688H11.1602V8.49414H8.33008V18.0625H11.2949V13.3457C11.2949 12.0879 11.5195 10.875 13.0918 10.875C14.6191 10.875 14.6191 12.3125 14.6191 13.3906V18.0625H17.6289Z" fill="black"/>
</svg>
