<svg width="25" height="25" viewBox="0 0 25 25" fill="none" xmlns="http://www.w3.org/2000/svg">
<g clip-path="url(#clip0_363_932)">
<path d="M22.405 18.6897L22.4279 18.7078L22.4517 18.7245C22.538 18.7851 22.6098 18.8641 22.6618 18.9558C22.697 19.0178 22.7226 19.0846 22.7379 19.1538C22.7264 19.1787 22.7082 19.2149 22.6796 19.2632C22.5891 19.4167 22.4406 19.6173 22.2302 19.858C21.8116 20.3368 21.2253 20.8872 20.5936 21.415C19.9645 21.9407 19.3167 22.4221 18.7882 22.7663C18.5224 22.9394 18.3026 23.0674 18.1402 23.1481C18.0923 23.1719 18.0547 23.1889 18.0265 23.2008C17.3739 23.1518 13.1757 22.6502 7.9481 17.5146C2.80684 12.282 2.30438 8.0828 2.25531 7.42965C2.26712 7.40154 2.28415 7.36395 2.30791 7.31617C2.38864 7.15377 2.51667 6.93401 2.68979 6.66822C3.034 6.13975 3.51541 5.49189 4.04109 4.86272C4.56892 4.23098 5.11926 3.64462 5.59814 3.22593C5.83879 3.01553 6.03937 2.86696 6.19286 2.77643C6.24113 2.74796 6.27725 2.7297 6.30216 2.71822C6.37197 2.73367 6.43928 2.75952 6.50176 2.79506C6.5941 2.8476 6.6736 2.91999 6.73452 3.00702L6.75862 3.04145L6.78552 3.07373C6.77988 3.06696 6.79932 3.09475 6.83941 3.15204C7.02763 3.42107 7.67107 4.34076 8.31116 5.38957C8.6938 6.01652 9.0538 6.65531 9.3021 7.19626C9.42666 7.4676 9.51245 7.69148 9.56082 7.86247C9.59032 7.96677 9.59768 8.02329 9.59999 8.04242C9.58491 8.10539 9.55363 8.17126 9.45184 8.28654C9.3004 8.45804 9.0699 8.65463 8.64998 9.00721L8.6494 9.00769L8.63799 9.01728C8.50329 9.13054 8.18803 9.39561 7.95509 9.60953L7.48151 10.0445L7.68069 10.6558C7.83344 11.1247 8.01952 11.582 8.23751 12.0243C9.3409 14.2895 11.1712 16.1198 13.4364 17.2231C13.8786 17.4409 14.3358 17.6269 14.8044 17.7798L15.416 17.9793L15.8511 17.5053C16.0704 17.2665 16.3437 16.9408 16.45 16.8139C16.8039 16.3927 17.0015 16.1613 17.1734 16.0095C17.2949 15.9022 17.3614 15.8732 17.4267 15.8591C17.4429 15.8608 17.4986 15.8668 17.6053 15.8963C17.7745 15.9429 17.9966 16.0268 18.2665 16.1499C18.8047 16.3954 19.4401 16.7536 20.0648 17.136C21.2264 17.8472 22.2511 18.5797 22.3893 18.6785C22.4005 18.6865 22.4059 18.6903 22.405 18.6897ZM17.9675 23.2226C17.9675 23.2225 17.9703 23.2216 17.9757 23.2202C17.9701 23.2221 17.9675 23.2227 17.9675 23.2226ZM2.23338 7.4888C2.23325 7.48888 2.23393 7.48621 2.23576 7.48059C2.23442 7.48592 2.2335 7.48873 2.23338 7.4888Z" stroke="#07529A" stroke-width="2"/>
</g>
<defs>
<clipPath id="clip0_363_932">
<rect width="24" height="24" fill="white" transform="translate(0.5 0.956055)"/>
</clipPath>
</defs>
</svg>
