<svg width="136" height="51" viewBox="0 0 136 51" fill="none" xmlns="http://www.w3.org/2000/svg">
<g clip-path="url(#clip0_425_439)">
<path d="M4.96561 24.2503C4.91657 24.1862 4.85182 24.1357 4.77761 24.1039C4.70338 24.0721 4.62221 24.06 4.54194 24.0686C4.46166 24.0774 4.385 24.1067 4.31934 24.1537C4.25369 24.2007 4.20128 24.2639 4.16716 24.337L0.121355 32.4262C0.084498 32.4999 0.0670961 32.5818 0.0708015 32.6641C0.0745068 32.7465 0.0991964 32.8265 0.142526 32.8966C0.185856 32.9668 0.246387 33.0246 0.318373 33.0647C0.39036 33.1049 0.471411 33.126 0.553832 33.126H6.18742C6.27765 33.1281 6.36655 33.1039 6.44331 33.0565C6.52009 33.009 6.58143 32.9403 6.61989 32.8586C7.83513 30.3475 7.09866 26.5293 4.96561 24.2503Z" fill="white"/>
<path d="M7.93434 16.8931C6.92624 18.4442 6.33875 20.2308 6.22955 22.0775C6.12034 23.9242 6.49316 25.7676 7.31141 27.4268L10.0274 32.8588C10.0676 32.9391 10.1293 33.0067 10.2057 33.0539C10.2821 33.1011 10.3701 33.1261 10.4599 33.1261H16.0925C16.1749 33.1261 16.2559 33.105 16.3279 33.0649C16.3999 33.0247 16.4605 32.9669 16.5038 32.8968C16.5471 32.8266 16.5718 32.7467 16.5755 32.6643C16.5792 32.582 16.5618 32.5 16.5249 32.4263C16.5249 32.4263 8.94728 17.2691 8.75683 16.89C8.71912 16.8129 8.66051 16.7479 8.58759 16.7025C8.51467 16.6571 8.43048 16.6332 8.34464 16.6335C8.25873 16.6339 8.1747 16.6584 8.10217 16.7043C8.02956 16.7502 7.97142 16.8156 7.93434 16.8931Z" fill="white"/>
<path d="M74.0034 23.3791C74.0034 25.3822 74.9326 26.9725 78.5669 27.6745C80.7359 28.1298 81.1897 28.4798 81.1897 29.2026C81.1897 29.9047 80.7343 30.3592 79.207 30.3592C77.3613 30.326 75.5522 29.8365 73.9414 28.9343V32.1969C75.036 32.7338 76.4814 33.3327 79.1663 33.3327C82.9658 33.3327 84.4736 31.6382 84.4736 29.1199L74.0034 23.3791ZM84.4736 29.1199C84.4736 26.7451 83.2138 25.6298 79.6616 24.866C77.6999 24.4323 77.225 23.9987 77.225 23.3791C77.225 22.5951 77.927 22.2641 79.2281 22.2641C80.7977 22.2641 82.3461 22.739 83.8124 23.3999V20.2815C82.4064 19.6416 80.8759 19.3241 79.3314 19.3523C75.8205 19.3523 74.0034 20.8803 74.0034 23.3791" fill="white"/>
<path d="M122.82 19.5586V33.1262H125.711V22.7801L126.93 25.5266L131.019 33.1262H134.653V19.5586H131.762V28.3146L130.668 25.7744L127.384 19.5586H122.82Z" fill="white"/>
<path d="M104.433 19.5583H101.273V33.126H104.433V19.5583Z" fill="white"/>
<path d="M97.6253 29.1199C97.6253 26.7451 96.3656 25.6298 92.8141 24.866C90.8526 24.4323 90.3776 23.9987 90.3776 23.3791C90.3776 22.5951 91.0795 22.2641 92.3807 22.2641C93.9502 22.2641 95.4987 22.739 96.965 23.3999V20.2815C95.5589 19.6416 94.0277 19.3241 92.4832 19.3523C88.9732 19.3523 87.1556 20.8803 87.1556 23.3791C87.1556 25.3822 88.0851 26.9725 91.7195 27.6745C93.8877 28.1298 94.3422 28.4798 94.3422 29.2026C94.3422 29.9047 93.8869 30.3592 92.3596 30.3592C90.5138 30.326 88.7048 29.8365 87.0938 28.9343V32.1969C88.1884 32.7338 89.6335 33.3327 92.3181 33.3327C96.1184 33.3327 97.6253 31.6382 97.6253 29.1199Z" fill="white"/>
<path d="M49.4609 19.5586V33.1262H55.9552L56.9777 30.1937H52.6411V19.5586H49.4609Z" fill="white"/>
<path d="M36.625 19.5583V22.4906H40.1356V33.126H43.3157V22.4906H47.0742V19.5583H36.625Z" fill="white"/>
<path d="M32.0122 19.5586H27.8444L23.1133 33.1262H26.7263L27.397 30.8412C29.0489 31.3262 30.8054 31.3262 32.4573 30.8412L33.128 33.1262H36.7418L32.0122 19.5586ZM29.9282 28.3945C29.3397 28.3945 28.7541 28.3102 28.1894 28.1444L29.9282 22.2235L31.667 28.1464C31.1022 28.3116 30.5166 28.3951 29.9282 28.3945Z" fill="white"/>
<path d="M67.1526 19.5586H62.9851L58.2539 33.1262H61.8677L62.5385 30.8412C64.1903 31.3262 65.9468 31.3262 67.5987 30.8412L68.2694 33.1262H71.8832L67.1526 19.5586ZM65.0689 28.3945C64.4803 28.3945 63.8948 28.3102 63.3301 28.1444L65.0689 22.2235L66.8076 28.1464C66.2428 28.3116 65.6573 28.3951 65.0689 28.3945Z" fill="white"/>
<path d="M115.821 19.5586H111.653L106.922 33.1262H110.536L111.206 30.8412C112.859 31.3262 114.615 31.3262 116.267 30.8412L116.938 33.1262H120.552L115.821 19.5586ZM113.736 28.3945C113.147 28.3945 112.562 28.3102 111.997 28.1444L113.736 22.2235L115.475 28.1464C114.91 28.3116 114.325 28.3951 113.736 28.3945Z" fill="white"/>
</g>
<defs>
<clipPath id="clip0_425_439">
<rect width="135.362" height="50.076" fill="white" transform="translate(0.0546875 -0.0551758)"/>
</clipPath>
</defs>
</svg>
