<svg width="136" height="51" viewBox="0 0 136 51" fill="none" xmlns="http://www.w3.org/2000/svg">
<g clip-path="url(#clip0_360_2613)">
<path d="M4.96561 24.2352C4.91657 24.171 4.85182 24.1206 4.77761 24.0888C4.70338 24.057 4.62221 24.0448 4.54194 24.0535C4.46166 24.0623 4.385 24.0915 4.31934 24.1386C4.25369 24.1856 4.20128 24.2487 4.16716 24.3219L0.121355 32.411C0.084498 32.4847 0.0670961 32.5667 0.0708015 32.649C0.0745068 32.7314 0.0991964 32.8113 0.142526 32.8815C0.185856 32.9516 0.246387 33.0094 0.318373 33.0496C0.39036 33.0897 0.471411 33.1108 0.553832 33.1108H6.18742C6.27765 33.113 6.36655 33.0888 6.44331 33.0414C6.52009 32.9939 6.58143 32.9252 6.61989 32.8435C7.83513 30.3323 7.09866 26.5141 4.96561 24.2352Z" fill="#141414"/>
<path d="M7.93434 16.8779C6.92624 18.429 6.33875 20.2157 6.22955 22.0624C6.12034 23.9091 6.49316 25.7525 7.31141 27.4117L10.0274 32.8436C10.0676 32.924 10.1293 32.9915 10.2057 33.0388C10.2821 33.086 10.3701 33.111 10.4599 33.111H16.0925C16.1749 33.111 16.2559 33.0899 16.3279 33.0497C16.3999 33.0096 16.4605 32.9518 16.5038 32.8817C16.5471 32.8115 16.5718 32.7315 16.5755 32.6491C16.5792 32.5668 16.5618 32.4849 16.5249 32.4112C16.5249 32.4112 8.94728 17.254 8.75683 16.8749C8.71912 16.7977 8.66051 16.7327 8.58759 16.6873C8.51467 16.642 8.43048 16.6181 8.34464 16.6184C8.25873 16.6187 8.1747 16.6432 8.10217 16.6891C8.02956 16.7351 7.97142 16.8005 7.93434 16.8779Z" fill="#141414"/>
<path d="M74.0034 23.364C74.0034 25.367 74.9326 26.9573 78.5669 27.6594C80.7359 28.1146 81.1897 28.4647 81.1897 29.1875C81.1897 29.8896 80.7343 30.3441 79.207 30.3441C77.3613 30.3108 75.5522 29.8214 73.9414 28.9192V32.1817C75.036 32.7186 76.4814 33.3175 79.1663 33.3175C82.9658 33.3175 84.4736 31.6231 84.4736 29.1048L74.0034 23.364ZM84.4736 29.1048C84.4736 26.7299 83.2138 25.6147 79.6616 24.8508C77.6999 24.4171 77.225 23.9836 77.225 23.364C77.225 22.58 77.927 22.2489 79.2281 22.2489C80.7977 22.2489 82.3461 22.7239 83.8124 23.3847V20.2663C82.4064 19.6264 80.8759 19.309 79.3314 19.3372C75.8205 19.3372 74.0034 20.8652 74.0034 23.364" fill="#141414"/>
<path d="M122.82 19.5435V33.1111H125.711V22.765L126.93 25.5114L131.019 33.1111H134.653V19.5435H131.762V28.2995L130.668 25.7592L127.384 19.5435H122.82Z" fill="#141414"/>
<path d="M104.433 19.5432H101.273V33.1108H104.433V19.5432Z" fill="#141414"/>
<path d="M97.6253 29.1048C97.6253 26.7299 96.3656 25.6147 92.8141 24.8508C90.8526 24.4171 90.3776 23.9836 90.3776 23.364C90.3776 22.58 91.0795 22.2489 92.3807 22.2489C93.9502 22.2489 95.4987 22.7239 96.965 23.3847V20.2663C95.5589 19.6264 94.0277 19.309 92.4832 19.3372C88.9732 19.3372 87.1556 20.8652 87.1556 23.364C87.1556 25.367 88.0851 26.9573 91.7195 27.6594C93.8877 28.1146 94.3422 28.4647 94.3422 29.1875C94.3422 29.8896 93.8869 30.3441 92.3596 30.3441C90.5138 30.3108 88.7048 29.8214 87.0938 28.9192V32.1817C88.1884 32.7186 89.6335 33.3175 92.3181 33.3175C96.1184 33.3175 97.6253 31.6231 97.6253 29.1048Z" fill="#141414"/>
<path d="M49.4609 19.5435V33.1111H55.9552L56.9777 30.1786H52.6411V19.5435H49.4609Z" fill="#141414"/>
<path d="M36.625 19.5432V22.4755H40.1356V33.1108H43.3157V22.4755H47.0742V19.5432H36.625Z" fill="#141414"/>
<path d="M32.0122 19.5435H27.8444L23.1133 33.1111H26.7263L27.397 30.826C29.0489 31.3111 30.8054 31.3111 32.4573 30.826L33.128 33.1111H36.7418L32.0122 19.5435ZM29.9282 28.3794C29.3397 28.3794 28.7541 28.2951 28.1894 28.1293L29.9282 22.2084L31.667 28.1312C31.1022 28.2965 30.5166 28.38 29.9282 28.3794Z" fill="#141414"/>
<path d="M67.1526 19.5435H62.9851L58.2539 33.1111H61.8677L62.5385 30.826C64.1903 31.3111 65.9468 31.3111 67.5987 30.826L68.2694 33.1111H71.8832L67.1526 19.5435ZM65.0689 28.3794C64.4803 28.3794 63.8948 28.2951 63.3301 28.1293L65.0689 22.2084L66.8076 28.1312C66.2428 28.2965 65.6573 28.38 65.0689 28.3794Z" fill="#141414"/>
<path d="M115.821 19.5435H111.653L106.922 33.1111H110.536L111.206 30.826C112.859 31.3111 114.615 31.3111 116.267 30.826L116.938 33.1111H120.552L115.821 19.5435ZM113.736 28.3794C113.147 28.3794 112.562 28.2951 111.997 28.1293L113.736 22.2084L115.475 28.1312C114.91 28.2965 114.325 28.38 113.736 28.3794Z" fill="#141414"/>
</g>
<defs>
<clipPath id="clip0_360_2613">
<rect width="135.362" height="50.076" fill="white" transform="translate(0.0546875 -0.0703125)"/>
</clipPath>
</defs>
</svg>
