<svg width="134" height="51" viewBox="0 0 134 51" fill="none" xmlns="http://www.w3.org/2000/svg">
<g clip-path="url(#clip0_425_453)">
<mask id="mask0_425_453" style="mask-type:luminance" maskUnits="userSpaceOnUse" x="0" y="13" width="134" height="30">
<path d="M133.009 13.0493H0.511719V42.3208H133.009V13.0493Z" fill="white"/>
</mask>
<g mask="url(#mask0_425_453)">
<path d="M42.5182 29.0805C42.4019 28.906 42.2275 28.7897 42.0142 28.7703C41.801 28.751 41.5878 28.8285 41.4327 28.9836C40.0563 30.1079 38.3504 30.7476 36.567 30.7476C32.7288 30.7476 29.9374 27.7817 29.9374 23.6915C29.9374 19.6012 32.6319 16.9067 36.4895 16.9067C38.1179 16.9067 39.7074 17.4107 41.0256 18.3412C41.3164 18.6126 41.7816 18.5737 42.053 18.283C42.0724 18.2636 42.0918 18.2249 42.1112 18.2055L42.3244 17.8953C42.5958 17.5657 42.5376 17.0811 42.1887 16.8098C40.5409 15.5691 38.5056 14.9294 36.4507 14.9875C31.4688 14.9875 27.8438 18.6707 27.8438 23.7302C27.8438 28.9254 31.4881 32.6861 36.5283 32.6861C38.7769 32.6861 40.948 31.8913 42.6734 30.4375C42.9835 30.166 43.0416 29.7008 42.7703 29.3906C42.7509 29.3713 42.7509 29.3713 42.7315 29.3519L42.5182 29.0805Z" fill="white"/>
<path d="M47.6916 30.6315C47.2651 30.5733 46.6254 30.4764 46.6254 29.0807V16.0539C46.6642 15.6468 46.354 15.298 45.9469 15.2591C45.9082 15.2591 45.8694 15.2591 45.8306 15.2591H45.3848C44.9971 15.2204 44.6481 15.5305 44.6094 15.9183C44.6094 15.957 44.6094 16.0152 44.6094 16.0539V29.3715C44.6094 32.0854 46.4509 32.4925 47.5365 32.4925C47.9436 32.5506 48.2926 32.2598 48.3507 31.8527C48.3507 31.7946 48.3507 31.7558 48.3507 31.6977V31.3487C48.3895 30.9804 48.0987 30.6702 47.7497 30.6315C47.7304 30.6315 47.711 30.6315 47.6916 30.6315Z" fill="white"/>
<path d="M50.9549 20.0279H50.509C50.1019 19.9892 49.753 20.2994 49.7142 20.7064C49.7142 20.7452 49.7142 20.784 49.7142 20.8227V31.6009C49.6755 32.008 49.9856 32.3568 50.3927 32.3957C50.4314 32.3957 50.4703 32.3957 50.509 32.3957H50.9549C51.3425 32.4344 51.6915 32.1243 51.7302 31.7365C51.7302 31.6978 51.7302 31.6396 51.7302 31.6009V20.8227C51.7691 20.435 51.4976 20.0668 51.1099 20.0279C51.0518 20.0279 51.013 20.0279 50.9549 20.0279Z" fill="white"/>
<path d="M51.0285 15.2592H50.4276C50.0398 15.2204 49.6909 15.5305 49.6521 15.9182C49.6521 15.957 49.6521 16.0151 49.6521 16.054V16.9069C49.6134 17.2946 49.8848 17.6435 50.2531 17.6823C50.3113 17.6823 50.3694 17.6823 50.4082 17.6823H51.0091C51.3968 17.721 51.7263 17.4497 51.7845 17.062C51.7845 17.0038 51.7845 16.9651 51.7845 16.9069V16.0345C51.8233 15.6469 51.5325 15.2979 51.1448 15.2397C51.1254 15.2592 51.0672 15.2592 51.0285 15.2592Z" fill="white"/>
<path d="M64.5386 29.8174C64.4417 29.6236 64.2479 29.4878 64.054 29.4491C63.8408 29.4103 63.6276 29.4684 63.4531 29.6236C62.542 30.3989 61.3982 30.8448 60.1964 30.8448C57.7539 30.9029 55.7378 28.9644 55.6797 26.5413C55.6797 26.425 55.6797 26.3281 55.6797 26.2117C55.5634 23.7693 57.4243 21.695 59.8668 21.5787C59.9638 21.5787 60.0607 21.5787 60.1576 21.5787C61.2238 21.5981 62.2512 21.9665 63.0847 22.6449C63.2592 22.7612 63.4531 22.8387 63.6663 22.8193C63.8795 22.8 64.0734 22.6643 64.1703 22.4705L64.3254 22.2184C64.4804 22.0439 64.5386 21.8307 64.5193 21.6175C64.4804 21.4236 64.3835 21.2491 64.2285 21.1328C63.0654 20.2218 61.6309 19.7371 60.1383 19.7565C56.6683 19.6402 53.78 22.3541 53.6442 25.8046C53.6442 25.9404 53.6442 26.0954 53.6442 26.2311C53.5279 29.6817 56.2418 32.5894 59.6923 32.7058C59.8475 32.7058 59.9831 32.7058 60.1383 32.7058C61.7472 32.7058 63.298 32.1629 64.5386 31.1356C64.8876 30.8835 64.9457 30.4183 64.7131 30.0694L64.5386 29.8174Z" fill="white"/>
<path d="M71.6389 25.4751L75.1864 21.0553C75.3803 20.8808 75.4384 20.5901 75.3415 20.3575C75.2058 20.1248 74.9537 19.9891 74.6824 20.0279H74.0815C73.7325 20.0279 73.4224 20.183 73.2091 20.4544L69.9524 24.6027H68.3047V16.0539C68.3435 15.6468 68.0333 15.298 67.6262 15.2591C67.5874 15.2591 67.5487 15.2591 67.5099 15.2591H67.0641C66.6763 15.2204 66.3274 15.5305 66.2886 15.9183C66.2886 15.957 66.2886 16.0152 66.2886 16.0539V31.6008C66.2499 31.9885 66.5407 32.3374 66.9284 32.3956C66.9671 32.3956 67.0253 32.3956 67.0641 32.3956H67.5099C67.917 32.4343 68.2659 32.1435 68.3241 31.7365C68.3241 31.6977 68.3241 31.6395 68.3241 31.6008V26.425H69.9718L73.6549 31.9109C73.8101 32.2405 74.159 32.4343 74.5079 32.4149H75.1282C75.3996 32.4537 75.6516 32.3374 75.7874 32.1048C75.9036 31.8721 75.8649 31.6008 75.6904 31.3875L71.6389 25.4751Z" fill="white"/>
<path d="M88.6172 16.3641V16.0539C88.6564 15.6468 88.346 15.298 87.9393 15.2591C87.9 15.2591 87.8615 15.2591 87.823 15.2591H75.3581C74.951 15.2204 74.6021 15.5305 74.5633 15.9376C74.5633 15.9764 74.5633 16.0152 74.5633 16.0539V16.3641C74.5439 16.7712 74.8735 17.1201 75.2612 17.1201C75.2805 17.1201 75.3194 17.1201 75.3387 17.1201H80.5536V31.6008C80.5144 32.0079 80.8248 32.3568 81.2315 32.3956C81.2708 32.3956 81.3093 32.3956 81.3478 32.3956H81.8323C82.2206 32.415 82.5695 32.1242 82.5888 31.7365C82.5888 31.6977 82.5888 31.6589 82.5888 31.6202V17.1201H87.823C88.2297 17.1395 88.5786 16.81 88.5786 16.4029C88.6172 16.4029 88.6172 16.3835 88.6172 16.3641Z" fill="white"/>
<path d="M93.1522 19.9504C91.6016 20.0085 90.2058 20.939 89.5272 22.3348V20.8033C89.5665 20.4156 89.2753 20.0473 88.8686 20.0086C88.8293 20.0086 88.7908 20.0086 88.7523 20.0086H88.3255C87.918 19.9698 87.5691 20.28 87.5306 20.687C87.5306 20.7258 87.5306 20.7646 87.5306 20.8033V31.5814C87.4921 31.9886 87.8017 32.3374 88.2092 32.3762C88.2477 32.3762 88.287 32.3762 88.3255 32.3762H88.7715C89.159 32.415 89.5079 32.1049 89.5465 31.7171C89.5465 31.6784 89.5465 31.6202 89.5465 31.5814V27.1229C89.5465 24.6028 90.7874 21.9276 93.0945 21.9276C93.5204 21.9665 93.9087 21.6757 93.9472 21.2492C93.9472 21.2104 93.9472 21.1717 93.9472 21.1523V20.7258C93.9857 20.3381 93.676 19.9892 93.2878 19.9504C93.2686 19.9504 93.2108 19.9504 93.1522 19.9504Z" fill="white"/>
<path d="M99.4593 19.7373C98.0828 19.7373 96.7263 20.1056 95.5439 20.8229C95.195 21.0167 95.0586 21.4625 95.2527 21.8115C95.272 21.8309 95.2912 21.8697 95.3113 21.8891L95.4661 22.141C95.6795 22.5094 96.1447 22.6257 96.4937 22.4124C96.5129 22.4124 96.5129 22.3931 96.5322 22.3931C97.3849 21.8697 98.3547 21.5983 99.343 21.5789C101.204 21.5789 102.096 22.5287 102.096 24.4867V24.6805H101.592C96.61 24.6805 94.0703 26.1343 94.0703 29.0033C94.0703 31.4265 96.2025 32.7059 98.3154 32.7059C99.5564 32.7059 100.739 32.2019 101.592 31.2908C101.805 31.0775 101.98 30.8256 102.154 30.5735C102.154 30.5735 102.154 30.6317 102.154 30.6511V31.6009C102.115 31.9886 102.386 32.3376 102.793 32.3957C102.852 32.3957 102.89 32.3957 102.949 32.3957H103.336C103.724 32.4152 104.073 32.1244 104.093 31.7367C104.093 31.6979 104.093 31.6591 104.093 31.6204V24.5448C104.112 21.4432 102.464 19.7373 99.4593 19.7373ZM98.6259 30.9419C96.9197 30.9419 96.1447 29.8563 96.1447 28.8483C96.1447 26.5609 99.0719 26.2701 101.631 26.2701H102.115V26.6384C102.115 28.7126 100.777 30.9419 98.6259 30.9419Z" fill="white"/>
<path d="M115.175 20.0276H114.671C114.283 20.0082 113.934 20.2602 113.857 20.6286L110.697 28.9447C110.6 29.2161 110.504 29.5069 110.426 29.7783C110.348 29.5069 110.271 29.2161 110.174 28.9447L107.014 20.6479C106.917 20.2602 106.568 20.0082 106.181 20.0276H105.657C105.424 20.0082 105.192 20.1051 105.056 20.2989C104.94 20.5122 104.94 20.7449 105.056 20.9581L109.224 31.7943C109.34 32.1627 109.689 32.3953 110.077 32.3759H110.872C111.24 32.3953 111.589 32.1627 111.686 31.7943L115.834 20.9968C115.931 20.7836 115.912 20.5316 115.796 20.3378C115.64 20.1246 115.407 20.0082 115.175 20.0276Z" fill="white"/>
<path d="M122.172 19.7373C118.567 19.7373 116.066 22.3931 116.066 26.2313C115.95 29.6818 118.644 32.5702 122.095 32.6865C122.231 32.6865 122.386 32.6865 122.521 32.6865C124.014 32.6865 125.448 32.2019 126.65 31.3102C126.999 31.0775 127.096 30.6123 126.863 30.2828C126.863 30.2828 126.863 30.2828 126.863 30.2634L126.67 29.992C126.573 29.8175 126.417 29.7012 126.224 29.6431C126.011 29.6043 125.778 29.6625 125.603 29.7981C124.731 30.4766 123.665 30.845 122.58 30.845C120.467 30.845 118.295 29.488 118.141 26.4445H126.573C127.019 26.4445 127.368 26.0956 127.387 25.6692V25.6498C127.368 22.0054 125.371 19.7373 122.172 19.7373ZM122.115 21.4625C123.568 21.4625 125.158 22.3543 125.313 24.8355H118.218C118.489 22.8971 120.156 21.4625 122.115 21.4625Z" fill="white"/>
<path d="M132.328 30.6315C131.901 30.5733 131.262 30.4764 131.262 29.0807V16.0539C131.3 15.6468 130.99 15.298 130.583 15.2591C130.545 15.2591 130.506 15.2591 130.467 15.2591H130.021C129.634 15.2204 129.285 15.5305 129.246 15.9183C129.246 15.957 129.246 16.0152 129.246 16.0539V29.3715C129.246 32.0854 131.087 32.4925 132.173 32.4925C132.58 32.5312 132.929 32.2598 132.987 31.8527C132.987 31.7946 132.987 31.7558 132.987 31.6977V31.3487C133.026 30.9804 132.735 30.6702 132.386 30.6315C132.367 30.6315 132.347 30.6315 132.328 30.6315Z" fill="white"/>
<path d="M13.7711 32.5314H6.71494C4.4275 32.5314 2.58592 30.6704 2.58592 28.4023V21.3655C2.62469 20.784 2.19822 20.2994 1.63605 20.2412C1.07389 20.183 0.569874 20.6289 0.511719 21.1911C0.511719 21.2492 0.511719 21.3074 0.511719 21.3655V28.4023C0.511719 31.8335 3.30317 34.6055 6.71494 34.6055H13.7517C14.3332 34.5668 14.7598 34.0628 14.7016 33.4812C14.6822 32.9772 14.2752 32.5701 13.7711 32.5314Z" fill="white"/>
<path d="M15.8669 13.0493H8.83017C8.24859 13.0881 7.82215 13.5921 7.88031 14.1736C7.91908 14.6777 8.32616 15.0848 8.83017 15.1235H15.8669C18.1544 15.1235 19.996 16.9845 19.996 19.2719V26.3087C20.0347 26.8902 20.5387 27.3167 21.1203 27.2585C21.6243 27.2198 22.0314 26.8127 22.0702 26.3087V19.2719C22.0702 15.8407 19.2981 13.0493 15.8669 13.0493Z" fill="white"/>
<path d="M5.70878 27.9563C5.34047 28.3827 5.37924 29.0418 5.80571 29.4295C6.19341 29.7784 6.77496 29.7591 7.16266 29.4295L8.44212 28.1695C8.8104 27.7236 8.75224 27.0646 8.30639 26.6962C7.91868 26.3861 7.3759 26.3861 6.9882 26.6962L5.70878 27.9563Z" fill="white"/>
<path d="M9.93536 23.7307C9.567 24.1571 9.60583 24.8163 10.0323 25.204C10.42 25.5528 11.0015 25.5335 11.3892 25.204L12.6493 23.9439C13.0176 23.4981 12.9594 22.839 12.5136 22.4706C12.1259 22.1605 11.5831 22.1605 11.1954 22.4706L9.93536 23.7307Z" fill="white"/>
<path d="M16.1703 17.8955C15.8989 17.8955 15.6275 18.0118 15.4337 18.2056L14.1736 19.4657C13.8053 19.8921 13.8441 20.5513 14.2705 20.939C14.6583 21.2878 15.2398 21.2685 15.6275 20.939L16.8875 19.6789C17.2946 19.2718 17.2752 18.6127 16.8681 18.2056C16.7131 18.0118 16.4417 17.9148 16.1703 17.8955Z" fill="white"/>
<path d="M105.117 37.3968V36.854H108.277V37.3968H107.018V41.1187H106.397V37.3968H105.117Z" fill="white"/>
<path d="M108.348 41.0998V38.0951H108.929V38.5215C109.104 38.2308 109.375 38.0757 109.724 38.0757C109.782 38.0757 109.86 38.0757 109.938 38.0951V38.696C109.879 38.696 109.821 38.6767 109.782 38.6767C109.743 38.6767 109.705 38.6767 109.686 38.6767C109.394 38.6767 109.181 38.793 109.046 39.0062C109.026 39.045 109.007 39.0837 109.007 39.1225C108.988 39.1613 108.988 39.2 108.968 39.2388C108.948 39.2776 108.948 39.3163 108.948 39.3552C108.948 39.3939 108.948 39.4326 108.929 39.4521C108.929 39.4715 108.929 39.5102 108.929 39.549C108.929 39.5877 108.929 39.6265 108.929 39.6847V41.1191H108.348V41.0998Z" fill="white"/>
<path d="M110.25 39.5875C110.25 39.3743 110.289 39.1804 110.347 39.0059C110.406 38.8121 110.483 38.6571 110.599 38.5019C110.715 38.3469 110.852 38.2306 111.026 38.1531C111.201 38.0561 111.394 38.0173 111.607 38.0173C112.053 38.0173 112.383 38.1724 112.616 38.4632V38.1142H113.197V41.119H112.616V40.77C112.479 40.9251 112.344 41.0414 112.17 41.0995C112.014 41.1577 111.821 41.1964 111.607 41.1964C111.394 41.1964 111.201 41.1577 111.026 41.0608C110.852 40.9639 110.715 40.8476 110.599 40.6924C110.483 40.5374 110.406 40.3629 110.347 40.1884C110.27 39.9946 110.25 39.8007 110.25 39.5875ZM110.89 39.2192C110.871 39.3161 110.852 39.413 110.832 39.5099C110.832 39.6069 110.832 39.7038 110.852 39.8007C110.871 39.8977 110.89 39.9946 110.909 40.0721C110.948 40.1691 110.987 40.2466 111.026 40.3047C111.084 40.4017 111.181 40.4792 111.297 40.5374C111.413 40.5955 111.529 40.6149 111.685 40.6149C111.975 40.6149 112.189 40.518 112.363 40.3242C112.519 40.1303 112.596 39.8783 112.596 39.5875C112.596 39.4518 112.576 39.3161 112.538 39.1804C112.499 39.0448 112.441 38.9478 112.363 38.8509C112.286 38.754 112.189 38.6764 112.073 38.6182C111.956 38.5601 111.821 38.5408 111.685 38.5408C111.569 38.5408 111.472 38.5601 111.375 38.5989C111.278 38.6377 111.201 38.6764 111.142 38.7346C111.084 38.7927 111.026 38.8703 110.968 38.9478C110.948 39.0448 110.909 39.1223 110.89 39.2192Z" fill="white"/>
<path d="M113.684 38.0947H114.304L115.04 40.2465L115.757 38.0947H116.359L115.273 41.0994H114.769L113.684 38.0947Z" fill="white"/>
<path d="M116.648 39.5681C116.648 39.413 116.668 39.2774 116.687 39.1417C116.726 39.0059 116.765 38.8896 116.823 38.7734C116.881 38.6571 116.939 38.5601 117.017 38.4826C117.094 38.405 117.171 38.3275 117.269 38.2694C117.385 38.1724 117.52 38.1142 117.656 38.0755C117.792 38.0367 117.947 38.0173 118.083 38.0173C118.218 38.0173 118.354 38.0367 118.49 38.0755C118.626 38.1142 118.742 38.1724 118.878 38.25C118.994 38.3275 119.11 38.4438 119.207 38.5795C119.304 38.7152 119.381 38.8896 119.421 39.0835C119.459 39.2386 119.479 39.4325 119.479 39.6651V39.7232H117.249C117.249 40.014 117.346 40.2466 117.52 40.4211C117.656 40.5762 117.869 40.6537 118.141 40.6537C118.218 40.6537 118.296 40.6343 118.374 40.6149C118.451 40.5955 118.509 40.5568 118.567 40.5374C118.626 40.4986 118.684 40.4599 118.723 40.4017C118.761 40.3436 118.8 40.2854 118.839 40.2273H119.459C119.362 40.4599 119.246 40.6537 119.13 40.7894C118.994 40.9251 118.858 41.022 118.703 41.0802C118.587 41.119 118.49 41.1577 118.412 41.1771C118.315 41.1965 118.218 41.1964 118.121 41.1964C117.676 41.1964 117.307 41.0608 117.036 40.77C116.784 40.4599 116.648 40.0721 116.648 39.5681ZM118.858 39.2774C118.839 39.0448 118.761 38.8703 118.626 38.7346C118.47 38.5989 118.296 38.5408 118.102 38.5408C117.889 38.5408 117.715 38.6182 117.579 38.754C117.423 38.8896 117.346 39.0835 117.307 39.2967H118.858V39.2774Z" fill="white"/>
<path d="M121.453 41.0997V36.835H123.159C123.295 36.835 123.411 36.8544 123.528 36.8738C123.644 36.8931 123.76 36.9513 123.857 37.0094C123.954 37.0676 124.051 37.1257 124.148 37.2227C124.245 37.3002 124.322 37.3971 124.38 37.5134C124.516 37.7267 124.574 37.9593 124.574 38.2307C124.574 38.5021 124.516 38.7348 124.38 38.948C124.245 39.1612 124.07 39.3163 123.857 39.452C123.644 39.5683 123.411 39.6265 123.139 39.6265H122.035V41.1191H121.453V41.0997ZM122.073 39.0449H123.159C123.411 39.0449 123.605 38.9674 123.76 38.8122C123.915 38.6572 123.993 38.4634 123.993 38.2113C123.993 37.9593 123.915 37.7655 123.76 37.6104C123.605 37.4553 123.392 37.3778 123.159 37.3778H122.073V39.0449Z" fill="white"/>
<path d="M124.773 39.5681C124.773 39.413 124.793 39.2774 124.813 39.1417C124.851 39.0059 124.89 38.8896 124.948 38.7734C125.006 38.6571 125.065 38.5601 125.142 38.4826C125.219 38.405 125.297 38.3275 125.394 38.2694C125.511 38.1724 125.646 38.1142 125.782 38.0755C125.917 38.0367 126.072 38.0173 126.209 38.0173C126.344 38.0173 126.48 38.0367 126.615 38.0755C126.751 38.1142 126.867 38.1724 127.003 38.25C127.119 38.3275 127.235 38.4438 127.332 38.5795C127.429 38.7152 127.507 38.8896 127.546 39.0835C127.584 39.2386 127.604 39.4325 127.604 39.6651V39.7232H125.374C125.374 40.014 125.471 40.2466 125.646 40.4211C125.782 40.5762 125.995 40.6537 126.266 40.6537C126.344 40.6537 126.421 40.6343 126.499 40.6149C126.577 40.5955 126.634 40.5568 126.693 40.5374C126.751 40.4986 126.809 40.4599 126.848 40.4017C126.886 40.3436 126.926 40.2854 126.964 40.2273H127.584C127.487 40.4599 127.371 40.6537 127.255 40.7894C127.119 40.9251 126.983 41.022 126.829 41.0802C126.712 41.119 126.615 41.1577 126.537 41.1771C126.441 41.1965 126.344 41.1964 126.247 41.1964C125.801 41.1964 125.433 41.0608 125.162 40.77C124.909 40.4599 124.773 40.0721 124.773 39.5681ZM126.983 39.2774C126.964 39.0448 126.886 38.8703 126.751 38.7346C126.596 38.5989 126.421 38.5408 126.228 38.5408C126.014 38.5408 125.84 38.6182 125.704 38.754C125.549 38.8896 125.471 39.0835 125.433 39.2967H126.983V39.2774Z" fill="white"/>
<path d="M128.312 41.0998V38.0951H128.894V38.5215C129.068 38.2308 129.34 38.0757 129.689 38.0757C129.747 38.0757 129.825 38.0757 129.902 38.0951V38.696C129.844 38.696 129.785 38.6767 129.747 38.6767C129.708 38.6767 129.669 38.6767 129.65 38.6767C129.359 38.6767 129.146 38.793 129.01 39.0062C128.991 39.045 128.971 39.0837 128.971 39.1225C128.952 39.1613 128.952 39.2 128.933 39.2388C128.913 39.2776 128.913 39.3163 128.913 39.3552C128.913 39.3939 128.913 39.4326 128.894 39.4521C128.894 39.4715 128.894 39.5102 128.894 39.549C128.894 39.5877 128.894 39.6265 128.894 39.6847V41.1191H128.312V41.0998Z" fill="white"/>
<path d="M130.449 41.0997V36.835H131.031V39.2969L132.213 38.095H132.969L131.573 39.4714L133.008 41.0997H132.194L131.031 39.7234V41.0997H130.449Z" fill="white"/>
<path d="M120.191 40.4987C120.191 40.6926 120.25 40.8477 120.366 40.964C120.463 41.0609 120.599 41.1191 120.773 41.1191V40.2855V38.6959V36.835H120.191V40.4987Z" fill="white"/>
<path d="M75.3984 37.1646H76.4452C77.2013 37.1646 77.7828 37.4747 77.7828 38.2695V38.2889C77.7828 39.103 77.2013 39.4132 76.4452 39.4132H75.7086V41.0997H75.3984V37.1646ZM76.4646 39.1612C77.1043 39.1612 77.4726 38.8898 77.4726 38.2889V38.2695C77.4726 37.6298 77.0655 37.4165 76.4452 37.4165H75.6892V39.1612H76.4646Z" fill="white"/>
<path d="M78.1289 39.6844V39.6456C78.1289 38.7733 78.749 38.1724 79.5247 38.1724C80.2996 38.1724 80.9205 38.7539 80.9205 39.6262V39.665C80.9205 40.5373 80.2996 41.1383 79.5247 41.1383C78.7297 41.1383 78.1289 40.5373 78.1289 39.6844ZM80.61 39.6844V39.6456C80.61 38.8896 80.1448 38.4243 79.5247 38.4243C78.9046 38.4243 78.4393 38.8896 78.4393 39.6456V39.6844C78.4393 40.421 78.9046 40.8862 79.5247 40.8862C80.1448 40.8862 80.61 40.421 80.61 39.6844Z" fill="white"/>
<path d="M81.25 38.2109H81.5597L82.3354 40.731L83.1303 38.2109H83.3822L84.1379 40.731L84.9136 38.2109H85.204L84.2935 41.0993H83.9638L83.2466 38.6955L82.4902 41.0993H82.1605L81.25 38.2109Z" fill="white"/>
<path d="M85.5547 39.6844V39.6456C85.5547 38.7733 86.0977 38.1724 86.8734 38.1724C87.5713 38.1724 88.1329 38.6182 88.1329 39.5681V39.665H85.8459C85.8651 40.4404 86.2333 40.8669 86.912 40.8669C87.3965 40.8669 87.7069 40.673 87.8232 40.2659H88.1136C87.9973 40.8087 87.5321 41.1188 86.912 41.1188C86.0785 41.1383 85.5547 40.5567 85.5547 39.6844ZM87.8232 39.4518C87.804 38.7539 87.435 38.4243 86.8734 38.4243C86.3111 38.4243 85.9237 38.812 85.8651 39.4518H87.8232Z" fill="white"/>
<path d="M88.8125 38.2111H89.1037V38.812C89.2585 38.4632 89.5489 38.1917 90.0727 38.1724V38.4437C89.5104 38.4632 89.1037 38.7151 89.1037 39.4905V41.0801H88.8125V38.2111Z" fill="white"/>
<path d="M90.3984 39.6844V39.6456C90.3984 38.7733 90.9415 38.1724 91.7164 38.1724C92.4143 38.1724 92.9766 38.6182 92.9766 39.5681V39.665H90.6888C90.7089 40.4404 91.0771 40.8669 91.7549 40.8669C92.2402 40.8669 92.5499 40.673 92.6662 40.2659H92.9574C92.8411 40.8087 92.3758 41.1188 91.7549 41.1188C90.9415 41.1383 90.3984 40.5567 90.3984 39.6844ZM92.6855 39.4518C92.6662 38.7539 92.298 38.4243 91.7357 38.4243C91.1734 38.4243 90.7859 38.812 90.7281 39.4518H92.6855Z" fill="white"/>
<path d="M93.4648 39.7036V39.6648C93.4648 38.7731 94.0464 38.1916 94.8021 38.1916C95.3644 38.1916 95.6941 38.5211 95.8489 38.87V36.854H96.1401V41.1187H95.8489V40.4596C95.6941 40.8086 95.2874 41.1769 94.7443 41.1769C94.0272 41.1381 93.4648 40.6147 93.4648 39.7036ZM95.8489 39.6842V39.6454C95.8489 38.8506 95.423 38.4436 94.8221 38.4436C94.2013 38.4436 93.7552 38.8894 93.7552 39.6648V39.7036C93.7552 40.4984 94.2013 40.9055 94.7828 40.9055C95.3644 40.8861 95.8489 40.4596 95.8489 39.6842Z" fill="white"/>
<path d="M98.6935 40.4406V41.0997H98.4023V36.835H98.6935V38.8898C98.8676 38.5215 99.2751 38.1726 99.7981 38.1726C100.515 38.1726 101.097 38.7348 101.097 39.6265V39.6652C101.097 40.5763 100.555 41.1385 99.7981 41.1385C99.2165 41.1385 98.8483 40.7895 98.6935 40.4406ZM100.767 39.6846V39.6458C100.767 38.8511 100.302 38.4246 99.7404 38.4246C99.178 38.4246 98.6735 38.8511 98.6735 39.6458V39.6846C98.6735 40.4794 99.1588 40.8864 99.7596 40.8864C100.36 40.8864 100.767 40.46 100.767 39.6846Z" fill="white"/>
<path d="M102.534 40.8473L101.391 38.2109H101.7L102.689 40.4983L103.601 38.2109H103.891L102.301 42.0879H101.991L102.534 40.8473Z" fill="white"/>
</g>
</g>
<defs>
<clipPath id="clip0_425_453">
<rect width="133.262" height="50.0696" fill="white" transform="translate(0.515625 -0.052002)"/>
</clipPath>
</defs>
</svg>
