<svg width="134" height="51" viewBox="0 0 134 51" fill="none" xmlns="http://www.w3.org/2000/svg">
<g clip-path="url(#clip0_360_2628)">
<mask id="mask0_360_2628" style="mask-type:luminance" maskUnits="userSpaceOnUse" x="0" y="13" width="134" height="30">
<path d="M133.009 13.0342H0.511719V42.3056H133.009V13.0342Z" fill="white"/>
</mask>
<g mask="url(#mask0_360_2628)">
<path d="M42.5182 29.0654C42.4019 28.8909 42.2275 28.7746 42.0142 28.7552C41.801 28.7358 41.5878 28.8133 41.4327 28.9685C40.0563 30.0928 38.3504 30.7324 36.567 30.7324C32.7288 30.7324 29.9374 27.7666 29.9374 23.6763C29.9374 19.586 32.6319 16.8915 36.4895 16.8915C38.1179 16.8915 39.7074 17.3955 41.0256 18.3261C41.3164 18.5974 41.7816 18.5586 42.053 18.2679C42.0724 18.2485 42.0918 18.2097 42.1112 18.1903L42.3244 17.8801C42.5958 17.5506 42.5376 17.066 42.1887 16.7946C40.5409 15.554 38.5056 14.9142 36.4507 14.9724C31.4688 14.9724 27.8438 18.6556 27.8438 23.7151C27.8438 28.9103 31.4881 32.671 36.5283 32.671C38.7769 32.671 40.948 31.8762 42.6734 30.4223C42.9835 30.1509 43.0416 29.6857 42.7703 29.3755C42.7509 29.3562 42.7509 29.3562 42.7315 29.3367L42.5182 29.0654Z" fill="#141414"/>
<path d="M47.6916 30.6164C47.2651 30.5582 46.6254 30.4613 46.6254 29.0656V16.0388C46.6642 15.6317 46.354 15.2828 45.9469 15.244C45.9082 15.244 45.8694 15.244 45.8306 15.244H45.3848C44.9971 15.2053 44.6481 15.5154 44.6094 15.9031C44.6094 15.9419 44.6094 16 44.6094 16.0388V29.3564C44.6094 32.0702 46.4509 32.4773 47.5365 32.4773C47.9436 32.5355 48.2926 32.2447 48.3507 31.8376C48.3507 31.7794 48.3507 31.7407 48.3507 31.6825V31.3336C48.3895 30.9653 48.0987 30.6551 47.7497 30.6164C47.7304 30.6164 47.711 30.6164 47.6916 30.6164Z" fill="#141414"/>
<path d="M50.9549 20.0128H50.509C50.1019 19.974 49.753 20.2842 49.7142 20.6913C49.7142 20.7301 49.7142 20.7688 49.7142 20.8076V31.5857C49.6755 31.9928 49.9856 32.3417 50.3927 32.3805C50.4314 32.3805 50.4703 32.3805 50.509 32.3805H50.9549C51.3425 32.4193 51.6915 32.1091 51.7302 31.7214C51.7302 31.6826 51.7302 31.6245 51.7302 31.5857V20.8076C51.7691 20.4199 51.4976 20.0516 51.1099 20.0128C51.0518 20.0128 51.013 20.0128 50.9549 20.0128Z" fill="#141414"/>
<path d="M51.0285 15.244H50.4276C50.0398 15.2053 49.6909 15.5154 49.6521 15.9031C49.6521 15.9418 49.6521 16 49.6521 16.0388V16.8918C49.6134 17.2795 49.8848 17.6283 50.2531 17.6672C50.3113 17.6672 50.3694 17.6672 50.4082 17.6672H51.0091C51.3968 17.7059 51.7263 17.4345 51.7845 17.0468C51.7845 16.9887 51.7845 16.9499 51.7845 16.8918V16.0194C51.8233 15.6317 51.5325 15.2828 51.1448 15.2246C51.1254 15.244 51.0672 15.244 51.0285 15.244Z" fill="#141414"/>
<path d="M64.5386 29.8022C64.4417 29.6084 64.2479 29.4727 64.054 29.4339C63.8408 29.3951 63.6276 29.4533 63.4531 29.6084C62.542 30.3838 61.3982 30.8297 60.1964 30.8297C57.7539 30.8878 55.7378 28.9493 55.6797 26.5261C55.6797 26.4098 55.6797 26.3129 55.6797 26.1966C55.5634 23.7541 57.4243 21.6799 59.8668 21.5635C59.9638 21.5635 60.0607 21.5635 60.1576 21.5635C61.2238 21.583 62.2512 21.9513 63.0847 22.6298C63.2592 22.746 63.4531 22.8236 63.6663 22.8042C63.8795 22.7849 64.0734 22.6491 64.1703 22.4553L64.3254 22.2033C64.4804 22.0288 64.5386 21.8156 64.5193 21.6024C64.4804 21.4085 64.3835 21.234 64.2285 21.1177C63.0654 20.2067 61.6309 19.722 60.1383 19.7414C56.6683 19.6251 53.78 22.339 53.6442 25.7895C53.6442 25.9252 53.6442 26.0803 53.6442 26.216C53.5279 29.6666 56.2418 32.5743 59.6923 32.6906C59.8475 32.6906 59.9831 32.6906 60.1383 32.6906C61.7472 32.6906 63.298 32.1478 64.5386 31.1204C64.8876 30.8684 64.9457 30.4031 64.7131 30.0543L64.5386 29.8022Z" fill="#141414"/>
<path d="M71.6389 25.46L75.1864 21.0401C75.3803 20.8657 75.4384 20.5749 75.3415 20.3423C75.2058 20.1097 74.9537 19.974 74.6824 20.0128H74.0815C73.7325 20.0128 73.4224 20.1678 73.2091 20.4392L69.9524 24.5876H68.3047V16.0388C68.3435 15.6317 68.0333 15.2828 67.6262 15.244C67.5874 15.244 67.5487 15.244 67.5099 15.244H67.0641C66.6763 15.2053 66.3274 15.5154 66.2886 15.9031C66.2886 15.9419 66.2886 16 66.2886 16.0388V31.5856C66.2499 31.9733 66.5407 32.3223 66.9284 32.3804C66.9671 32.3804 67.0253 32.3804 67.0641 32.3804H67.5099C67.917 32.4192 68.2659 32.1284 68.3241 31.7214C68.3241 31.6825 68.3241 31.6244 68.3241 31.5856V26.4098H69.9718L73.6549 31.8958C73.8101 32.2254 74.159 32.4192 74.5079 32.3998H75.1282C75.3996 32.4386 75.6516 32.3223 75.7874 32.0896C75.9036 31.857 75.8649 31.5856 75.6904 31.3724L71.6389 25.46Z" fill="#141414"/>
<path d="M88.6172 16.349V16.0388C88.6564 15.6317 88.346 15.2828 87.9393 15.244C87.9 15.244 87.8615 15.244 87.823 15.244H75.3581C74.951 15.2052 74.6021 15.5154 74.5633 15.9225C74.5633 15.9612 74.5633 16 74.5633 16.0388V16.349C74.5439 16.756 74.8735 17.105 75.2612 17.105C75.2805 17.105 75.3194 17.105 75.3387 17.105H80.5536V31.5856C80.5144 31.9927 80.8248 32.3417 81.2315 32.3804C81.2708 32.3804 81.3093 32.3804 81.3478 32.3804H81.8323C82.2206 32.3998 82.5695 32.109 82.5888 31.7214C82.5888 31.6825 82.5888 31.6438 82.5888 31.605V17.105H87.823C88.2297 17.1244 88.5786 16.7948 88.5786 16.3877C88.6172 16.3877 88.6172 16.3683 88.6172 16.349Z" fill="#141414"/>
<path d="M93.1522 19.9353C91.6016 19.9934 90.2058 20.9239 89.5272 22.3196V20.7882C89.5665 20.4005 89.2753 20.0322 88.8686 19.9935C88.8293 19.9935 88.7908 19.9935 88.7523 19.9935H88.3255C87.918 19.9546 87.5691 20.2648 87.5306 20.6719C87.5306 20.7107 87.5306 20.7494 87.5306 20.7882V31.5663C87.4921 31.9734 87.8017 32.3223 88.2092 32.3611C88.2477 32.3611 88.287 32.3611 88.3255 32.3611H88.7715C89.159 32.3999 89.5079 32.0897 89.5465 31.702C89.5465 31.6632 89.5465 31.6051 89.5465 31.5663V27.1077C89.5465 24.5877 90.7874 21.9125 93.0945 21.9125C93.5204 21.9513 93.9087 21.6605 93.9472 21.234C93.9472 21.1953 93.9472 21.1565 93.9472 21.1371V20.7107C93.9857 20.323 93.676 19.974 93.2878 19.9353C93.2686 19.9353 93.2108 19.9353 93.1522 19.9353Z" fill="#141414"/>
<path d="M99.4593 19.7222C98.0828 19.7222 96.7263 20.0905 95.5439 20.8078C95.195 21.0016 95.0586 21.4474 95.2527 21.7964C95.272 21.8158 95.2912 21.8545 95.3113 21.8739L95.4661 22.1259C95.6795 22.4943 96.1447 22.6106 96.4937 22.3973C96.5129 22.3973 96.5129 22.3779 96.5322 22.3779C97.3849 21.8545 98.3547 21.5831 99.343 21.5637C101.204 21.5637 102.096 22.5136 102.096 24.4715V24.6653H101.592C96.61 24.6653 94.0703 26.1192 94.0703 28.9882C94.0703 31.4113 96.2025 32.6908 98.3154 32.6908C99.5564 32.6908 100.739 32.1868 101.592 31.2757C101.805 31.0624 101.98 30.8104 102.154 30.5584C102.154 30.5584 102.154 30.6165 102.154 30.636V31.5858C102.115 31.9735 102.386 32.3224 102.793 32.3806C102.852 32.3806 102.89 32.3806 102.949 32.3806H103.336C103.724 32.4 104.073 32.1092 104.093 31.7215C104.093 31.6827 104.093 31.644 104.093 31.6052V24.5297C104.112 21.4281 102.464 19.7222 99.4593 19.7222ZM98.6259 30.9267C96.9197 30.9267 96.1447 29.8412 96.1447 28.8331C96.1447 26.5457 99.0719 26.2549 101.631 26.2549H102.115V26.6232C102.115 28.6975 100.777 30.9267 98.6259 30.9267Z" fill="#141414"/>
<path d="M115.175 20.0124H114.671C114.283 19.9931 113.934 20.2451 113.857 20.6134L110.697 28.9296C110.6 29.201 110.504 29.4918 110.426 29.7631C110.348 29.4918 110.271 29.201 110.174 28.9296L107.014 20.6328C106.917 20.2451 106.568 19.9931 106.181 20.0124H105.657C105.424 19.9931 105.192 20.09 105.056 20.2838C104.94 20.4971 104.94 20.7297 105.056 20.943L109.224 31.7792C109.34 32.1475 109.689 32.3802 110.077 32.3607H110.872C111.24 32.3802 111.589 32.1475 111.686 31.7792L115.834 20.9817C115.931 20.7685 115.912 20.5164 115.796 20.3226C115.64 20.1094 115.407 19.9931 115.175 20.0124Z" fill="#141414"/>
<path d="M122.172 19.7222C118.567 19.7222 116.066 22.3779 116.066 26.2162C115.95 29.6667 118.644 32.5551 122.095 32.6714C122.231 32.6714 122.386 32.6714 122.521 32.6714C124.014 32.6714 125.448 32.1868 126.65 31.295C126.999 31.0624 127.096 30.5972 126.863 30.2677C126.863 30.2677 126.863 30.2677 126.863 30.2483L126.67 29.9769C126.573 29.8024 126.417 29.6861 126.224 29.6279C126.011 29.5892 125.778 29.6473 125.603 29.783C124.731 30.4615 123.665 30.8298 122.58 30.8298C120.467 30.8298 118.295 29.4729 118.141 26.4294H126.573C127.019 26.4294 127.368 26.0805 127.387 25.654V25.6346C127.368 21.9902 125.371 19.7222 122.172 19.7222ZM122.115 21.4474C123.568 21.4474 125.158 22.3391 125.313 24.8204H118.218C118.489 22.8819 120.156 21.4474 122.115 21.4474Z" fill="#141414"/>
<path d="M132.328 30.6164C131.901 30.5582 131.262 30.4613 131.262 29.0656V16.0388C131.3 15.6317 130.99 15.2828 130.583 15.244C130.545 15.244 130.506 15.244 130.467 15.244H130.021C129.634 15.2053 129.285 15.5154 129.246 15.9031C129.246 15.9419 129.246 16 129.246 16.0388V29.3564C129.246 32.0702 131.087 32.4773 132.173 32.4773C132.58 32.5161 132.929 32.2447 132.987 31.8376C132.987 31.7794 132.987 31.7407 132.987 31.6825V31.3336C133.026 30.9653 132.735 30.6551 132.386 30.6164C132.367 30.6164 132.347 30.6164 132.328 30.6164Z" fill="#141414"/>
<path d="M13.7711 32.5162H6.71494C4.4275 32.5162 2.58592 30.6552 2.58592 28.3872V21.3504C2.62469 20.7689 2.19822 20.2842 1.63605 20.2261C1.07389 20.1679 0.569874 20.6138 0.511719 21.1759C0.511719 21.2341 0.511719 21.2922 0.511719 21.3504V28.3872C0.511719 31.8183 3.30317 34.5904 6.71494 34.5904H13.7517C14.3332 34.5517 14.7598 34.0477 14.7016 33.4661C14.6822 32.9621 14.2752 32.555 13.7711 32.5162Z" fill="#141414"/>
<path d="M15.8669 13.0342H8.83017C8.24859 13.0729 7.82215 13.5769 7.88031 14.1585C7.91908 14.6625 8.32616 15.0696 8.83017 15.1084H15.8669C18.1544 15.1084 19.996 16.9693 19.996 19.2567V26.2935C20.0347 26.8751 20.5387 27.3015 21.1203 27.2434C21.6243 27.2046 22.0314 26.7975 22.0702 26.2935V19.2567C22.0702 15.8256 19.2981 13.0342 15.8669 13.0342Z" fill="#141414"/>
<path d="M5.70878 27.9411C5.34047 28.3676 5.37924 29.0266 5.80571 29.4143C6.19341 29.7633 6.77496 29.744 7.16266 29.4143L8.44212 28.1544C8.8104 27.7085 8.75224 27.0494 8.30639 26.6811C7.91868 26.371 7.3759 26.371 6.9882 26.6811L5.70878 27.9411Z" fill="#141414"/>
<path d="M9.93536 23.7156C9.567 24.142 9.60583 24.8011 10.0323 25.1888C10.42 25.5377 11.0015 25.5184 11.3892 25.1888L12.6493 23.9288C13.0176 23.4829 12.9594 22.8239 12.5136 22.4555C12.1259 22.1454 11.5831 22.1454 11.1954 22.4555L9.93536 23.7156Z" fill="#141414"/>
<path d="M16.1703 17.8804C15.8989 17.8804 15.6275 17.9967 15.4337 18.1905L14.1736 19.4506C13.8053 19.877 13.8441 20.5361 14.2705 20.9238C14.6583 21.2727 15.2398 21.2534 15.6275 20.9238L16.8875 19.6638C17.2946 19.2567 17.2752 18.5976 16.8681 18.1905C16.7131 17.9967 16.4417 17.8997 16.1703 17.8804Z" fill="#141414"/>
<path d="M105.117 37.3816V36.8389H108.277V37.3816H107.018V41.1036H106.397V37.3816H105.117Z" fill="#141414"/>
<path d="M108.348 41.0847V38.08H108.929V38.5064C109.104 38.2157 109.375 38.0605 109.724 38.0605C109.782 38.0605 109.86 38.0605 109.938 38.08V38.6809C109.879 38.6809 109.821 38.6615 109.782 38.6615C109.743 38.6615 109.705 38.6615 109.686 38.6615C109.394 38.6615 109.181 38.7779 109.046 38.9911C109.026 39.0298 109.007 39.0686 109.007 39.1074C108.988 39.1461 108.988 39.1849 108.968 39.2237C108.948 39.2624 108.948 39.3012 108.948 39.34C108.948 39.3788 108.948 39.4175 108.929 39.4369C108.929 39.4563 108.929 39.4951 108.929 39.5338C108.929 39.5726 108.929 39.6114 108.929 39.6696V41.104H108.348V41.0847Z" fill="#141414"/>
<path d="M110.25 39.5724C110.25 39.3592 110.289 39.1653 110.347 38.9908C110.406 38.797 110.483 38.6419 110.599 38.4868C110.715 38.3317 110.852 38.2154 111.026 38.1379C111.201 38.0409 111.394 38.0022 111.607 38.0022C112.053 38.0022 112.383 38.1573 112.616 38.448V38.0991H113.197V41.1038H112.616V40.7549C112.479 40.9099 112.344 41.0262 112.17 41.0844C112.014 41.1426 111.821 41.1813 111.607 41.1813C111.394 41.1813 111.201 41.1426 111.026 41.0457C110.852 40.9488 110.715 40.8324 110.599 40.6773C110.483 40.5222 110.406 40.3478 110.347 40.1733C110.27 39.9795 110.25 39.7856 110.25 39.5724ZM110.89 39.2041C110.871 39.301 110.852 39.3979 110.832 39.4948C110.832 39.5918 110.832 39.6887 110.852 39.7856C110.871 39.8826 110.89 39.9795 110.909 40.057C110.948 40.154 110.987 40.2315 111.026 40.2896C111.084 40.3866 111.181 40.4641 111.297 40.5222C111.413 40.5804 111.529 40.5998 111.685 40.5998C111.975 40.5998 112.189 40.5029 112.363 40.309C112.519 40.1151 112.596 39.8632 112.596 39.5724C112.596 39.4367 112.576 39.301 112.538 39.1653C112.499 39.0296 112.441 38.9326 112.363 38.8357C112.286 38.7388 112.189 38.6613 112.073 38.6031C111.956 38.545 111.821 38.5256 111.685 38.5256C111.569 38.5256 111.472 38.545 111.375 38.5838C111.278 38.6225 111.201 38.6613 111.142 38.7194C111.084 38.7776 111.026 38.8552 110.968 38.9326C110.948 39.0296 110.909 39.1071 110.89 39.2041Z" fill="#141414"/>
<path d="M113.684 38.0796H114.304L115.04 40.2313L115.757 38.0796H116.359L115.273 41.0842H114.769L113.684 38.0796Z" fill="#141414"/>
<path d="M116.648 39.553C116.648 39.3979 116.668 39.2623 116.687 39.1265C116.726 38.9908 116.765 38.8745 116.823 38.7582C116.881 38.6419 116.939 38.545 117.017 38.4675C117.094 38.3899 117.171 38.3123 117.269 38.2542C117.385 38.1573 117.52 38.0991 117.656 38.0604C117.792 38.0216 117.947 38.0022 118.083 38.0022C118.218 38.0022 118.354 38.0216 118.49 38.0604C118.626 38.0991 118.742 38.1573 118.878 38.2348C118.994 38.3123 119.11 38.4286 119.207 38.5644C119.304 38.7001 119.381 38.8745 119.421 39.0684C119.459 39.2234 119.479 39.4173 119.479 39.65V39.7081H117.249C117.249 39.9989 117.346 40.2315 117.52 40.4059C117.656 40.5611 117.869 40.6386 118.141 40.6386C118.218 40.6386 118.296 40.6191 118.374 40.5998C118.451 40.5804 118.509 40.5417 118.567 40.5222C118.626 40.4835 118.684 40.4447 118.723 40.3866C118.761 40.3284 118.8 40.2703 118.839 40.2121H119.459C119.362 40.4447 119.246 40.6386 119.13 40.7743C118.994 40.9099 118.858 41.0069 118.703 41.0651C118.587 41.1038 118.49 41.1426 118.412 41.162C118.315 41.1814 118.218 41.1813 118.121 41.1813C117.676 41.1813 117.307 41.0457 117.036 40.7549C116.784 40.4447 116.648 40.057 116.648 39.553ZM118.858 39.2623C118.839 39.0296 118.761 38.8552 118.626 38.7194C118.47 38.5838 118.296 38.5256 118.102 38.5256C117.889 38.5256 117.715 38.6031 117.579 38.7388C117.423 38.8745 117.346 39.0684 117.307 39.2816H118.858V39.2623Z" fill="#141414"/>
<path d="M121.453 41.0846V36.8198H123.159C123.295 36.8198 123.411 36.8392 123.528 36.8586C123.644 36.878 123.76 36.9361 123.857 36.9943C123.954 37.0525 124.051 37.1106 124.148 37.2076C124.245 37.2851 124.322 37.382 124.38 37.4983C124.516 37.7116 124.574 37.9442 124.574 38.2156C124.574 38.487 124.516 38.7196 124.38 38.9328C124.245 39.1461 124.07 39.3011 123.857 39.4368C123.644 39.5532 123.411 39.6113 123.139 39.6113H122.035V41.1039H121.453V41.0846ZM122.073 39.0297H123.159C123.411 39.0297 123.605 38.9522 123.76 38.7971C123.915 38.642 123.993 38.4482 123.993 38.1962C123.993 37.9442 123.915 37.7503 123.76 37.5953C123.605 37.4401 123.392 37.3627 123.159 37.3627H122.073V39.0297Z" fill="#141414"/>
<path d="M124.773 39.553C124.773 39.3979 124.793 39.2623 124.813 39.1265C124.851 38.9908 124.89 38.8745 124.948 38.7582C125.006 38.6419 125.065 38.545 125.142 38.4675C125.219 38.3899 125.297 38.3123 125.394 38.2542C125.511 38.1573 125.646 38.0991 125.782 38.0604C125.917 38.0216 126.072 38.0022 126.209 38.0022C126.344 38.0022 126.48 38.0216 126.615 38.0604C126.751 38.0991 126.867 38.1573 127.003 38.2348C127.119 38.3123 127.235 38.4286 127.332 38.5644C127.429 38.7001 127.507 38.8745 127.546 39.0684C127.584 39.2234 127.604 39.4173 127.604 39.65V39.7081H125.374C125.374 39.9989 125.471 40.2315 125.646 40.4059C125.782 40.5611 125.995 40.6386 126.266 40.6386C126.344 40.6386 126.421 40.6191 126.499 40.5998C126.577 40.5804 126.634 40.5417 126.693 40.5222C126.751 40.4835 126.809 40.4447 126.848 40.3866C126.886 40.3284 126.926 40.2703 126.964 40.2121H127.584C127.487 40.4447 127.371 40.6386 127.255 40.7743C127.119 40.9099 126.983 41.0069 126.829 41.0651C126.712 41.1038 126.615 41.1426 126.537 41.162C126.441 41.1814 126.344 41.1813 126.247 41.1813C125.801 41.1813 125.433 41.0457 125.162 40.7549C124.909 40.4447 124.773 40.057 124.773 39.553ZM126.983 39.2623C126.964 39.0296 126.886 38.8552 126.751 38.7194C126.596 38.5838 126.421 38.5256 126.228 38.5256C126.014 38.5256 125.84 38.6031 125.704 38.7388C125.549 38.8745 125.471 39.0684 125.433 39.2816H126.983V39.2623Z" fill="#141414"/>
<path d="M128.312 41.0847V38.08H128.894V38.5064C129.068 38.2157 129.34 38.0605 129.689 38.0605C129.747 38.0605 129.825 38.0605 129.902 38.08V38.6809C129.844 38.6809 129.785 38.6615 129.747 38.6615C129.708 38.6615 129.669 38.6615 129.65 38.6615C129.359 38.6615 129.146 38.7779 129.01 38.9911C128.991 39.0298 128.971 39.0686 128.971 39.1074C128.952 39.1461 128.952 39.1849 128.933 39.2237C128.913 39.2624 128.913 39.3012 128.913 39.34C128.913 39.3788 128.913 39.4175 128.894 39.4369C128.894 39.4563 128.894 39.4951 128.894 39.5338C128.894 39.5726 128.894 39.6114 128.894 39.6696V41.104H128.312V41.0847Z" fill="#141414"/>
<path d="M130.449 41.0846V36.8198H131.031V39.2818L132.213 38.0799H132.969L131.573 39.4563L133.008 41.0846H132.194L131.031 39.7082V41.0846H130.449Z" fill="#141414"/>
<path d="M120.191 40.4836C120.191 40.6775 120.25 40.8326 120.366 40.9489C120.463 41.0458 120.599 41.1039 120.773 41.1039V40.2704V38.6808V36.8198H120.191V40.4836Z" fill="#141414"/>
<path d="M75.3984 37.1494H76.4452C77.2013 37.1494 77.7828 37.4595 77.7828 38.2543V38.2737C77.7828 39.0879 77.2013 39.3981 76.4452 39.3981H75.7086V41.0846H75.3984V37.1494ZM76.4646 39.146C77.1043 39.146 77.4726 38.8747 77.4726 38.2737V38.2543C77.4726 37.6147 77.0655 37.4014 76.4452 37.4014H75.6892V39.146H76.4646Z" fill="#141414"/>
<path d="M78.1289 39.6692V39.6305C78.1289 38.7581 78.749 38.1572 79.5247 38.1572C80.2996 38.1572 80.9205 38.7387 80.9205 39.6111V39.6498C80.9205 40.5222 80.2996 41.1231 79.5247 41.1231C78.7297 41.1231 78.1289 40.5222 78.1289 39.6692ZM80.61 39.6692V39.6305C80.61 38.8745 80.1448 38.4092 79.5247 38.4092C78.9046 38.4092 78.4393 38.8745 78.4393 39.6305V39.6692C78.4393 40.4059 78.9046 40.8711 79.5247 40.8711C80.1448 40.8711 80.61 40.4059 80.61 39.6692Z" fill="#141414"/>
<path d="M81.25 38.1958H81.5597L82.3354 40.7158L83.1303 38.1958H83.3822L84.1379 40.7158L84.9136 38.1958H85.204L84.2935 41.0842H83.9638L83.2466 38.6804L82.4902 41.0842H82.1605L81.25 38.1958Z" fill="#141414"/>
<path d="M85.5547 39.6692V39.6305C85.5547 38.7581 86.0977 38.1572 86.8734 38.1572C87.5713 38.1572 88.1329 38.6031 88.1329 39.5529V39.6498H85.8459C85.8651 40.4252 86.2333 40.8517 86.912 40.8517C87.3965 40.8517 87.7069 40.6579 87.8232 40.2508H88.1136C87.9973 40.7936 87.5321 41.1037 86.912 41.1037C86.0785 41.1231 85.5547 40.5415 85.5547 39.6692ZM87.8232 39.4366C87.804 38.7387 87.435 38.4092 86.8734 38.4092C86.3111 38.4092 85.9237 38.7969 85.8651 39.4366H87.8232Z" fill="#141414"/>
<path d="M88.8125 38.196H89.1037V38.7969C89.2585 38.448 89.5489 38.1766 90.0727 38.1572V38.4286C89.5104 38.448 89.1037 38.7 89.1037 39.4754V41.065H88.8125V38.196Z" fill="#141414"/>
<path d="M90.3984 39.6692V39.6305C90.3984 38.7581 90.9415 38.1572 91.7164 38.1572C92.4143 38.1572 92.9766 38.6031 92.9766 39.5529V39.6498H90.6888C90.7089 40.4252 91.0771 40.8517 91.7549 40.8517C92.2402 40.8517 92.5499 40.6579 92.6662 40.2508H92.9574C92.8411 40.7936 92.3758 41.1037 91.7549 41.1037C90.9415 41.1231 90.3984 40.5415 90.3984 39.6692ZM92.6855 39.4366C92.6662 38.7387 92.298 38.4092 91.7357 38.4092C91.1734 38.4092 90.7859 38.7969 90.7281 39.4366H92.6855Z" fill="#141414"/>
<path d="M93.4648 39.6884V39.6497C93.4648 38.758 94.0464 38.1764 94.8021 38.1764C95.3644 38.1764 95.6941 38.506 95.8489 38.8549V36.8389H96.1401V41.1036H95.8489V40.4445C95.6941 40.7934 95.2874 41.1617 94.7443 41.1617C94.0272 41.123 93.4648 40.5996 93.4648 39.6884ZM95.8489 39.6691V39.6303C95.8489 38.8355 95.423 38.4285 94.8221 38.4285C94.2013 38.4285 93.7552 38.8743 93.7552 39.6497V39.6884C93.7552 40.4832 94.2013 40.8903 94.7828 40.8903C95.3644 40.8709 95.8489 40.4445 95.8489 39.6691Z" fill="#141414"/>
<path d="M98.6935 40.4255V41.0846H98.4023V36.8198H98.6935V38.8747C98.8676 38.5063 99.2751 38.1575 99.7981 38.1575C100.515 38.1575 101.097 38.7196 101.097 39.6113V39.6501C101.097 40.5612 100.555 41.1233 99.7981 41.1233C99.2165 41.1233 98.8483 40.7744 98.6935 40.4255ZM100.767 39.6695V39.6307C100.767 38.8359 100.302 38.4094 99.7404 38.4094C99.178 38.4094 98.6735 38.8359 98.6735 39.6307V39.6695C98.6735 40.4643 99.1588 40.8713 99.7596 40.8713C100.36 40.8713 100.767 40.4449 100.767 39.6695Z" fill="#141414"/>
<path d="M102.534 40.8322L101.391 38.1958H101.7L102.689 40.4832L103.601 38.1958H103.891L102.301 42.0728H101.991L102.534 40.8322Z" fill="#141414"/>
</g>
</g>
<defs>
<clipPath id="clip0_360_2628">
<rect width="133.262" height="50.0696" fill="white" transform="translate(0.515625 -0.0671387)"/>
</clipPath>
</defs>
</svg>
