<svg xmlns="http://www.w3.org/2000/svg" xmlns:xlink="http://www.w3.org/1999/xlink" id="layer" x="0px" y="0px" viewBox="0 0 600 177" style="enable-background:new 0 0 600 177;" xml:space="preserve"><style type="text/css">	.st0{fill:#17313B;}	.st1{fill:#EF4335;}</style><g>	<path class="st0" d="M156,6.6h27.6V177H156V6.6z"></path>	<path class="st0" d="M279.6,123c0,26.4-21.6,28.8-28.8,28.8c-16.8,0-19.2-15.6-19.2-24v-66H204v64.8c0,15.6,4.8,30,14.4,38.4  c8.4,8.4,19.2,12,32.4,12c9.6,0,21.6-2.4,28.8-9.6v9.6h27.6V61.8h-27.6C279.6,61.8,279.6,123,279.6,123z"></path>	<path class="st0" d="M361.2,19.8h-27.6v42h-20.4v26.4h20.4V177h27.6V88.2h20.4V61.8h-20.4V19.8z"></path>	<path class="st0" d="M468,142.2c-6,4.8-14.4,8.4-22.8,8.4c-19.2,0-32.4-14.4-32.4-33.6s13.2-32.4,32.4-32.4  c8.4,0,16.8,2.4,22.8,8.4l3.6,3.6l19.2-18L486,75c-10.8-9.6-25.2-15.6-40.8-15.6c-33.6,0-58.8,25.2-58.8,58.8s25.2,58.8,58.8,58.8  c15.6,0,30-6,40.8-15.6l4.8-3.6l-19.2-19.2L468,142.2z"></path>	<path class="st0" d="M588,71.4c-8.4-8.4-16.8-12-30-12c-9.6,0-19.2,2.4-26.4,9.6V6.6H504V177h27.6v-63.6c0-26.4,18-28.8,25.2-28.8  c16.8,0,15.6,15.6,15.6,24v67.2H600v-66C600,94.2,596.4,79.8,588,71.4z"></path>	<circle class="st1" cx="444" cy="118.2" r="19.2"></circle>	<path class="st0" d="M117.6,135c-9.6,9.6-24,15.6-39.6,15.6c-30,0-51.6-24-51.6-56.4S48,37.8,79.2,37.8c14.4,0,28.8,6,39.6,16.8  l3.6,3.6l18-18l-3.6-3.6c-15.6-15.6-36-24-57.6-24C33.6,11.4,0,47.4,0,94.2S33.6,177,78,177c21.6,0,43.2-8.4,57.6-24l3.6-3.6  l-18-18L117.6,135z"></path></g></svg>