<svg width="23" height="51" viewBox="0 0 23 51" fill="none" xmlns="http://www.w3.org/2000/svg">
<g clip-path="url(#clip0_425_516)">
<mask id="mask0_425_516" style="mask-type:luminance" maskUnits="userSpaceOnUse" x="0" y="13" width="117" height="24">
<path d="M116.008 13.0869H0.453125V36.9288H116.008V13.0869Z" fill="white"/>
</mask>
<g mask="url(#mask0_425_516)">
<path d="M7.21264 19.999L7.20144 20.0089L7.19079 20.0195C6.51873 20.6822 5.98555 21.4723 5.62243 22.3435C5.25961 23.2141 5.07383 24.1481 5.07593 25.0911C5.07077 26.0335 5.25139 26.9675 5.60748 27.8399C5.96387 28.7131 6.48902 29.5074 7.15285 30.1773L7.16408 30.1887L7.17592 30.1994C7.37967 30.3834 7.54379 30.6071 7.65828 30.8567C7.77277 31.1063 7.83524 31.3765 7.84187 31.651C7.8485 31.9255 7.79916 32.1985 7.69685 32.4533C7.59454 32.7082 7.4414 32.9394 7.24679 33.1332C7.05217 33.3268 6.82014 33.4789 6.56485 33.58C6.30955 33.6811 6.03634 33.7291 5.76187 33.7212C5.4874 33.7133 5.21741 33.6495 4.96838 33.5339C4.71935 33.4182 4.49648 33.253 4.31336 33.0484L4.30329 33.0372L4.29264 33.0265C2.1954 30.9162 1.02229 28.0593 1.0313 25.0841C1.04032 22.1089 2.23073 19.2591 4.34072 17.1617L4.35248 17.15L4.36356 17.1376C4.54728 16.9327 4.77088 16.7675 5.02068 16.652C5.27048 16.5365 5.54122 16.4733 5.81632 16.466C6.09143 16.4589 6.3651 16.5079 6.6206 16.6102C6.87609 16.7124 7.10803 16.8658 7.3022 17.0607C7.49637 17.2558 7.6487 17.4884 7.74985 17.7443C7.85099 18.0002 7.89885 18.2741 7.89046 18.5492C7.88208 18.8243 7.81764 19.0947 7.70109 19.344C7.58453 19.5933 7.41832 19.8162 7.21264 19.999Z" stroke="white" stroke-width="1.15555"/>
<path d="M17.3666 20.0816L17.3551 20.0686L17.3428 20.0563C15.9995 18.7074 14.1762 17.9461 12.2725 17.9393C10.3688 17.9325 8.54006 18.6808 7.18719 20.0201L7.17602 20.0312L7.16547 20.0428C6.98075 20.2467 6.75637 20.4108 6.50606 20.525C6.25574 20.6392 5.98475 20.7011 5.70968 20.7069C5.4346 20.7128 5.16124 20.6624 4.9063 20.5589C4.65136 20.4555 4.42021 20.3011 4.22701 20.1052C4.0338 19.9094 3.8826 19.6761 3.78266 19.4197C3.68272 19.1634 3.63614 18.8894 3.64577 18.6144C3.65539 18.3394 3.72104 18.0693 3.83866 17.8206C3.95629 17.5719 4.12344 17.3498 4.32987 17.1679L4.34318 17.1562L4.35574 17.1437C5.39867 16.1044 6.63666 15.2813 7.99858 14.7219C9.3605 14.1623 10.8196 13.8774 12.2919 13.8834C13.7642 13.8894 15.2209 14.1862 16.5782 14.7568C17.9356 15.3274 19.1668 16.1604 20.2013 17.2082L20.2142 17.2214L20.2281 17.2337C20.434 17.4172 20.6002 17.6408 20.7165 17.8908C20.8328 18.1408 20.8967 18.4121 20.9043 18.6877C20.9119 18.9634 20.8631 19.2377 20.7608 19.4938C20.6585 19.7499 20.5049 19.9823 20.3094 20.1768C20.1139 20.3714 19.8807 20.5239 19.6242 20.625C19.3676 20.7261 19.0931 20.7736 18.8175 20.7647C18.5418 20.7559 18.271 20.6906 18.0214 20.5731C17.7719 20.4557 17.5491 20.2884 17.3666 20.0816Z" stroke="white" stroke-width="1.15555"/>
<path d="M12.2397 31.7205C11.3721 31.7217 10.513 31.5499 9.71255 31.2151C8.91222 30.8802 8.18668 30.3891 7.57845 29.7704C7.34338 29.506 7.05682 29.2923 6.73629 29.1424C6.41577 28.9926 6.06802 28.9097 5.71436 28.8989C5.3607 28.8881 5.00856 28.9497 4.6795 29.0797C4.35045 29.2098 4.05139 29.4057 3.80066 29.6553C3.54993 29.9049 3.35279 30.2031 3.22131 30.5316C3.08984 30.8601 3.02679 31.212 3.03605 31.5657C3.0453 31.9194 3.12664 32.2675 3.27511 32.5887C3.42356 32.9098 3.63602 33.1973 3.89946 33.4335C4.98923 34.5354 6.28574 35.4113 7.71467 36.0112C9.14363 36.611 10.6769 36.923 12.2266 36.9292C13.7763 36.9353 15.312 36.6356 16.7457 36.0472C18.1794 35.4587 19.4828 34.5931 20.5813 33.5C20.824 33.2596 21.017 32.9737 21.1492 32.6587C21.2814 32.3437 21.3503 32.0057 21.3519 31.6641C21.3535 31.3224 21.2878 30.9838 21.1586 30.6676C21.0293 30.3514 20.8391 30.0637 20.5986 29.821C20.3582 29.5783 20.0723 29.3853 19.7573 29.2531C19.4423 29.1209 19.1043 29.052 18.7628 29.0504C18.4211 29.0487 18.0825 29.1145 17.7663 29.2437C17.4501 29.3729 17.1623 29.5632 16.9197 29.8036M12.2397 31.7205L12.237 32.2982C12.2376 32.2982 12.2381 32.2982 12.2387 32.2982M12.2397 31.7205C13.1075 31.7244 13.9675 31.5571 14.7706 31.2282C15.5737 30.8993 16.304 30.4152 16.9197 29.8036M12.2397 31.7205L12.2405 32.2982C12.2399 32.2982 12.2393 32.2982 12.2387 32.2982M16.9197 29.8036L17.3266 30.2139M12.2387 32.2982C11.2949 32.2993 10.3603 32.1123 9.48961 31.748C8.61832 31.3836 7.82854 30.8489 7.16644 30.1755L7.15625 30.1652L7.14661 30.1543C6.96378 29.9486 6.74089 29.7824 6.49159 29.6658C6.2423 29.5493 5.97183 29.4849 5.69676 29.4765C5.42169 29.4681 5.1478 29.5159 4.89187 29.617C4.63593 29.7182 4.40334 29.8706 4.20832 30.0647C4.01331 30.2589 3.85998 30.4908 3.75772 30.7463C3.65546 31.0018 3.60643 31.2755 3.61362 31.5506C3.62082 31.8257 3.68409 32.0964 3.79956 32.3462C3.91503 32.5961 4.08027 32.8196 4.28517 33.0034L4.29807 33.0149L4.31025 33.0272C5.34657 34.075 6.57947 34.908 7.93831 35.4785C9.29717 36.0489 10.7552 36.3455 12.2289 36.3514C13.7026 36.3572 15.163 36.0722 16.5263 35.5127C17.8896 34.9531 19.1292 34.1299 20.1738 33.0904L20.1747 33.0895C20.3635 32.9025 20.5136 32.6801 20.6164 32.4351C20.7193 32.19 20.7729 31.9271 20.7741 31.6614C20.7754 31.3956 20.7243 31.1322 20.6237 30.8862C20.5232 30.6402 20.3752 30.4164 20.1882 30.2276C20.0011 30.0388 19.7787 29.8887 19.5337 29.7858C19.2887 29.683 19.0258 29.6294 18.76 29.6281C18.4943 29.6269 18.2308 29.678 17.9848 29.7785C17.7389 29.8791 17.5153 30.027 17.3266 30.2139M12.2387 32.2982C13.1819 32.3023 14.1167 32.1204 14.9896 31.7629C15.8629 31.4052 16.657 30.8788 17.3266 30.2139M17.3266 30.2139C17.3266 30.2138 17.3265 30.214 17.3266 30.2139Z" stroke="white" stroke-width="1.15555"/>
</g>
</g>
<defs>
<clipPath id="clip0_425_516">
<rect width="115.555" height="50.074" fill="white" transform="translate(0.449219 -0.0541992)"/>
</clipPath>
</defs>
</svg>
