<svg width="21" height="51" viewBox="0 0 21 51" fill="none" xmlns="http://www.w3.org/2000/svg">
<g clip-path="url(#clip0_360_2691)">
<mask id="mask0_360_2691" style="mask-type:luminance" maskUnits="userSpaceOnUse" x="0" y="13" width="117" height="24">
<path d="M116.008 13.0718H0.453125V36.9137H116.008V13.0718Z" fill="white"/>
</mask>
<g mask="url(#mask0_360_2691)">
<path d="M7.21264 19.9839L7.20144 19.9938L7.19079 20.0044C6.51873 20.6671 5.98555 21.4572 5.62243 22.3284C5.25961 23.1989 5.07383 24.133 5.07593 25.076C5.07077 26.0183 5.25139 26.9524 5.60748 27.8248C5.96387 28.698 6.48902 29.4923 7.15285 30.1622L7.16408 30.1735L7.17592 30.1842C7.37967 30.3683 7.54379 30.5919 7.65828 30.8415C7.77277 31.0911 7.83524 31.3614 7.84187 31.6358C7.8485 31.9104 7.79916 32.1833 7.69685 32.4382C7.59454 32.693 7.4414 32.9243 7.24679 33.118C7.05217 33.3117 6.82014 33.4638 6.56485 33.5648C6.30955 33.6659 6.03634 33.714 5.76187 33.7061C5.4874 33.6981 5.21741 33.6344 4.96838 33.5188C4.71935 33.4031 4.49648 33.2379 4.31336 33.0333L4.30329 33.022L4.29264 33.0113C2.1954 30.9011 1.02229 28.0442 1.0313 25.0689C1.04032 22.0938 2.23073 19.244 4.34072 17.1465L4.35248 17.1348L4.36356 17.1225C4.54728 16.9176 4.77088 16.7523 5.02068 16.6368C5.27048 16.5214 5.54122 16.4581 5.81632 16.4509C6.09143 16.4437 6.3651 16.4928 6.6206 16.595C6.87609 16.6972 7.10803 16.8506 7.3022 17.0456C7.49637 17.2407 7.6487 17.4732 7.74985 17.7292C7.85099 17.9851 7.89885 18.259 7.89046 18.534C7.88208 18.8091 7.81764 19.0796 7.70109 19.3289C7.58453 19.5782 7.41832 19.8011 7.21264 19.9839Z" stroke="#141414" stroke-width="1.15555"/>
<path d="M17.3666 20.0665L17.3551 20.0535L17.3428 20.0411C15.9995 18.6922 14.1762 17.9309 12.2725 17.9242C10.3688 17.9174 8.54006 18.6656 7.18719 20.005L7.17602 20.016L7.16547 20.0277C6.98075 20.2316 6.75637 20.3957 6.50606 20.5098C6.25574 20.6241 5.98475 20.6859 5.70968 20.6918C5.4346 20.6977 5.16124 20.6473 4.9063 20.5438C4.65136 20.4403 4.42021 20.286 4.22701 20.0901C4.0338 19.8942 3.8826 19.661 3.78266 19.4046C3.68272 19.1483 3.63614 18.8743 3.64577 18.5992C3.65539 18.3243 3.72104 18.0542 3.83866 17.8055C3.95629 17.5568 4.12344 17.3347 4.32987 17.1528L4.34318 17.141L4.35574 17.1285C5.39867 16.0892 6.63666 15.2662 7.99858 14.7067C9.3605 14.1472 10.8196 13.8622 12.2919 13.8683C13.7642 13.8743 15.2209 14.1711 16.5782 14.7416C17.9356 15.3122 19.1668 16.1453 20.2013 17.1931L20.2142 17.2063L20.2281 17.2186C20.434 17.402 20.6002 17.6257 20.7165 17.8756C20.8328 18.1257 20.8967 18.3969 20.9043 18.6726C20.9119 18.9482 20.8631 19.2225 20.7608 19.4786C20.6585 19.7348 20.5049 19.9672 20.3094 20.1617C20.1139 20.3563 19.8807 20.5088 19.6242 20.6099C19.3676 20.711 19.0931 20.7585 18.8175 20.7496C18.5418 20.7407 18.271 20.6755 18.0214 20.558C17.7719 20.4406 17.5491 20.2733 17.3666 20.0665Z" stroke="#141414" stroke-width="1.15555"/>
<path d="M12.2397 31.7053C11.3721 31.7066 10.513 31.5348 9.71255 31.2C8.91222 30.8651 8.18668 30.374 7.57845 29.7553C7.34338 29.4908 7.05682 29.2771 6.73629 29.1273C6.41577 28.9775 6.06802 28.8946 5.71436 28.8838C5.3607 28.873 5.00856 28.9345 4.6795 29.0646C4.35045 29.1946 4.05139 29.3905 3.80066 29.6401C3.54993 29.8898 3.35279 30.188 3.22131 30.5165C3.08984 30.845 3.02679 31.1969 3.03605 31.5506C3.0453 31.9042 3.12664 32.2524 3.27511 32.5735C3.42356 32.8947 3.63602 33.1822 3.89946 33.4184C4.98923 34.5203 6.28574 35.3962 7.71467 35.996C9.14363 36.5959 10.6769 36.9079 12.2266 36.914C13.7763 36.9202 15.312 36.6204 16.7457 36.032C18.1794 35.4435 19.4828 34.578 20.5813 33.4849C20.824 33.2444 21.017 32.9586 21.1492 32.6436C21.2814 32.3286 21.3503 31.9906 21.3519 31.6489C21.3535 31.3073 21.2878 30.9687 21.1586 30.6525C21.0293 30.3362 20.8391 30.0486 20.5986 29.8058C20.3582 29.5632 20.0723 29.3702 19.7573 29.238C19.4423 29.1057 19.1043 29.0368 18.7628 29.0352C18.4211 29.0336 18.0825 29.0993 17.7663 29.2286C17.4501 29.3578 17.1623 29.5481 16.9197 29.7885M12.2397 31.7053L12.237 32.283C12.2376 32.2831 12.2381 32.2831 12.2387 32.2831M12.2397 31.7053C13.1075 31.7093 13.9675 31.542 14.7706 31.2131C15.5737 30.8842 16.304 30.4001 16.9197 29.7885M12.2397 31.7053L12.2405 32.2831C12.2399 32.2831 12.2393 32.2831 12.2387 32.2831M16.9197 29.7885L17.3266 30.1987M12.2387 32.2831C11.2949 32.2842 10.3603 32.0972 9.48961 31.7329C8.61832 31.3684 7.82854 30.8338 7.16644 30.1604L7.15625 30.15L7.14661 30.1392C6.96378 29.9335 6.74089 29.7672 6.49159 29.6507C6.2423 29.5341 5.97183 29.4697 5.69676 29.4613C5.42169 29.4529 5.1478 29.5008 4.89187 29.6019C4.63593 29.7031 4.40334 29.8554 4.20832 30.0496C4.01331 30.2438 3.85998 30.4757 3.75772 30.7312C3.65546 30.9866 3.60643 31.2604 3.61362 31.5355C3.62082 31.8106 3.68409 32.0813 3.79956 32.3311C3.91503 32.5809 4.08027 32.8045 4.28517 32.9882L4.29807 32.9998L4.31025 33.0121C5.34657 34.0599 6.57947 34.8929 7.93831 35.4633C9.29717 36.0337 10.7552 36.3304 12.2289 36.3362C13.7026 36.3421 15.163 36.0571 16.5263 35.4975C17.8896 34.9379 19.1292 34.1148 20.1738 33.0753L20.1747 33.0743C20.3635 32.8874 20.5136 32.665 20.6164 32.4199C20.7193 32.1749 20.7729 31.9119 20.7741 31.6462C20.7754 31.3805 20.7243 31.1171 20.6237 30.8711C20.5232 30.625 20.3752 30.4012 20.1882 30.2125C20.0011 30.0237 19.7787 29.8735 19.5337 29.7707C19.2887 29.6679 19.0258 29.6142 18.76 29.613C18.4943 29.6118 18.2308 29.6628 17.9848 29.7634C17.7389 29.8639 17.5153 30.0118 17.3266 30.1987M12.2387 32.2831C13.1819 32.2872 14.1167 32.1052 14.9896 31.7478C15.8629 31.3901 16.657 30.8637 17.3266 30.1987M17.3266 30.1987C17.3266 30.1986 17.3265 30.1989 17.3266 30.1987Z" stroke="#141414" stroke-width="1.15555"/>
</g>
</g>
<defs>
<clipPath id="clip0_360_2691">
<rect width="115.555" height="50.074" fill="white" transform="translate(0.449219 -0.0693359)"/>
</clipPath>
</defs>
</svg>
