<svg width="32" height="51" viewBox="0 0 32 51" fill="none" xmlns="http://www.w3.org/2000/svg">
<g clip-path="url(#clip0_360_2600)">
<path d="M11.3146 18.5523C10.7893 18.013 10.1602 17.5855 9.46528 17.296C8.77031 17.0063 8.02389 16.8605 7.27107 16.8672C2.61589 16.8672 -0.015625 20.6336 -0.015625 25.1965C-0.015625 29.8132 2.61589 33.5874 7.27107 33.5874C8.02288 33.5871 8.76723 33.4381 9.4612 33.1489C10.1552 32.8597 10.785 32.436 11.3146 31.9022V33.2219H15.7543V12.0427H11.3146V18.5523ZM11.3146 27.8626C11.0267 28.4176 10.5915 28.8825 10.0566 29.2063C9.52182 29.53 8.90812 29.7001 8.28294 29.6978C5.86295 29.6978 4.43566 27.7741 4.43566 25.1965C4.43566 22.6188 5.87451 20.726 8.28294 20.726C8.91159 20.7274 9.5276 20.9028 10.0627 21.2328C10.5978 21.5628 11.0311 22.0346 11.3146 22.5957V27.8626Z" fill="#141414"/>
<path d="M24.2885 16.9404C22.1456 16.9404 20.0951 17.5252 18.9294 18.26V22.1073C20.2292 21.2507 21.7508 20.7921 23.3075 20.7877C25.5735 20.7877 26.8932 21.7687 26.8932 23.3307V24.2194C26.2468 23.7578 24.6848 23.2692 23.3075 23.2692C19.7872 23.2692 17.125 25.3505 17.125 28.413C17.125 31.7216 19.7872 33.5875 23.0343 33.5875C24.7771 33.5875 26.3699 32.9758 26.8816 32.4564V33.3143H31.1674V23.0653C31.179 19.1757 28.6667 16.9404 24.2885 16.9404ZM26.8932 28.9438C26.5084 29.8017 25.3311 30.325 24.0731 30.325C22.665 30.325 21.2261 29.7402 21.2261 28.3629C21.2261 26.9856 22.665 26.4047 24.0731 26.4047C25.3311 26.4047 26.493 26.924 26.8932 27.782V28.9438Z" fill="#141414"/>
</g>
<defs>
<clipPath id="clip0_360_2600">
<rect width="62.3946" height="50.0698" fill="white" transform="translate(-30.9531 -0.0671387)"/>
</clipPath>
</defs>
</svg>
