<svg width="31" height="51" viewBox="0 0 31 51" fill="none" xmlns="http://www.w3.org/2000/svg">
<g clip-path="url(#clip0_425_426)">
<path d="M10.3146 18.5675C9.78928 18.0281 9.16017 17.6007 8.46528 17.3111C7.77031 17.0215 7.02389 16.8757 6.27107 16.8824C1.61589 16.8824 -1.01562 20.6488 -1.01562 25.2117C-1.01562 29.8283 1.61589 33.6025 6.27107 33.6025C7.02288 33.6023 7.76723 33.4532 8.4612 33.164C9.15516 32.8748 9.78504 32.4511 10.3146 31.9174V33.237H14.7543V12.0579H10.3146V18.5675ZM10.3146 27.8778C10.0267 28.4328 9.59147 28.8976 9.05664 29.2214C8.52182 29.5452 7.90812 29.7152 7.28294 29.7129C4.86295 29.7129 3.43566 27.7892 3.43566 25.2117C3.43566 22.634 4.87451 20.7411 7.28294 20.7411C7.91159 20.7425 8.5276 20.918 9.06273 21.248C9.59778 21.578 10.0311 22.0497 10.3146 22.6109V27.8778Z" fill="white"/>
<path d="M23.2885 16.9556C21.1456 16.9556 19.0951 17.5404 17.9294 18.2752V22.1225C19.2292 21.2659 20.7508 20.8072 22.3075 20.8029C24.5735 20.8029 25.8932 21.7838 25.8932 23.3459V24.2346C25.2468 23.7729 23.6848 23.2843 22.3075 23.2843C18.7872 23.2843 16.125 25.3657 16.125 28.4281C16.125 31.7367 18.7872 33.6026 22.0343 33.6026C23.7771 33.6026 25.3699 32.9909 25.8816 32.4715V33.3295H30.1674V23.0804C30.179 19.1908 27.6667 16.9556 23.2885 16.9556ZM25.8932 28.959C25.5084 29.8169 24.3311 30.3401 23.0731 30.3401C21.665 30.3401 20.2261 29.7553 20.2261 28.378C20.2261 27.0007 21.665 26.4198 23.0731 26.4198C24.3311 26.4198 25.493 26.9392 25.8932 27.7971V28.959Z" fill="white"/>
</g>
<defs>
<clipPath id="clip0_425_426">
<rect width="62.3946" height="50.0698" fill="white" transform="translate(-31.9531 -0.052002)"/>
</clipPath>
</defs>
</svg>
