<svg width="87" height="51" viewBox="0 0 87 51" fill="none" xmlns="http://www.w3.org/2000/svg">
<g clip-path="url(#clip0_425_501)">
<path fill-rule="evenodd" clip-rule="evenodd" d="M10.585 16.763C10.802 16.546 10.9648 16.3832 10.7477 16.3832C10.7083 16.3832 10.6466 16.3873 10.5671 16.3926C9.88164 16.4381 7.87542 16.5714 7.4378 14.9181C6.94944 13.0733 9.60827 7.59285 9.7168 7.3758C9.77103 7.15875 9.60827 6.88745 9.28268 6.88745C9.09519 6.88745 8.93367 7.04289 8.83384 7.13897C8.78917 7.18193 8.75681 7.21302 8.7401 7.21302C8.05839 8.07191 7.30478 8.98222 6.55067 9.89313C4.30343 12.6076 2.05174 15.3274 1.68609 16.7088C0.438082 21.321 5.26734 23.2201 8.30598 23.5457C8.36024 23.5457 8.36024 23.4914 8.36024 23.4914V21.8636C8.4145 19.6389 9.22845 17.9568 10.585 16.763ZM86.0089 16.7088C85.623 15.2531 83.1774 12.3111 80.8034 9.45524L80.8026 9.45516C80.1679 8.69167 79.5386 7.93411 78.9548 7.21302C78.9463 7.20486 78.9355 7.19181 78.9224 7.1755C78.8477 7.08333 78.689 6.88745 78.4117 6.88745C78.1406 6.88745 77.9234 7.15875 78.032 7.3758C78.1406 7.59285 80.7995 13.1275 80.3112 14.9181C79.8737 16.5714 77.8671 16.4381 77.1819 16.3926C77.1024 16.3873 77.0407 16.3832 77.0013 16.3832C76.7842 16.3832 76.947 16.546 77.164 16.763C78.5203 17.9568 79.3884 19.6389 79.3884 21.8093V23.4371C79.3884 23.4643 79.3884 23.4779 79.3953 23.4847C79.4023 23.4914 79.4161 23.4914 79.4431 23.4914C82.5357 23.2201 87.2567 21.321 86.0089 16.7088ZM74.0169 27.3982C74.0169 28.9718 71.9006 29.84 70.5441 29.84C69.0791 29.84 67.0171 28.9718 67.0171 27.3982V21.8636C67.0171 20.29 69.0791 19.5846 70.5441 19.5846C71.9006 19.5846 74.0169 20.3442 74.0169 21.8636V27.3982ZM70.5441 16.1119C67.2884 16.1661 63.4902 18.011 63.4902 21.8093V27.6153C63.4902 31.4678 67.2884 33.3127 70.5441 33.3127C73.7456 33.2584 77.5439 31.4678 77.5439 27.6153V21.8636C77.5439 18.0653 73.7456 16.1661 70.5441 16.1119ZM46.0175 29.84C47.3741 29.84 49.4903 28.9718 49.4903 27.3982V21.8636C49.4903 20.3442 47.3741 19.5846 46.0175 19.5846C44.5525 19.5846 42.4905 20.29 42.4905 21.8636V27.3982C42.4905 28.9718 44.5525 29.84 46.0175 29.84ZM38.9093 21.8093C38.9093 18.011 42.7076 16.1661 45.9633 16.1119C49.1647 16.1661 52.963 18.0653 52.963 21.8636V27.6153C52.963 31.4678 49.1647 33.2584 45.9633 33.3127C42.7076 33.3127 38.9093 31.4678 38.9093 27.6153V21.8093ZM31.3671 16.4376C34.1887 16.4376 36.0878 16.7088 38.6924 17.4143C38.7466 17.4143 38.8009 17.5228 38.8009 17.6313C37.8785 18.3367 37.4444 19.3677 37.2274 20.4529C35.8165 20.0731 34.6228 19.9103 33.1577 19.8018V33.2044C33.1577 33.2586 33.1035 33.2586 33.0492 33.2586H29.685C29.6308 33.2586 29.5765 33.2586 29.5765 33.2044V19.8018C28.0572 19.9103 26.7549 20.1274 25.3441 20.4529C25.1813 19.3677 24.8015 18.391 23.9333 17.6313C23.879 17.577 23.9333 17.4686 24.0418 17.4143C26.6464 16.7088 28.5998 16.4376 31.3671 16.4376ZM63.5986 16.2743C63.3273 16.22 62.6219 16.1115 61.9707 16.1657C58.7694 16.2743 55.1338 18.1734 55.1338 21.8632V33.3123C55.1338 33.3666 55.1881 33.3666 55.2423 33.3666H58.6065C58.6608 33.3666 58.715 33.3666 58.715 33.3123V21.8632C58.715 20.6152 60.2344 19.9098 61.4824 19.6385C61.8623 18.4447 62.5676 17.5223 63.6528 16.6541C63.8157 16.4913 63.7614 16.2743 63.5986 16.2743ZM20.2433 22.9482C20.2975 22.8939 20.2975 22.8939 20.2975 22.8397V21.863C20.2975 20.2894 18.5069 19.5298 17.0961 19.5298C15.6311 19.5298 13.7319 20.2894 13.7319 21.863V23.0025H20.1347C20.189 23.0025 20.2433 23.0025 20.2433 22.9482ZM10.1506 21.8087C10.1506 17.9562 13.7861 16.057 17.0961 16.0028C20.3518 16.057 23.7703 17.9562 23.7703 21.863V25.0644C23.7703 25.5527 23.3904 25.9326 22.9021 25.9326H13.7319V27.669C13.7319 29.2426 15.6311 30.165 17.0961 30.165C18.1813 30.165 19.7549 29.6224 20.3518 28.5915C20.406 28.5371 20.406 28.5371 20.4603 28.5371C21.4682 29.0651 22.0939 29.4232 23.0135 29.9494C23.1336 30.0181 23.2587 30.0898 23.3904 30.165C23.4447 30.2193 23.499 30.3278 23.4447 30.382C22.1424 32.4982 19.4836 33.4749 17.0961 33.4749C13.7861 33.4206 10.1506 31.5758 10.1506 27.669V21.8087Z" fill="white"/>
</g>
<defs>
<clipPath id="clip0_425_501">
<rect width="85.4997" height="50.0674" fill="white" transform="translate(0.746094 -0.0507812)"/>
</clipPath>
</defs>
</svg>
