<svg width="87" height="51" viewBox="0 0 87 51" fill="none" xmlns="http://www.w3.org/2000/svg">
<g clip-path="url(#clip0_360_2675)">
<path fill-rule="evenodd" clip-rule="evenodd" d="M10.585 16.7479C10.802 16.5309 10.9648 16.368 10.7477 16.368C10.7083 16.368 10.6466 16.3721 10.5671 16.3774C9.88164 16.423 7.87542 16.5562 7.4378 14.903C6.94944 13.0581 9.60827 7.57771 9.7168 7.36066C9.77103 7.14362 9.60827 6.87231 9.28268 6.87231C9.09519 6.87231 8.93367 7.02775 8.83384 7.12383C8.78917 7.1668 8.75681 7.19788 8.7401 7.19788C8.05839 8.05678 7.30478 8.96708 6.55067 9.878C4.30343 12.5925 2.05174 15.3123 1.68609 16.6936C0.438082 21.3058 5.26734 23.205 8.30598 23.5305C8.36024 23.5305 8.36024 23.4763 8.36024 23.4763V21.8484C8.4145 19.6237 9.22845 17.9416 10.585 16.7479ZM86.0089 16.6936C85.623 15.238 83.1774 12.2959 80.8034 9.4401L80.8026 9.44002C80.1679 8.67653 79.5386 7.91898 78.9548 7.19788C78.9463 7.18973 78.9355 7.17667 78.9224 7.16036C78.8477 7.06819 78.689 6.87231 78.4117 6.87231C78.1406 6.87231 77.9234 7.14362 78.032 7.36066C78.1406 7.57771 80.7995 13.1123 80.3112 14.903C79.8737 16.5562 77.8671 16.423 77.1819 16.3774C77.1024 16.3721 77.0407 16.368 77.0013 16.368C76.7842 16.368 76.947 16.5309 77.164 16.7479C78.5203 17.9416 79.3884 19.6237 79.3884 21.7942V23.422C79.3884 23.4492 79.3884 23.4627 79.3953 23.4695C79.4023 23.4763 79.4161 23.4763 79.4431 23.4763C82.5357 23.205 87.2567 21.3058 86.0089 16.6936ZM74.0169 27.3831C74.0169 28.9567 71.9006 29.8248 70.5441 29.8248C69.0791 29.8248 67.0171 28.9567 67.0171 27.3831V21.8484C67.0171 20.2748 69.0791 19.5694 70.5441 19.5694C71.9006 19.5694 74.0169 20.3291 74.0169 21.8484V27.3831ZM70.5441 16.0968C67.2884 16.151 63.4902 17.9958 63.4902 21.7942V27.6002C63.4902 31.4526 67.2884 33.2976 70.5441 33.2976C73.7456 33.2433 77.5439 31.4526 77.5439 27.6002V21.8484C77.5439 18.0502 73.7456 16.151 70.5441 16.0968ZM46.0175 29.8248C47.3741 29.8248 49.4903 28.9567 49.4903 27.3831V21.8484C49.4903 20.3291 47.3741 19.5694 46.0175 19.5694C44.5525 19.5694 42.4905 20.2748 42.4905 21.8484V27.3831C42.4905 28.9567 44.5525 29.8248 46.0175 29.8248ZM38.9093 21.7942C38.9093 17.9958 42.7076 16.151 45.9633 16.0968C49.1647 16.151 52.963 18.0502 52.963 21.8484V27.6002C52.963 31.4526 49.1647 33.2433 45.9633 33.2976C42.7076 33.2976 38.9093 31.4526 38.9093 27.6002V21.7942ZM31.3671 16.4224C34.1887 16.4224 36.0878 16.6937 38.6924 17.3991C38.7466 17.3991 38.8009 17.5077 38.8009 17.6162C37.8785 18.3216 37.4444 19.3525 37.2274 20.4377C35.8165 20.0579 34.6228 19.8952 33.1577 19.7866V33.1892C33.1577 33.2434 33.1035 33.2434 33.0492 33.2434H29.685C29.6308 33.2434 29.5765 33.2434 29.5765 33.1892V19.7866C28.0572 19.8952 26.7549 20.1122 25.3441 20.4377C25.1813 19.3525 24.8015 18.3758 23.9333 17.6162C23.879 17.5619 23.9333 17.4534 24.0418 17.3991C26.6464 16.6937 28.5998 16.4224 31.3671 16.4224ZM63.5986 16.2591C63.3273 16.2049 62.6219 16.0964 61.9707 16.1506C58.7694 16.2591 55.1338 18.1583 55.1338 21.848V33.2972C55.1338 33.3514 55.1881 33.3514 55.2423 33.3514H58.6065C58.6608 33.3514 58.715 33.3514 58.715 33.2972V21.848C58.715 20.6 60.2344 19.8946 61.4824 19.6233C61.8623 18.4296 62.5676 17.5072 63.6528 16.6389C63.8157 16.4762 63.7614 16.2591 63.5986 16.2591ZM20.2433 22.9331C20.2975 22.8788 20.2975 22.8788 20.2975 22.8246V21.8479C20.2975 20.2743 18.5069 19.5147 17.0961 19.5147C15.6311 19.5147 13.7319 20.2743 13.7319 21.8479V22.9873H20.1347C20.189 22.9873 20.2433 22.9873 20.2433 22.9331ZM10.1506 21.7936C10.1506 17.9411 13.7861 16.0419 17.0961 15.9877C20.3518 16.0419 23.7703 17.9411 23.7703 21.8479V25.0493C23.7703 25.5376 23.3904 25.9175 22.9021 25.9175H13.7319V27.6538C13.7319 29.2274 15.6311 30.1499 17.0961 30.1499C18.1813 30.1499 19.7549 29.6072 20.3518 28.5763C20.406 28.522 20.406 28.522 20.4603 28.522C21.4682 29.05 22.0939 29.4081 23.0135 29.9342C23.1336 30.003 23.2587 30.0746 23.3904 30.1499C23.4447 30.2041 23.499 30.3127 23.4447 30.3669C22.1424 32.4831 19.4836 33.4598 17.0961 33.4598C13.7861 33.4055 10.1506 31.5606 10.1506 27.6538V21.7936Z" fill="#141414"/>
</g>
<defs>
<clipPath id="clip0_360_2675">
<rect width="85.4997" height="50.0674" fill="white" transform="translate(0.746094 -0.065918)"/>
</clipPath>
</defs>
</svg>
