<svg xmlns="http://www.w3.org/2000/svg" xmlns:xlink="http://www.w3.org/1999/xlink" id="layer" x="0px" y="0px" viewBox="0 0 612 99" style="enable-background:new 0 0 612 99;" xml:space="preserve"><style type="text/css">	.st0{fill:#3A7AF3;}</style><path id="Shape" class="st0" d="M44.2,35.9c0,0-5-0.5-5,3.9v19.7H72v5.9c0,0,0.1,2.9-3,2.9H39.2v25.6H75c0,0,21.7-3.3,21.9-25.6 V35.9H44.2z M95.9,4.5H31.3C7.9,10,7.4,29.2,7.4,29.2V94h24.8V35c0-5,5-5.9,5-5.9h58.6L95.9,4.5L95.9,4.5z M181.2,75.4 c-1.7,1.1-3,2-3.9,2.5c-3.2,2-6.2,3.5-9,4.7c-4.1,1.7-7.7,2.5-11,2.5c-11.2,0-20.5-3.4-27.9-10.3c-7.5-6.9-11.2-15.6-11.2-26 c0-10.1,3.3-18.8,10.1-26.3c6.7-7.4,14.9-11.1,24.5-11.1c4,0,8.3,0.7,12.7,2.1c5.8,1.8,10.4,4.6,14.2,8.1l-6.4,7.1 c-2.7-2.7-6.3-4.6-10.4-5.8c-3.1-0.9-6.5-1.4-10.3-1.4c-6.7,0-12.4,2.7-17,8.1c-4.5,5.5-6.8,11.9-6.8,19.5c0,7.5,2.6,13.7,7.8,18.6 c5.2,4.9,11.8,7.4,19.8,7.4c3.3,0,6.7-1.1,10.2-3.1c2.9-2.2,4.4-3.3,4.4-3.3V53.1h-21.7l3.1-9.7h28.8 C181.2,43.4,181.2,75.4,181.2,75.4z M246.5,56.4c0,7.5-2.7,14-8,19.5s-11.9,8.3-19.8,8.3c-7.3,0-13.6-2.7-19.1-8.1 s-8.2-11.9-8.2-19.6c0-7.6,2.6-14.1,7.8-19.7s11.6-8.3,19-8.3c8.3,0,15,2.7,20.3,8C243.8,41.7,246.5,48.4,246.5,56.4z M236.4,56.6 c0-5.1-1.7-9.4-5.1-12.9c-3.4-3.6-7.6-5.3-12.7-5.3c-4.7,0-8.7,1.8-12.1,5.5c-3.3,3.6-5,7.8-5,12.5c0,4.9,1.7,9.1,5,12.6 c3.3,3.5,7.5,5.3,12.5,5.3c4.7,0,8.7-1.7,12.1-5.2C234.7,65.5,236.4,61.3,236.4,56.6L236.4,56.6z M311,56.4c0,7.5-2.7,14-8,19.5 s-11.9,8.3-19.8,8.3c-7.3,0-13.6-2.7-19.1-8.1s-8.2-11.9-8.2-19.6c0-7.6,2.6-14.1,7.8-19.7c5.2-5.6,11.6-8.3,19-8.3 c8.3,0,15,2.7,20.3,8C308.3,41.7,311,48.4,311,56.4z M300.8,56.6c0-5.1-1.7-9.4-5.1-12.9c-3.4-3.6-7.6-5.3-12.7-5.3 c-4.7,0-8.7,1.8-12.1,5.5c-3.3,3.6-5,7.8-5,12.5c0,4.9,1.7,9.1,5,12.6s7.5,5.3,12.5,5.3c4.7,0,8.7-1.7,12.1-5.2 C299.1,65.5,300.8,61.3,300.8,56.6L300.8,56.6z M370.6,82.7l-9.3,1.4v-9l-2,2.3c-1.8,1.7-3.8,3-5.9,4.1c-3.2,1.5-6.6,2.2-10.1,2.2 c-7.3,0-13.5-2.7-18.5-8s-7.6-11.8-7.6-19.2c0-7.7,2.5-14.3,7.5-19.7c5-5.5,11-8.2,18.3-8.2c4.2,0,7.8,0.7,10.8,2 c2.2,1,4,2.3,5.6,3.9c0.5,0.7,1,1.4,1.6,2.1V12.9l9.9-1.4L370.6,82.7z M361.9,57.1c0-5.3-1.8-9.8-5.4-13.4 c-3.6-3.7-7.7-5.5-12.4-5.5c-5.2,0-9.3,1.7-12.5,5.2c-3,3.3-4.5,7.4-4.5,12.2c0,5.4,1.6,9.9,4.7,13.4c3.1,3.5,7,5.2,11.9,5.2 c4.7,0,8.9-1.6,12.6-4.9C360,66,361.9,61.9,361.9,57.1L361.9,57.1z M423,22.7h-27.8v18.9h21.6v9.7h-21.6v31.3l-10.8,1.6V12.9h36.5 L423,22.7z M445.3,17.2l-6.7,8.4l-6.4-8.4l6.7-8.3L445.3,17.2z M443.3,82.7l-9.9,1.4V31.3l9.9-1.5V82.7L443.3,82.7z M488.1,29.2 L483.4,40c-0.6-0.1-1.2-0.1-1.9-0.1c-1,0-1.9,0.1-2.9,0.2s-2,0.5-3.1,1.1c-2.1,0.9-3.9,2.9-5.4,5.8c-1.7,3.4-2.6,7.1-2.6,10.9v24.7 l-9.9,1.6V31.3l9.2-1.7v11c1.2-1.9,2.4-3.8,3.6-5.8c1.7-2,3.7-3.4,5.9-4.3c1.2-0.5,3.3-0.8,6.6-1.1 C486.1,29.2,487.9,29.1,488.1,29.2z M562.1,82.7l-9.9,1.4V47.9c0-3.3-0.7-5.8-2.2-7.3s-3.7-2.3-6.6-2.3c-3.5,0-6.1,1.4-7.9,4.3 c-1.2,2-1.9,4.1-1.9,6.2v33.7l-9.9,1.8V48c0-3.2-0.7-5.6-2.2-7.3c-1.5-1.7-3.4-2.5-5.9-2.5h-1c-3.5,0-6,1.4-7.6,4.4 c-1.2,2.2-1.8,5-1.8,8.4v31.4l-10.3,1.8V31.1l9.3-1.6v6.8c1-1.6,2.1-2.9,3-3.8c2.7-2.5,5.8-3.7,9.3-3.7c3.9,0,6.8,0.6,8.8,1.9 c1.7,1.1,3.3,3.2,5,6.2c3.4-5.4,8.2-8.1,14.6-8.1c6.1,0,10.6,1.9,13.6,5.8c2.4,3.2,3.6,7.9,3.6,14V82.7z M607.4,66.7 c0,4.9-1.7,8.9-5.1,12c-3.4,3.2-7.7,4.7-12.9,4.7c-3.9,0-7.4-0.9-10.6-2.7c-3.2-1.8-5.6-3.9-7.1-6.3l7-6.2c0.5,0.8,1,1.4,1.4,1.8 c2.6,2.7,5.7,4,9.3,4c2.5,0,4.5-0.7,5.9-2c1.5-1.3,2.2-3.1,2.2-5.5c0-2.7-1.7-4.5-5.1-5.5c-6.7-2-10.4-3.2-10.9-3.4 c-3.1-1.6-5.3-3.3-6.7-5.2c-1.6-2.2-2.4-5.1-2.4-8.8c0-4.6,1.7-8.3,5-11.4c3.3-3,7.3-4.5,11.9-4.5c3.5,0,6.7,0.8,9.7,2.4 s5.1,3.3,6.4,5.2l-5.9,6.4c-0.9-0.9-1.9-1.7-2.9-2.4c-2.4-1.7-4.7-2.5-6.8-2.5c-2.1,0-3.8,0.5-5.1,1.4c-1.6,1.1-2.4,2.8-2.4,5 c0,2.1,0.7,3.7,2.3,4.7c1.3,0.8,4.1,1.7,8.6,2.7c4.4,1.1,7.9,2.9,10.3,5.5C606.3,58.9,607.4,62.3,607.4,66.7z"></path></svg>