<svg width="84" height="50" viewBox="0 0 84 50" fill="none" xmlns="http://www.w3.org/2000/svg">
<g clip-path="url(#clip0_360_2680)">
<path d="M14.6094 20.8562H16.8322V24.0457H19.4684V20.8562H21.698V29.2004H19.4684V25.6227H16.8322V29.2004H14.6094V20.8562Z" fill="#141414"/>
<path d="M25.0145 26.7497C25.0145 26.1529 25.3013 25.8532 25.7704 25.6037C26.4033 26.1862 27.0307 26.7851 27.6242 27.4411C27.2082 27.7558 26.8573 27.9006 26.3563 27.9006C25.6841 27.9006 25.0145 27.4689 25.0145 26.7497ZM29.4806 24.6799C29.4588 25.2162 29.3161 25.7668 28.9327 26.1869C28.4643 25.7328 27.9817 25.2896 27.4922 24.8586C28.3814 24.342 29.2882 23.805 29.2882 22.7507C29.2882 21.192 27.8539 20.6924 26.3904 20.6924C25.0812 20.6924 23.6095 21.2151 23.6095 22.6895C23.6095 23.4216 23.9466 23.994 24.6189 24.5221C23.5883 25.0028 22.9766 25.6376 22.9766 26.7967C22.9766 28.5206 24.5495 29.3362 26.1395 29.3362C27.0484 29.3362 28.0212 29.1833 28.7383 28.5579C28.9225 28.7497 29.0714 28.9651 29.2413 29.1928H31.6253L30.1413 27.5403C30.9162 26.7715 31.3731 25.743 31.424 24.6792L29.4806 24.6799ZM25.5304 22.7976C25.5304 22.3789 25.8989 22.0553 26.4182 22.0553C26.9328 22.0553 27.3502 22.3068 27.3502 22.7976C27.3502 23.3489 26.7384 23.6853 26.3333 23.9253C25.9975 23.6602 25.5304 23.2782 25.5304 22.7976Z" fill="#141414"/>
<path d="M34.8115 22.4172H35.4029C36.2472 22.4172 37.0296 22.5599 37.0296 23.339C37.0296 24.2818 36.12 24.3063 35.4029 24.3063H34.8115V22.4172ZM32.5866 29.1931H34.8115V25.8853H35.2799C36.1051 25.8853 36.3933 26.2484 36.8488 27.684L37.328 29.1931H39.6487L38.8391 26.9152C38.4204 25.8997 38.3714 25.2634 37.6542 25.0724V25.0506C38.7269 24.7978 39.2551 24.0554 39.2551 22.9407C39.2551 21.5049 38.0499 20.8347 36.5612 20.8347H32.5859L32.5866 29.1931Z" fill="#141414"/>
<path d="M46.4627 25.6481H47.1423C47.9098 25.6481 48.7885 25.7331 48.7885 26.6447C48.7885 27.4944 47.9349 27.6113 47.1204 27.6113H46.4627V25.6481ZM44.2344 29.1931H47.7541C49.2548 29.1931 51.016 28.7751 51.016 26.7718C51.016 25.7569 50.437 25.156 49.3276 24.9303V24.9045C50.261 24.5951 50.7961 24.0058 50.7961 22.9536C50.7961 21.5152 49.6382 20.8347 48.0796 20.8347H44.2351L44.2344 29.1931ZM46.4627 22.4172H47.1071C47.8504 22.4172 48.5686 22.4879 48.5686 23.256C48.5686 23.9616 47.8144 24.1384 47.0844 24.1384H46.462L46.4627 22.4172Z" fill="#141414"/>
<path d="M52.2891 20.8352H54.5182V27.5411H57.9647V29.1929H52.2891V20.8352Z" fill="#141414"/>
<path d="M60.5401 25.0157C60.5401 23.5664 61.0777 22.3435 62.4289 22.3435C63.784 22.3435 64.3254 23.5664 64.3254 25.0157C64.3254 26.3936 63.784 27.6844 62.4289 27.6844C61.0777 27.6844 60.5401 26.3936 60.5401 25.0157ZM58.2422 25.0157C58.2422 27.6688 59.7006 29.3362 62.4289 29.3362C65.1611 29.3362 66.6218 27.6688 66.6218 25.0157C66.6218 22.3319 65.183 20.6924 62.4289 20.6924C59.6732 20.6924 58.2422 22.3319 58.2422 25.0157Z" fill="#141414"/>
<path d="M74.7881 28.9988C74.1536 29.1545 73.4432 29.336 72.3095 29.336C70.0835 29.336 67.5078 28.2116 67.5078 25.0501C67.5078 22.1379 69.5382 20.6914 72.2946 20.6914C73.149 20.6914 73.976 20.8824 74.7764 21.1224L74.5965 22.9271C73.8751 22.5315 73.1834 22.3425 72.419 22.3425C70.8323 22.3425 69.8026 23.4913 69.8026 25.0501C69.8026 26.691 70.9653 27.6835 72.5943 27.6835C73.3258 27.6835 74.0699 27.4931 74.677 27.2497L74.7881 28.9988Z" fill="#141414"/>
<path d="M75.8203 20.8479H78.0298V24.2637H78.0541L80.6181 20.8479H83.2681L80.2143 24.7362L83.5052 29.1914H80.7026L78.0541 25.3948H78.0298V29.1914H75.8203V20.8479Z" fill="#141414"/>
</g>
<defs>
<clipPath id="clip0_360_2680">
<rect width="83" height="50" fill="white" transform="translate(0.351562 -0.0695801)"/>
</clipPath>
</defs>
</svg>
