<svg width="84" height="51" viewBox="0 0 84 51" fill="none" xmlns="http://www.w3.org/2000/svg">
<g clip-path="url(#clip0_425_505)">
<path d="M14.6094 20.8713H16.8322V24.0608H19.4684V20.8713H21.698V29.2155H19.4684V25.6379H16.8322V29.2155H14.6094V20.8713Z" fill="white"/>
<path d="M25.0145 26.7649C25.0145 26.168 25.3013 25.8683 25.7704 25.6188C26.4033 26.2014 27.0307 26.8002 27.6242 27.4562C27.2082 27.771 26.8573 27.9157 26.3563 27.9157C25.6841 27.9157 25.0145 27.4841 25.0145 26.7649ZM29.4806 24.695C29.4588 25.2313 29.3161 25.7819 28.9327 26.202C28.4643 25.748 27.9817 25.3047 27.4922 24.8738C28.3814 24.3572 29.2882 23.8201 29.2882 22.7658C29.2882 21.2071 27.8539 20.7075 26.3904 20.7075C25.0812 20.7075 23.6095 21.2302 23.6095 22.7046C23.6095 23.4367 23.9466 24.0091 24.6189 24.5373C23.5883 25.0179 22.9766 25.6527 22.9766 26.8118C22.9766 28.5357 24.5495 29.3514 26.1395 29.3514C27.0484 29.3514 28.0212 29.1985 28.7383 28.573C28.9225 28.7648 29.0714 28.9803 29.2413 29.2079H31.6253L30.1413 27.5554C30.9162 26.7866 31.3731 25.7581 31.424 24.6943L29.4806 24.695ZM25.5304 22.8128C25.5304 22.394 25.8989 22.0704 26.4182 22.0704C26.9328 22.0704 27.3502 22.3219 27.3502 22.8128C27.3502 23.364 26.7384 23.7005 26.3333 23.9404C25.9975 23.6754 25.5304 23.2933 25.5304 22.8128Z" fill="white"/>
<path d="M34.8115 22.4324H35.4029C36.2472 22.4324 37.0296 22.5751 37.0296 23.3541C37.0296 24.2969 36.12 24.3214 35.4029 24.3214H34.8115V22.4324ZM32.5866 29.2083H34.8115V25.9005H35.2799C36.1051 25.9005 36.3933 26.2635 36.8488 27.6992L37.328 29.2083H39.6487L38.8391 26.9304C38.4204 25.9148 38.3714 25.2785 37.6542 25.0876V25.0657C38.7269 24.8129 39.2551 24.0706 39.2551 22.9558C39.2551 21.5201 38.0499 20.8499 36.5612 20.8499H32.5859L32.5866 29.2083Z" fill="white"/>
<path d="M46.4627 25.6632H47.1423C47.9098 25.6632 48.7885 25.7482 48.7885 26.6598C48.7885 27.5095 47.9349 27.6265 47.1204 27.6265H46.4627V25.6632ZM44.2344 29.2083H47.7541C49.2548 29.2083 51.016 28.7902 51.016 26.7869C51.016 25.772 50.437 25.1711 49.3276 24.9455V24.9196C50.261 24.6103 50.7961 24.021 50.7961 22.9687C50.7961 21.5303 49.6382 20.8499 48.0796 20.8499H44.2351L44.2344 29.2083ZM46.4627 22.4324H47.1071C47.8504 22.4324 48.5686 22.503 48.5686 23.2712C48.5686 23.9768 47.8144 24.1535 47.0844 24.1535H46.462L46.4627 22.4324Z" fill="white"/>
<path d="M52.2891 20.8503H54.5182V27.5562H57.9647V29.2081H52.2891V20.8503Z" fill="white"/>
<path d="M60.5401 25.0308C60.5401 23.5816 61.0777 22.3586 62.4289 22.3586C63.784 22.3586 64.3254 23.5816 64.3254 25.0308C64.3254 26.4087 63.784 27.6995 62.4289 27.6995C61.0777 27.6995 60.5401 26.4087 60.5401 25.0308ZM58.2422 25.0308C58.2422 27.6839 59.7006 29.3514 62.4289 29.3514C65.1611 29.3514 66.6218 27.6839 66.6218 25.0308C66.6218 22.3471 65.183 20.7075 62.4289 20.7075C59.6732 20.7075 58.2422 22.3471 58.2422 25.0308Z" fill="white"/>
<path d="M74.7881 29.014C74.1536 29.1697 73.4432 29.3511 72.3095 29.3511C70.0835 29.3511 67.5078 28.2268 67.5078 25.0652C67.5078 22.1531 69.5382 20.7065 72.2946 20.7065C73.149 20.7065 73.976 20.8975 74.7764 21.1375L74.5965 22.9423C73.8751 22.5466 73.1834 22.3577 72.419 22.3577C70.8323 22.3577 69.8026 23.5065 69.8026 25.0652C69.8026 26.7062 70.9653 27.6986 72.5943 27.6986C73.3258 27.6986 74.0699 27.5083 74.677 27.2649L74.7881 29.014Z" fill="white"/>
<path d="M75.8203 20.863H78.0298V24.2788H78.0541L80.6181 20.863H83.2681L80.2143 24.7513L83.5052 29.2065H80.7026L78.0541 25.4099H78.0298V29.2065H75.8203V20.863Z" fill="white"/>
</g>
<defs>
<clipPath id="clip0_425_505">
<rect width="83" height="50" fill="white" transform="translate(0.351562 -0.0544434)"/>
</clipPath>
</defs>
</svg>
