<svg width="71" height="51" viewBox="0 0 71 51" fill="none" xmlns="http://www.w3.org/2000/svg">
<g clip-path="url(#clip0_360_2607)">
<path d="M3.39582 12.93C3.39453 12.9673 3.39453 13.0116 3.39453 13.1004V13.4308C3.39453 13.5195 3.39453 13.5639 3.39582 13.6012C3.43761 14.7134 4.38267 15.6057 5.56046 15.6456C5.60032 15.6469 5.64725 15.6469 5.74176 15.6469C5.83562 15.6469 5.88255 15.6469 5.92177 15.6456C7.10021 15.6057 8.04591 14.7134 8.08705 13.6012C8.08898 13.5639 8.08898 13.5195 8.08898 13.4308V13.1004C8.08898 13.0116 8.08898 12.9673 8.08705 12.93C8.04591 11.8178 7.10021 10.9248 5.92242 10.8855C5.88255 10.8843 5.83562 10.8843 5.74176 10.8843C5.64725 10.8843 5.60032 10.8843 5.56046 10.8855C4.38267 10.9248 3.43761 11.8178 3.39582 12.93ZM34.1463 20.817V29.9341C34.1463 31.5195 34.7584 32.2336 36.6909 32.2336C37.5003 32.2336 38.2963 32.0087 38.7726 31.8389V35.5131C37.9626 35.7851 36.725 35.9214 35.7111 35.9214C31.6493 35.9214 29.7238 33.8866 29.7238 30.3692V11.9727H34.1463V17.8237H38.7726V20.8177L34.1463 20.817Z" fill="#141414"/>
<path fill-rule="evenodd" clip-rule="evenodd" d="M40.2695 26.359C40.2695 20.9587 43.675 17.28 49.1248 17.28C54.9476 17.28 57.8336 21.5284 57.5288 27.6886H44.8129C45.0431 30.849 46.5262 32.4518 49.1532 32.4518C51.3737 32.4518 52.5522 31.3808 53.06 29.8661H57.3804C56.5407 33.5795 53.6001 35.9215 49.1255 35.9215C43.6004 35.9215 40.2695 32.2776 40.2695 26.8078V26.359ZM49.0914 20.8192C46.6677 20.8192 45.2192 22.1166 44.8129 24.6959L53.087 24.6277C52.8492 22.2213 51.5492 20.8192 49.0914 20.8192Z" fill="#141414"/>
<path d="M20.8476 17.28C18.0034 17.28 16.2483 18.9606 15.3701 20.6135L15.1663 17.824H10.9489V35.377H15.3707V25.5118C15.3707 22.6 16.915 20.8179 19.2487 20.8179C21.5824 20.8179 22.4465 22.3622 22.4465 25.0353V35.377H26.8684V24.0832C26.8754 20.1647 25.1743 17.28 20.8476 17.28ZM64.4239 20.6135C65.5464 18.416 67.839 17.28 69.5607 17.28C69.8668 17.28 70.3496 17.3206 70.6151 17.3816V20.8179C70.1878 20.7745 69.7587 20.7518 69.3292 20.7498C66.1861 20.7498 64.4239 22.6412 64.4239 25.8525V35.377H60.0008V17.824H64.287L64.4239 20.6135ZM0.539062 17.824V20.8141H3.53111V35.377H7.95491V17.824H0.539062Z" fill="#141414"/>
</g>
<defs>
<clipPath id="clip0_360_2607">
<rect width="70.4168" height="50.0742" fill="white" transform="translate(0.539062 -0.0693359)"/>
</clipPath>
</defs>
</svg>
