<svg width="71" height="51" viewBox="0 0 71 51" fill="none" xmlns="http://www.w3.org/2000/svg">
<g clip-path="url(#clip0_425_433)">
<path d="M3.39582 12.9451C3.39453 12.9824 3.39453 13.0268 3.39453 13.1155V13.4459C3.39453 13.5346 3.39453 13.579 3.39582 13.6163C3.43761 14.7285 4.38267 15.6209 5.56046 15.6608C5.60032 15.662 5.64725 15.662 5.74176 15.662C5.83562 15.662 5.88255 15.662 5.92177 15.6608C7.10021 15.6209 8.04591 14.7285 8.08705 13.6163C8.08898 13.579 8.08898 13.5346 8.08898 13.4459V13.1155C8.08898 13.0268 8.08898 12.9824 8.08705 12.9451C8.04591 11.8329 7.10021 10.9399 5.92242 10.9007C5.88255 10.8994 5.83562 10.8994 5.74176 10.8994C5.64725 10.8994 5.60032 10.8994 5.56046 10.9007C4.38267 10.9399 3.43761 11.8329 3.39582 12.9451ZM34.1463 20.8322V29.9492C34.1463 31.5346 34.7584 32.2488 36.6909 32.2488C37.5003 32.2488 38.2963 32.0238 38.7726 31.854V35.5282C37.9626 35.8002 36.725 35.9365 35.7111 35.9365C31.6493 35.9365 29.7238 33.9017 29.7238 30.3844V11.9878H34.1463V17.8388H38.7726V20.8329L34.1463 20.8322Z" fill="white"/>
<path fill-rule="evenodd" clip-rule="evenodd" d="M40.2695 26.3742C40.2695 20.9738 43.675 17.2952 49.1248 17.2952C54.9476 17.2952 57.8336 21.5435 57.5288 27.7037H44.8129C45.0431 30.8642 46.5262 32.4669 49.1532 32.4669C51.3737 32.4669 52.5522 31.3959 53.06 29.8812H57.3804C56.5407 33.5946 53.6001 35.9367 49.1255 35.9367C43.6004 35.9367 40.2695 32.2927 40.2695 26.823V26.3742ZM49.0914 20.8343C46.6677 20.8343 45.2192 22.1317 44.8129 24.711L53.087 24.6428C52.8492 22.2365 51.5492 20.8343 49.0914 20.8343Z" fill="white"/>
<path d="M20.8476 17.2952C18.0034 17.2952 16.2483 18.9757 15.3701 20.6286L15.1663 17.8391H10.9489V35.3921H15.3707V25.5269C15.3707 22.6152 16.915 20.8331 19.2487 20.8331C21.5824 20.8331 22.4465 22.3773 22.4465 25.0505V35.3921H26.8684V24.0984C26.8754 20.1798 25.1743 17.2952 20.8476 17.2952ZM64.4239 20.6286C65.5464 18.4311 67.839 17.2952 69.5607 17.2952C69.8668 17.2952 70.3496 17.3357 70.6151 17.3967V20.8331C70.1878 20.7896 69.7587 20.7669 69.3292 20.7649C66.1861 20.7649 64.4239 22.6563 64.4239 25.8676V35.3921H60.0008V17.8391H64.287L64.4239 20.6286ZM0.539062 17.8391V20.8292H3.53111V35.3921H7.95491V17.8391H0.539062Z" fill="white"/>
</g>
<defs>
<clipPath id="clip0_425_433">
<rect width="70.4168" height="50.0742" fill="white" transform="translate(0.539062 -0.0541992)"/>
</clipPath>
</defs>
</svg>
