<svg width="188" height="32" viewBox="0 0 188 32" fill="none" xmlns="http://www.w3.org/2000/svg">
<path d="M45.8764 29.3233C43.7958 29.3233 42.0022 28.9885 40.4955 28.3189C39.0128 27.6253 37.6496 26.585 36.406 25.1979L40.065 21.5748C40.8781 22.5075 41.775 23.2369 42.7555 23.763C43.7599 24.2652 44.9198 24.5163 46.2352 24.5163C47.4309 24.5163 48.3517 24.3011 48.9974 23.8706C49.667 23.4402 50.0018 22.8423 50.0018 22.077C50.0018 21.3835 49.7866 20.8214 49.3561 20.391C48.9256 19.9605 48.3517 19.5898 47.6342 19.2789C46.9407 18.968 46.1634 18.6691 45.3025 18.3821C44.4654 18.0951 43.6284 17.7722 42.7914 17.4135C41.9543 17.0309 41.1771 16.5645 40.4596 16.0145C39.7661 15.4405 39.2041 14.735 38.7736 13.898C38.3431 13.037 38.1279 11.9608 38.1279 10.6694C38.1279 9.11493 38.4986 7.77568 39.24 6.65166C40.0052 5.52764 41.0575 4.67865 42.3968 4.10469C43.736 3.5068 45.2786 3.20786 47.0244 3.20786C48.7941 3.20786 50.4084 3.51876 51.8672 4.14056C53.3499 4.76235 54.5696 5.61135 55.5262 6.68753L51.8672 10.3107C51.1019 9.52149 50.3247 8.93556 49.5355 8.55292C48.7702 8.17028 47.8973 7.97895 46.9167 7.97895C45.9362 7.97895 45.159 8.17028 44.585 8.55292C44.011 8.91165 43.7241 9.43778 43.7241 10.1313C43.7241 10.777 43.9393 11.3032 44.3698 11.7097C44.8002 12.0924 45.3623 12.4272 46.0558 12.7142C46.7733 13.0012 47.5505 13.2881 48.3875 13.5751C49.2485 13.8621 50.0975 14.1969 50.9345 14.5796C51.7715 14.9622 52.5368 15.4525 53.2304 16.0504C53.9478 16.6243 54.5218 17.3657 54.9523 18.2745C55.3827 19.1593 55.598 20.2594 55.598 21.5748C55.598 23.9902 54.737 25.8915 53.0151 27.2786C51.2932 28.6417 48.9137 29.3233 45.8764 29.3233ZM58.6833 28.9287V11.4945H64.1719V28.9287H58.6833ZM61.4455 9.09101C60.5846 9.09101 59.8671 8.80403 59.2932 8.23007C58.7431 7.63218 58.4681 6.91473 58.4681 6.07769C58.4681 5.21674 58.7431 4.49929 59.2932 3.92532C59.8671 3.35136 60.5846 3.06437 61.4455 3.06437C62.3065 3.06437 63.012 3.35136 63.562 3.92532C64.1121 4.49929 64.3871 5.21674 64.3871 6.07769C64.3871 6.91473 64.1121 7.63218 63.562 8.23007C63.012 8.80403 62.3065 9.09101 61.4455 9.09101ZM68.0369 28.9287V11.4945H73.5254V28.9287H68.0369ZM79.1934 28.9287V18.7408C79.1934 17.856 78.9183 17.1744 78.3683 16.6961C77.8421 16.1938 77.1845 15.9427 76.3953 15.9427C75.8452 15.9427 75.355 16.0623 74.9245 16.3015C74.494 16.5167 74.1472 16.8276 73.8842 17.2342C73.645 17.6407 73.5254 18.1429 73.5254 18.7408L71.4089 17.8081C71.4089 16.421 71.7079 15.2372 72.3058 14.2567C72.9036 13.2523 73.7168 12.487 74.7451 11.9608C75.7735 11.4108 76.9334 11.1358 78.2248 11.1358C79.4445 11.1358 80.5326 11.4108 81.4892 11.9608C82.4697 12.5109 83.247 13.2762 83.821 14.2567C84.3949 15.2372 84.6819 16.4091 84.6819 17.7722V28.9287H79.1934ZM90.3498 28.9287V18.7408C90.3498 17.856 90.0748 17.1744 89.5247 16.6961C88.9986 16.1938 88.3409 15.9427 87.5517 15.9427C87.0017 15.9427 86.5114 16.0623 86.081 16.3015C85.6505 16.5167 85.3037 16.8276 85.0406 17.2342C84.8015 17.6407 84.6819 18.1429 84.6819 18.7408L81.5251 18.3103C81.5729 16.8276 81.9197 15.5601 82.5654 14.5078C83.235 13.4316 84.1079 12.6066 85.1841 12.0326C86.2842 11.4347 87.5159 11.1358 88.879 11.1358C90.2183 11.1358 91.4021 11.4228 92.4304 11.9967C93.4827 12.5468 94.3078 13.3479 94.9057 14.4002C95.5275 15.4286 95.8384 16.6721 95.8384 18.131V28.9287H90.3498ZM109.4 29.2874C108.228 29.2874 107.152 29.0483 106.171 28.57C105.191 28.0678 104.39 27.4101 103.768 26.597C103.146 25.7599 102.787 24.8272 102.692 23.7989V16.445C102.787 15.4166 103.146 14.5078 103.768 13.7186C104.39 12.9055 105.191 12.2717 106.171 11.8174C107.152 11.363 108.228 11.1358 109.4 11.1358C111.05 11.1358 112.509 11.5304 113.776 12.3196C115.068 13.1088 116.072 14.185 116.79 15.5481C117.531 16.9113 117.902 18.4658 117.902 20.2116C117.902 21.9574 117.531 23.5119 116.79 24.8751C116.072 26.2382 115.068 27.3144 113.776 28.1036C112.509 28.8928 111.05 29.2874 109.4 29.2874ZM108.431 24.337C109.197 24.337 109.866 24.1576 110.44 23.7989C111.038 23.4402 111.505 22.9499 111.839 22.3281C112.174 21.7063 112.342 21.0008 112.342 20.2116C112.342 19.3985 112.174 18.681 111.839 18.0592C111.505 17.4374 111.038 16.9591 110.44 16.6243C109.866 16.2656 109.197 16.0862 108.431 16.0862C107.666 16.0862 106.985 16.2656 106.387 16.6243C105.789 16.9591 105.322 17.4374 104.988 18.0592C104.677 18.681 104.521 19.3985 104.521 20.2116C104.521 21.0247 104.689 21.7422 105.024 22.364C105.358 22.9858 105.813 23.476 106.387 23.8348C106.985 24.1696 107.666 24.337 108.431 24.337ZM99.3556 28.9287V2.88501H104.844V15.7634L103.947 19.9964L104.772 24.2294V28.9287H99.3556ZM127.972 29.2874C126.37 29.2874 124.935 28.8928 123.668 28.1036C122.424 27.3144 121.432 26.2382 120.69 24.8751C119.973 23.5119 119.614 21.9574 119.614 20.2116C119.614 18.4658 119.973 16.9113 120.69 15.5481C121.432 14.185 122.424 13.1088 123.668 12.3196C124.935 11.5304 126.37 11.1358 127.972 11.1358C129.144 11.1358 130.196 11.363 131.129 11.8174C132.086 12.2717 132.863 12.9055 133.461 13.7186C134.059 14.5078 134.394 15.4166 134.465 16.445V23.9783C134.394 25.0066 134.059 25.9273 133.461 26.7405C132.887 27.5297 132.122 28.1515 131.165 28.6059C130.208 29.0602 129.144 29.2874 127.972 29.2874ZM129.084 24.337C130.256 24.337 131.201 23.9543 131.918 23.1891C132.636 22.3998 132.995 21.4074 132.995 20.2116C132.995 19.3985 132.827 18.681 132.492 18.0592C132.181 17.4374 131.727 16.9591 131.129 16.6243C130.555 16.2656 129.886 16.0862 129.12 16.0862C128.355 16.0862 127.673 16.2656 127.076 16.6243C126.502 16.9591 126.035 17.4374 125.676 18.0592C125.342 18.681 125.174 19.3985 125.174 20.2116C125.174 21.0008 125.342 21.7063 125.676 22.3281C126.011 22.9499 126.478 23.4402 127.076 23.7989C127.673 24.1576 128.343 24.337 129.084 24.337ZM132.779 28.9287V24.2294L133.604 19.9964L132.779 15.7634V11.4945H138.16V28.9287H132.779ZM153.54 28.9287V18.9919C153.54 18.0831 153.253 17.3537 152.679 16.8037C152.129 16.2297 151.423 15.9427 150.562 15.9427C149.965 15.9427 149.438 16.0743 148.984 16.3373C148.53 16.5765 148.171 16.9352 147.908 17.4135C147.645 17.8679 147.513 18.394 147.513 18.9919L145.397 17.9516C145.397 16.5884 145.696 15.3927 146.294 14.3643C146.891 13.336 147.717 12.5468 148.769 11.9967C149.845 11.4228 151.053 11.1358 152.392 11.1358C153.683 11.1358 154.819 11.4467 155.8 12.0685C156.804 12.6663 157.594 13.4675 158.167 14.4719C158.741 15.4764 159.028 16.5765 159.028 17.7722V28.9287H153.54ZM142.025 28.9287V11.4945H147.513V28.9287H142.025ZM162.553 28.9287V11.4945H168.042V28.9287H162.553ZM165.316 9.09101C164.455 9.09101 163.737 8.80403 163.163 8.23007C162.613 7.63218 162.338 6.91473 162.338 6.07769C162.338 5.21674 162.613 4.49929 163.163 3.92532C163.737 3.35136 164.455 3.06437 165.316 3.06437C166.177 3.06437 166.882 3.35136 167.432 3.92532C167.982 4.49929 168.257 5.21674 168.257 6.07769C168.257 6.91473 167.982 7.63218 167.432 8.23007C166.882 8.80403 166.177 9.09101 165.316 9.09101ZM180.337 29.3233C178.544 29.3233 176.917 28.9287 175.458 28.1395C174 27.3503 172.852 26.2622 172.015 24.8751C171.178 23.488 170.759 21.9335 170.759 20.2116C170.759 18.4658 171.178 16.9113 172.015 15.5481C172.876 14.161 174.036 13.0729 175.494 12.2837C176.953 11.4945 178.591 11.0999 180.409 11.0999C181.772 11.0999 183.016 11.339 184.14 11.8174C185.288 12.2717 186.304 12.9653 187.189 13.898L183.673 17.4135C183.267 16.9591 182.788 16.6243 182.238 16.4091C181.712 16.1938 181.102 16.0862 180.409 16.0862C179.62 16.0862 178.914 16.2656 178.292 16.6243C177.695 16.9591 177.216 17.4374 176.858 18.0592C176.523 18.6571 176.355 19.3626 176.355 20.1757C176.355 20.9888 176.523 21.7063 176.858 22.3281C177.216 22.9499 177.707 23.4402 178.328 23.7989C178.95 24.1576 179.644 24.337 180.409 24.337C181.126 24.337 181.76 24.2174 182.31 23.9783C182.884 23.7152 183.374 23.3565 183.781 22.9021L187.261 26.4176C186.352 27.3742 185.324 28.1036 184.176 28.6059C183.028 29.0842 181.748 29.3233 180.337 29.3233Z" fill="#0E0421"/>
<path d="M0 2.91557C0 1.58149 1.08149 0.5 2.41558 0.5H8.85711V9.35711H0V2.91557Z" fill="#A65CFF"/>
<path d="M0 9.35718H8.85711V18.2143H2.41558C1.08149 18.2143 0 17.1328 0 15.7987V9.35718Z" fill="#D384FF"/>
<rect x="8.85547" y="0.5" width="8.85711" height="8.85711" fill="#7A34D8"/>
<path d="M17.7148 0.5H24.1564C25.4905 0.5 26.572 1.58149 26.572 2.91558V9.35711H17.7148V0.5Z" fill="#5B10B9"/>
<path d="M26.5742 29.0844C26.5742 30.4185 25.4927 31.5 24.1586 31.5H17.7171V22.6429H26.5742V29.0844Z" fill="#FC5194"/>
<path d="M26.5742 22.6428H17.7171V13.7857H24.1586C25.4927 13.7857 26.5742 14.8672 26.5742 16.2013V22.6428Z" fill="#FF7DB0"/>
<rect x="17.7188" y="31.5" width="8.85711" height="8.85711" transform="rotate(180 17.7188 31.5)" fill="#EC2F79"/>
<path d="M8.85938 31.5H2.41784C1.08376 31.5 0.00226784 30.4185 0.00226784 29.0844V22.6429H8.85938V31.5Z" fill="#E40059"/>
</svg>
