<svg width="92" height="51" viewBox="0 0 92 51" fill="none" xmlns="http://www.w3.org/2000/svg">
<g clip-path="url(#clip0_360_2670)">
<path fill-rule="evenodd" clip-rule="evenodd" d="M20.0877 9.38999L2.76979 10.669C1.37287 10.7901 0.886719 11.7029 0.886719 12.7973V31.7823C0.886719 32.6346 1.18926 33.3638 1.91954 34.3383L5.9903 39.6317C6.65901 40.484 7.26723 40.6666 8.54417 40.6061L28.6549 39.3886C30.3554 39.2676 30.8425 38.4758 30.8425 37.1373V15.7789C30.8425 15.0872 30.5692 14.8879 29.7649 14.2974C29.7187 14.2641 29.6723 14.2308 29.6262 14.1973L24.099 10.3029C22.7615 9.33052 22.2149 9.20744 20.0877 9.38999ZM8.99902 15.4294C7.35695 15.5399 6.98451 15.565 6.05184 14.8066L3.68054 12.9203C3.43955 12.6762 3.56056 12.3716 4.16773 12.3111L20.8159 11.0947C22.2138 10.9726 22.942 11.4598 23.4887 11.8855L26.3441 13.9543C26.4661 14.0158 26.7697 14.3799 26.4046 14.3799L9.21185 15.4147L8.99902 15.4294ZM7.08466 36.9548V18.823C7.08466 18.0312 7.32774 17.6661 8.05593 17.6046L27.8025 16.4487C28.4723 16.3881 28.7749 16.8137 28.7749 17.6046V35.6152C28.7749 36.4071 28.6528 37.0768 27.5594 37.1373L8.6631 38.2327C7.56977 38.2932 7.08466 37.9291 7.08466 36.9548ZM25.7379 19.7954C25.859 20.3431 25.7379 20.8908 25.1902 20.9534L24.2795 21.1339V34.5208C23.4887 34.9465 22.7605 35.1896 22.1523 35.1896C21.18 35.1896 20.9369 34.8849 20.2088 33.9731L14.2529 24.6027V33.6685L16.137 34.0952C16.137 34.0952 16.137 35.1906 14.6169 35.1906L10.4262 35.4337C10.3041 35.1896 10.4262 34.5813 10.8508 34.4604L11.9451 34.1568V22.1698L10.4262 22.0467C10.3041 21.499 10.6077 20.7082 11.459 20.6467L15.9554 20.3441L22.1523 29.8356V21.4385L20.5728 21.257C20.4508 20.5862 20.9369 20.099 21.5441 20.0395L25.7379 19.7954Z" fill="#0E61B3"/>
<path d="M44.1141 31.4892V23.237H44.2571L50.2077 31.4892H52.0814V19.3624H49.998V27.6062H49.8552L43.9044 19.3624H42.0234V31.4881H44.1152L44.1141 31.4892ZM57.9695 31.6748C60.7185 31.6748 62.3908 29.8763 62.3908 26.8926C62.3908 23.9173 60.7101 22.1103 57.9695 22.1103C55.2383 22.1103 53.5493 23.9256 53.5493 26.8926C53.5493 29.8763 55.2133 31.6748 57.9695 31.6748ZM57.9695 29.9264C56.5163 29.9264 55.6848 28.8174 55.6848 26.8926C55.6848 24.9762 56.5163 23.8588 57.9695 23.8588C59.4154 23.8588 60.2469 24.9762 60.2469 26.8926C60.2469 28.8174 59.4238 29.9264 57.9695 29.9264ZM64.2947 20.0437V22.3545H62.8415V24.0185H64.2947V29.0354C64.2947 30.8173 65.1356 31.532 67.2451 31.532C67.6478 31.532 68.0348 31.4902 68.3373 31.4307V29.8001C68.0848 29.8252 67.9252 29.8419 67.631 29.8419C66.7578 29.8419 66.3708 29.4392 66.3708 28.5316V24.0185H68.3373V22.3545H66.3708V20.0427H64.2947V20.0437ZM69.5861 31.4892H71.6621V22.295H69.5861V31.4892ZM70.6199 20.775C71.3085 20.775 71.8635 20.2189 71.8635 19.522C71.8635 18.8241 71.3096 18.2607 70.6199 18.2607C69.9398 18.2607 69.3764 18.8241 69.3764 19.522C69.3764 20.2189 69.9398 20.7739 70.6199 20.7739V20.775ZM77.3573 31.6748C80.1053 31.6748 81.7773 29.8763 81.7773 26.8926C81.7773 23.9173 80.0967 22.1103 77.3573 22.1103C74.625 22.1103 72.936 23.9256 72.936 26.8926C72.936 29.8763 74.6 31.6748 77.3573 31.6748ZM77.3573 29.9264C75.903 29.9264 75.0704 28.8174 75.0704 26.8926C75.0704 24.9762 75.903 23.8588 77.3573 23.8588C78.8022 23.8588 79.635 24.9762 79.635 26.8926C79.635 28.8174 78.8105 29.9264 77.3573 29.9264ZM83.0183 31.4892H85.1027V26.1363C85.1027 24.7831 85.8851 23.9256 87.1276 23.9256C88.3967 23.9256 88.9844 24.6319 88.9844 26.035V31.4892H91.0696V25.5395C91.0696 23.3456 89.9515 22.1103 87.9015 22.1103C86.5306 22.1103 85.6066 22.7405 85.1692 23.766H85.026V22.295H83.0183V31.4892Z" fill="#0E61B3"/>
</g>
<defs>
<clipPath id="clip0_360_2670">
<rect width="90.7627" height="50.076" fill="white" transform="translate(0.886719 -0.0703125)"/>
</clipPath>
</defs>
</svg>
