<svg width="19" height="19" viewBox="0 0 19 19" fill="none" xmlns="http://www.w3.org/2000/svg">
<path d="M18.1767 7.55908L18.1765 7.55853C18.1203 7.38453 17.9664 7.26134 17.7838 7.24488L17.7835 7.24485L12.5882 6.77311L12.2909 6.74612L12.1736 6.47161L10.1197 1.66419C10.1196 1.66401 10.1195 1.66382 10.1195 1.66363C10.0464 1.49431 9.88169 1.38623 9.69931 1.38623C9.51707 1.38623 9.35238 1.49416 9.27926 1.66422C9.2792 1.66435 9.27914 1.66449 9.27908 1.66463L7.22498 6.47163L7.10769 6.74613L6.81041 6.77312L1.61511 7.24478C1.61503 7.24479 1.61495 7.24479 1.61487 7.2448C1.43227 7.26178 1.27862 7.38464 1.22181 7.55934C1.16494 7.73425 1.2177 7.92462 1.3548 8.04424L1.35575 8.04507L5.28277 11.4891L5.50659 11.6854L5.44069 11.9757L4.28281 17.0761C4.2828 17.0762 4.28278 17.0763 4.28276 17.0764C4.24202 17.2571 4.31207 17.4414 4.45996 17.5484C4.54158 17.6073 4.63471 17.636 4.72746 17.636C4.80698 17.636 4.88707 17.6148 4.96114 17.5705L4.96136 17.5703L9.4428 14.8919L9.69936 14.7386L9.95589 14.892L14.4357 17.5704L14.4369 17.5711C14.5923 17.6646 14.7886 17.6566 14.9372 17.5488L14.9372 17.5488C15.086 17.441 15.1556 17.2562 15.1151 17.0767L18.1767 7.55908ZM18.1767 7.55908C18.2334 7.73384 18.1809 7.92426 18.0425 8.04537L18.0421 8.04573L14.1151 11.4891L13.8912 11.6854L13.9571 11.9757L15.115 17.0764L18.1767 7.55908Z" fill="#FFC107" stroke="#C49619"/>
</svg>
