<svg width="252" height="295" viewBox="0 0 252 295" fill="none" xmlns="http://www.w3.org/2000/svg">
<rect x="0.5" y="0.771484" width="251" height="294" rx="10" fill="#823FA8"/>
<mask id="mask0_1092_1016" style="mask-type:alpha" maskUnits="userSpaceOnUse" x="0" y="0" width="252" height="295">
<rect x="0.5" y="0.771484" width="251" height="294" rx="10" fill="#823FA8"/>
</mask>
<g mask="url(#mask0_1092_1016)">
<path d="M273.179 248.912C273.514 249.493 273.841 250.079 274.158 250.67C273.582 250.293 273.196 249.648 273.179 248.912Z" fill="white" fill-opacity="0.11"/>
<path d="M261.348 233.995C262.355 234.94 263.332 235.916 264.277 236.923C263.911 237.599 263.197 238.057 262.375 238.057C261.182 238.057 260.214 237.09 260.214 235.896C260.214 235.075 260.673 234.36 261.348 233.995Z" fill="white" fill-opacity="0.11"/>
<path d="M247.601 224.114C248.193 224.431 248.779 224.757 249.359 225.092C248.623 225.075 247.978 224.69 247.601 224.114Z" fill="white" fill-opacity="0.11"/>
<path d="M184.641 225.092C185.221 224.757 185.807 224.431 186.399 224.114C186.022 224.69 185.377 225.075 184.641 225.092Z" fill="white" fill-opacity="0.11"/>
<path d="M169.723 236.923C170.668 235.916 171.645 234.94 172.652 233.995C173.327 234.36 173.786 235.075 173.786 235.896C173.786 237.09 172.818 238.057 171.625 238.057C170.803 238.057 170.089 237.599 169.723 236.923Z" fill="white" fill-opacity="0.11"/>
<path d="M159.842 250.67C160.16 250.079 160.486 249.493 160.821 248.912C160.804 249.648 160.418 250.293 159.842 250.67Z" fill="white" fill-opacity="0.11"/>
<path d="M274.158 311.873C273.841 312.464 273.514 313.05 273.179 313.631C273.196 312.895 273.582 312.25 274.158 311.873Z" fill="white" fill-opacity="0.11"/>
<path d="M264.277 325.62C263.911 324.944 263.197 324.486 262.375 324.486C261.182 324.486 260.214 325.453 260.214 326.646C260.214 327.468 260.673 328.183 261.348 328.548C262.355 327.603 263.332 326.627 264.277 325.62Z" fill="white" fill-opacity="0.11"/>
<path d="M249.359 337.451C248.623 337.468 247.978 337.853 247.601 338.429C248.193 338.112 248.779 337.786 249.359 337.451Z" fill="white" fill-opacity="0.11"/>
<path d="M186.399 338.429C186.022 337.853 185.377 337.468 184.641 337.451C185.221 337.786 185.807 338.112 186.399 338.429Z" fill="white" fill-opacity="0.11"/>
<path d="M172.652 328.548C173.327 328.183 173.786 327.468 173.786 326.646C173.786 325.453 172.818 324.486 171.625 324.486C170.803 324.486 170.089 324.944 169.723 325.62C170.668 326.627 171.645 327.603 172.652 328.548Z" fill="white" fill-opacity="0.11"/>
<path d="M160.821 313.631C160.804 312.895 160.418 312.25 159.842 311.873C160.16 312.464 160.486 313.05 160.821 313.631Z" fill="white" fill-opacity="0.11"/>
<path d="M199.714 222.932C199.714 224.126 198.747 225.093 197.554 225.093C196.36 225.093 195.393 224.126 195.393 222.932C195.393 221.739 196.36 220.771 197.554 220.771C198.747 220.771 199.714 221.739 199.714 222.932Z" fill="white" fill-opacity="0.11"/>
<path d="M212.679 222.932C212.679 224.126 211.711 225.093 210.518 225.093C209.325 225.093 208.357 224.126 208.357 222.932C208.357 221.739 209.325 220.771 210.518 220.771C211.711 220.771 212.679 221.739 212.679 222.932Z" fill="white" fill-opacity="0.11"/>
<path d="M225.643 222.932C225.643 224.126 224.675 225.093 223.482 225.093C222.289 225.093 221.321 224.126 221.321 222.932C221.321 221.739 222.289 220.771 223.482 220.771C224.675 220.771 225.643 221.739 225.643 222.932Z" fill="white" fill-opacity="0.11"/>
<path d="M238.607 222.932C238.607 224.126 237.64 225.093 236.446 225.093C235.253 225.093 234.286 224.126 234.286 222.932C234.286 221.739 235.253 220.771 236.446 220.771C237.64 220.771 238.607 221.739 238.607 222.932Z" fill="white" fill-opacity="0.11"/>
<path d="M186.75 235.896C186.75 237.09 185.783 238.057 184.589 238.057C183.396 238.057 182.429 237.09 182.429 235.896C182.429 234.703 183.396 233.736 184.589 233.736C185.783 233.736 186.75 234.703 186.75 235.896Z" fill="white" fill-opacity="0.11"/>
<path d="M199.714 235.896C199.714 237.09 198.747 238.057 197.554 238.057C196.36 238.057 195.393 237.09 195.393 235.896C195.393 234.703 196.36 233.736 197.554 233.736C198.747 233.736 199.714 234.703 199.714 235.896Z" fill="white" fill-opacity="0.11"/>
<path d="M212.679 235.896C212.679 237.09 211.711 238.057 210.518 238.057C209.325 238.057 208.357 237.09 208.357 235.896C208.357 234.703 209.325 233.736 210.518 233.736C211.711 233.736 212.679 234.703 212.679 235.896Z" fill="white" fill-opacity="0.11"/>
<path d="M225.643 235.896C225.643 237.09 224.675 238.057 223.482 238.057C222.289 238.057 221.321 237.09 221.321 235.896C221.321 234.703 222.289 233.736 223.482 233.736C224.675 233.736 225.643 234.703 225.643 235.896Z" fill="white" fill-opacity="0.11"/>
<path d="M238.607 235.896C238.607 237.09 237.64 238.057 236.446 238.057C235.253 238.057 234.286 237.09 234.286 235.896C234.286 234.703 235.253 233.736 236.446 233.736C237.64 233.736 238.607 234.703 238.607 235.896Z" fill="white" fill-opacity="0.11"/>
<path d="M251.571 235.896C251.571 237.09 250.604 238.057 249.411 238.057C248.217 238.057 247.25 237.09 247.25 235.896C247.25 234.703 248.217 233.736 249.411 233.736C250.604 233.736 251.571 234.703 251.571 235.896Z" fill="white" fill-opacity="0.11"/>
<path d="M173.786 248.861C173.786 250.054 172.818 251.021 171.625 251.021C170.432 251.021 169.464 250.054 169.464 248.861C169.464 247.667 170.432 246.7 171.625 246.7C172.818 246.7 173.786 247.667 173.786 248.861Z" fill="white" fill-opacity="0.11"/>
<path d="M186.75 248.861C186.75 250.054 185.783 251.021 184.589 251.021C183.396 251.021 182.429 250.054 182.429 248.861C182.429 247.667 183.396 246.7 184.589 246.7C185.783 246.7 186.75 247.667 186.75 248.861Z" fill="white" fill-opacity="0.11"/>
<path d="M199.714 248.861C199.714 250.054 198.747 251.021 197.554 251.021C196.36 251.021 195.393 250.054 195.393 248.861C195.393 247.667 196.36 246.7 197.554 246.7C198.747 246.7 199.714 247.667 199.714 248.861Z" fill="white" fill-opacity="0.11"/>
<path d="M212.679 248.861C212.679 250.054 211.711 251.021 210.518 251.021C209.325 251.021 208.357 250.054 208.357 248.861C208.357 247.667 209.325 246.7 210.518 246.7C211.711 246.7 212.679 247.667 212.679 248.861Z" fill="white" fill-opacity="0.11"/>
<path d="M225.643 248.861C225.643 250.054 224.675 251.021 223.482 251.021C222.289 251.021 221.321 250.054 221.321 248.861C221.321 247.667 222.289 246.7 223.482 246.7C224.675 246.7 225.643 247.667 225.643 248.861Z" fill="white" fill-opacity="0.11"/>
<path d="M238.607 248.861C238.607 250.054 237.64 251.021 236.446 251.021C235.253 251.021 234.286 250.054 234.286 248.861C234.286 247.667 235.253 246.7 236.446 246.7C237.64 246.7 238.607 247.667 238.607 248.861Z" fill="white" fill-opacity="0.11"/>
<path d="M251.571 248.861C251.571 250.054 250.604 251.021 249.411 251.021C248.217 251.021 247.25 250.054 247.25 248.861C247.25 247.667 248.217 246.7 249.411 246.7C250.604 246.7 251.571 247.667 251.571 248.861Z" fill="white" fill-opacity="0.11"/>
<path d="M264.536 248.861C264.536 250.054 263.568 251.021 262.375 251.021C261.182 251.021 260.214 250.054 260.214 248.861C260.214 247.667 261.182 246.7 262.375 246.7C263.568 246.7 264.536 247.667 264.536 248.861Z" fill="white" fill-opacity="0.11"/>
<path d="M160.821 261.825C160.821 263.018 159.854 263.986 158.661 263.986C157.467 263.986 156.5 263.018 156.5 261.825C156.5 260.632 157.467 259.664 158.661 259.664C159.854 259.664 160.821 260.632 160.821 261.825Z" fill="white" fill-opacity="0.11"/>
<path d="M173.786 261.825C173.786 263.018 172.818 263.986 171.625 263.986C170.432 263.986 169.464 263.018 169.464 261.825C169.464 260.632 170.432 259.664 171.625 259.664C172.818 259.664 173.786 260.632 173.786 261.825Z" fill="white" fill-opacity="0.11"/>
<path d="M186.75 261.825C186.75 263.018 185.783 263.986 184.589 263.986C183.396 263.986 182.429 263.018 182.429 261.825C182.429 260.632 183.396 259.664 184.589 259.664C185.783 259.664 186.75 260.632 186.75 261.825Z" fill="white" fill-opacity="0.11"/>
<path d="M199.714 261.825C199.714 263.018 198.747 263.986 197.554 263.986C196.36 263.986 195.393 263.018 195.393 261.825C195.393 260.632 196.36 259.664 197.554 259.664C198.747 259.664 199.714 260.632 199.714 261.825Z" fill="white" fill-opacity="0.11"/>
<path d="M212.679 261.825C212.679 263.018 211.711 263.986 210.518 263.986C209.325 263.986 208.357 263.018 208.357 261.825C208.357 260.632 209.325 259.664 210.518 259.664C211.711 259.664 212.679 260.632 212.679 261.825Z" fill="white" fill-opacity="0.11"/>
<path d="M225.643 261.825C225.643 263.018 224.675 263.986 223.482 263.986C222.289 263.986 221.321 263.018 221.321 261.825C221.321 260.632 222.289 259.664 223.482 259.664C224.675 259.664 225.643 260.632 225.643 261.825Z" fill="white" fill-opacity="0.11"/>
<path d="M238.607 261.825C238.607 263.018 237.64 263.986 236.446 263.986C235.253 263.986 234.286 263.018 234.286 261.825C234.286 260.632 235.253 259.664 236.446 259.664C237.64 259.664 238.607 260.632 238.607 261.825Z" fill="white" fill-opacity="0.11"/>
<path d="M251.571 261.825C251.571 263.018 250.604 263.986 249.411 263.986C248.217 263.986 247.25 263.018 247.25 261.825C247.25 260.632 248.217 259.664 249.411 259.664C250.604 259.664 251.571 260.632 251.571 261.825Z" fill="white" fill-opacity="0.11"/>
<path d="M264.536 261.825C264.536 263.018 263.568 263.986 262.375 263.986C261.182 263.986 260.214 263.018 260.214 261.825C260.214 260.632 261.182 259.664 262.375 259.664C263.568 259.664 264.536 260.632 264.536 261.825Z" fill="white" fill-opacity="0.11"/>
<path d="M277.5 261.825C277.5 263.018 276.533 263.986 275.339 263.986C274.146 263.986 273.179 263.018 273.179 261.825C273.179 260.632 274.146 259.664 275.339 259.664C276.533 259.664 277.5 260.632 277.5 261.825Z" fill="white" fill-opacity="0.11"/>
<path d="M160.821 274.789C160.821 275.983 159.854 276.95 158.661 276.95C157.467 276.95 156.5 275.983 156.5 274.789C156.5 273.596 157.467 272.629 158.661 272.629C159.854 272.629 160.821 273.596 160.821 274.789Z" fill="white" fill-opacity="0.11"/>
<path d="M173.786 274.789C173.786 275.983 172.818 276.95 171.625 276.95C170.432 276.95 169.464 275.983 169.464 274.789C169.464 273.596 170.432 272.629 171.625 272.629C172.818 272.629 173.786 273.596 173.786 274.789Z" fill="white" fill-opacity="0.11"/>
<path d="M186.75 274.789C186.75 275.983 185.783 276.95 184.589 276.95C183.396 276.95 182.429 275.983 182.429 274.789C182.429 273.596 183.396 272.629 184.589 272.629C185.783 272.629 186.75 273.596 186.75 274.789Z" fill="white" fill-opacity="0.11"/>
<path d="M199.714 274.789C199.714 275.983 198.747 276.95 197.554 276.95C196.36 276.95 195.393 275.983 195.393 274.789C195.393 273.596 196.36 272.629 197.554 272.629C198.747 272.629 199.714 273.596 199.714 274.789Z" fill="white" fill-opacity="0.11"/>
<path d="M212.679 274.789C212.679 275.983 211.711 276.95 210.518 276.95C209.325 276.95 208.357 275.983 208.357 274.789C208.357 273.596 209.325 272.629 210.518 272.629C211.711 272.629 212.679 273.596 212.679 274.789Z" fill="white" fill-opacity="0.11"/>
<path d="M225.643 274.789C225.643 275.983 224.675 276.95 223.482 276.95C222.289 276.95 221.321 275.983 221.321 274.789C221.321 273.596 222.289 272.629 223.482 272.629C224.675 272.629 225.643 273.596 225.643 274.789Z" fill="white" fill-opacity="0.11"/>
<path d="M238.607 274.789C238.607 275.983 237.64 276.95 236.446 276.95C235.253 276.95 234.286 275.983 234.286 274.789C234.286 273.596 235.253 272.629 236.446 272.629C237.64 272.629 238.607 273.596 238.607 274.789Z" fill="white" fill-opacity="0.11"/>
<path d="M251.571 274.789C251.571 275.983 250.604 276.95 249.411 276.95C248.217 276.95 247.25 275.983 247.25 274.789C247.25 273.596 248.217 272.629 249.411 272.629C250.604 272.629 251.571 273.596 251.571 274.789Z" fill="white" fill-opacity="0.11"/>
<path d="M264.536 274.789C264.536 275.983 263.568 276.95 262.375 276.95C261.182 276.95 260.214 275.983 260.214 274.789C260.214 273.596 261.182 272.629 262.375 272.629C263.568 272.629 264.536 273.596 264.536 274.789Z" fill="white" fill-opacity="0.11"/>
<path d="M277.5 274.789C277.5 275.983 276.533 276.95 275.339 276.95C274.146 276.95 273.179 275.983 273.179 274.789C273.179 273.596 274.146 272.629 275.339 272.629C276.533 272.629 277.5 273.596 277.5 274.789Z" fill="white" fill-opacity="0.11"/>
<path d="M160.821 287.754C160.821 288.947 159.854 289.914 158.661 289.914C157.467 289.914 156.5 288.947 156.5 287.754C156.5 286.56 157.467 285.593 158.661 285.593C159.854 285.593 160.821 286.56 160.821 287.754Z" fill="white" fill-opacity="0.11"/>
<path d="M173.786 287.754C173.786 288.947 172.818 289.914 171.625 289.914C170.432 289.914 169.464 288.947 169.464 287.754C169.464 286.56 170.432 285.593 171.625 285.593C172.818 285.593 173.786 286.56 173.786 287.754Z" fill="white" fill-opacity="0.11"/>
<path d="M186.75 287.754C186.75 288.947 185.783 289.914 184.589 289.914C183.396 289.914 182.429 288.947 182.429 287.754C182.429 286.56 183.396 285.593 184.589 285.593C185.783 285.593 186.75 286.56 186.75 287.754Z" fill="white" fill-opacity="0.11"/>
<path d="M199.714 287.754C199.714 288.947 198.747 289.914 197.554 289.914C196.36 289.914 195.393 288.947 195.393 287.754C195.393 286.56 196.36 285.593 197.554 285.593C198.747 285.593 199.714 286.56 199.714 287.754Z" fill="white" fill-opacity="0.11"/>
<path d="M212.679 287.754C212.679 288.947 211.711 289.914 210.518 289.914C209.325 289.914 208.357 288.947 208.357 287.754C208.357 286.56 209.325 285.593 210.518 285.593C211.711 285.593 212.679 286.56 212.679 287.754Z" fill="white" fill-opacity="0.11"/>
<path d="M225.643 287.754C225.643 288.947 224.675 289.914 223.482 289.914C222.289 289.914 221.321 288.947 221.321 287.754C221.321 286.56 222.289 285.593 223.482 285.593C224.675 285.593 225.643 286.56 225.643 287.754Z" fill="white" fill-opacity="0.11"/>
<path d="M238.607 287.754C238.607 288.947 237.64 289.914 236.446 289.914C235.253 289.914 234.286 288.947 234.286 287.754C234.286 286.56 235.253 285.593 236.446 285.593C237.64 285.593 238.607 286.56 238.607 287.754Z" fill="white" fill-opacity="0.11"/>
<path d="M251.571 287.754C251.571 288.947 250.604 289.914 249.411 289.914C248.217 289.914 247.25 288.947 247.25 287.754C247.25 286.56 248.217 285.593 249.411 285.593C250.604 285.593 251.571 286.56 251.571 287.754Z" fill="white" fill-opacity="0.11"/>
<path d="M264.536 287.754C264.536 288.947 263.568 289.914 262.375 289.914C261.182 289.914 260.214 288.947 260.214 287.754C260.214 286.56 261.182 285.593 262.375 285.593C263.568 285.593 264.536 286.56 264.536 287.754Z" fill="white" fill-opacity="0.11"/>
<path d="M277.5 287.754C277.5 288.947 276.533 289.914 275.339 289.914C274.146 289.914 273.179 288.947 273.179 287.754C273.179 286.56 274.146 285.593 275.339 285.593C276.533 285.593 277.5 286.56 277.5 287.754Z" fill="white" fill-opacity="0.11"/>
<path d="M160.821 300.718C160.821 301.911 159.854 302.879 158.661 302.879C157.467 302.879 156.5 301.911 156.5 300.718C156.5 299.525 157.467 298.557 158.661 298.557C159.854 298.557 160.821 299.525 160.821 300.718Z" fill="white" fill-opacity="0.11"/>
<path d="M173.786 300.718C173.786 301.911 172.818 302.879 171.625 302.879C170.432 302.879 169.464 301.911 169.464 300.718C169.464 299.525 170.432 298.557 171.625 298.557C172.818 298.557 173.786 299.525 173.786 300.718Z" fill="white" fill-opacity="0.11"/>
<path d="M186.75 300.718C186.75 301.911 185.783 302.879 184.589 302.879C183.396 302.879 182.429 301.911 182.429 300.718C182.429 299.525 183.396 298.557 184.589 298.557C185.783 298.557 186.75 299.525 186.75 300.718Z" fill="white" fill-opacity="0.11"/>
<path d="M199.714 300.718C199.714 301.911 198.747 302.879 197.554 302.879C196.36 302.879 195.393 301.911 195.393 300.718C195.393 299.525 196.36 298.557 197.554 298.557C198.747 298.557 199.714 299.525 199.714 300.718Z" fill="white" fill-opacity="0.11"/>
<path d="M212.679 300.718C212.679 301.911 211.711 302.879 210.518 302.879C209.325 302.879 208.357 301.911 208.357 300.718C208.357 299.525 209.325 298.557 210.518 298.557C211.711 298.557 212.679 299.525 212.679 300.718Z" fill="white" fill-opacity="0.11"/>
<path d="M225.643 300.718C225.643 301.911 224.675 302.879 223.482 302.879C222.289 302.879 221.321 301.911 221.321 300.718C221.321 299.525 222.289 298.557 223.482 298.557C224.675 298.557 225.643 299.525 225.643 300.718Z" fill="white" fill-opacity="0.11"/>
<path d="M238.607 300.718C238.607 301.911 237.64 302.879 236.446 302.879C235.253 302.879 234.286 301.911 234.286 300.718C234.286 299.525 235.253 298.557 236.446 298.557C237.64 298.557 238.607 299.525 238.607 300.718Z" fill="white" fill-opacity="0.11"/>
<path d="M251.571 300.718C251.571 301.911 250.604 302.879 249.411 302.879C248.217 302.879 247.25 301.911 247.25 300.718C247.25 299.525 248.217 298.557 249.411 298.557C250.604 298.557 251.571 299.525 251.571 300.718Z" fill="white" fill-opacity="0.11"/>
<path d="M264.536 300.718C264.536 301.911 263.568 302.879 262.375 302.879C261.182 302.879 260.214 301.911 260.214 300.718C260.214 299.525 261.182 298.557 262.375 298.557C263.568 298.557 264.536 299.525 264.536 300.718Z" fill="white" fill-opacity="0.11"/>
<path d="M277.5 300.718C277.5 301.911 276.533 302.879 275.339 302.879C274.146 302.879 273.179 301.911 273.179 300.718C273.179 299.525 274.146 298.557 275.339 298.557C276.533 298.557 277.5 299.525 277.5 300.718Z" fill="white" fill-opacity="0.11"/>
<path d="M173.786 313.682C173.786 314.876 172.818 315.843 171.625 315.843C170.432 315.843 169.464 314.876 169.464 313.682C169.464 312.489 170.432 311.521 171.625 311.521C172.818 311.521 173.786 312.489 173.786 313.682Z" fill="white" fill-opacity="0.11"/>
<path d="M186.75 313.682C186.75 314.876 185.783 315.843 184.589 315.843C183.396 315.843 182.429 314.876 182.429 313.682C182.429 312.489 183.396 311.521 184.589 311.521C185.783 311.521 186.75 312.489 186.75 313.682Z" fill="white" fill-opacity="0.11"/>
<path d="M199.714 313.682C199.714 314.876 198.747 315.843 197.554 315.843C196.36 315.843 195.393 314.876 195.393 313.682C195.393 312.489 196.36 311.521 197.554 311.521C198.747 311.521 199.714 312.489 199.714 313.682Z" fill="white" fill-opacity="0.11"/>
<path d="M212.679 313.682C212.679 314.876 211.711 315.843 210.518 315.843C209.325 315.843 208.357 314.876 208.357 313.682C208.357 312.489 209.325 311.521 210.518 311.521C211.711 311.521 212.679 312.489 212.679 313.682Z" fill="white" fill-opacity="0.11"/>
<path d="M225.643 313.682C225.643 314.876 224.675 315.843 223.482 315.843C222.289 315.843 221.321 314.876 221.321 313.682C221.321 312.489 222.289 311.521 223.482 311.521C224.675 311.521 225.643 312.489 225.643 313.682Z" fill="white" fill-opacity="0.11"/>
<path d="M238.607 313.682C238.607 314.876 237.64 315.843 236.446 315.843C235.253 315.843 234.286 314.876 234.286 313.682C234.286 312.489 235.253 311.521 236.446 311.521C237.64 311.521 238.607 312.489 238.607 313.682Z" fill="white" fill-opacity="0.11"/>
<path d="M251.571 313.682C251.571 314.876 250.604 315.843 249.411 315.843C248.217 315.843 247.25 314.876 247.25 313.682C247.25 312.489 248.217 311.521 249.411 311.521C250.604 311.521 251.571 312.489 251.571 313.682Z" fill="white" fill-opacity="0.11"/>
<path d="M264.536 313.682C264.536 314.876 263.568 315.843 262.375 315.843C261.182 315.843 260.214 314.876 260.214 313.682C260.214 312.489 261.182 311.521 262.375 311.521C263.568 311.521 264.536 312.489 264.536 313.682Z" fill="white" fill-opacity="0.11"/>
<path d="M186.75 326.646C186.75 327.84 185.783 328.807 184.589 328.807C183.396 328.807 182.429 327.84 182.429 326.646C182.429 325.453 183.396 324.486 184.589 324.486C185.783 324.486 186.75 325.453 186.75 326.646Z" fill="white" fill-opacity="0.11"/>
<path d="M199.714 326.646C199.714 327.84 198.747 328.807 197.554 328.807C196.36 328.807 195.393 327.84 195.393 326.646C195.393 325.453 196.36 324.486 197.554 324.486C198.747 324.486 199.714 325.453 199.714 326.646Z" fill="white" fill-opacity="0.11"/>
<path d="M212.679 326.646C212.679 327.84 211.711 328.807 210.518 328.807C209.325 328.807 208.357 327.84 208.357 326.646C208.357 325.453 209.325 324.486 210.518 324.486C211.711 324.486 212.679 325.453 212.679 326.646Z" fill="white" fill-opacity="0.11"/>
<path d="M225.643 326.646C225.643 327.84 224.675 328.807 223.482 328.807C222.289 328.807 221.321 327.84 221.321 326.646C221.321 325.453 222.289 324.486 223.482 324.486C224.675 324.486 225.643 325.453 225.643 326.646Z" fill="white" fill-opacity="0.11"/>
<path d="M238.607 326.646C238.607 327.84 237.64 328.807 236.446 328.807C235.253 328.807 234.286 327.84 234.286 326.646C234.286 325.453 235.253 324.486 236.446 324.486C237.64 324.486 238.607 325.453 238.607 326.646Z" fill="white" fill-opacity="0.11"/>
<path d="M251.571 326.646C251.571 327.84 250.604 328.807 249.411 328.807C248.217 328.807 247.25 327.84 247.25 326.646C247.25 325.453 248.217 324.486 249.411 324.486C250.604 324.486 251.571 325.453 251.571 326.646Z" fill="white" fill-opacity="0.11"/>
<path d="M199.714 339.611C199.714 340.804 198.747 341.771 197.554 341.771C196.36 341.771 195.393 340.804 195.393 339.611C195.393 338.417 196.36 337.45 197.554 337.45C198.747 337.45 199.714 338.417 199.714 339.611Z" fill="white" fill-opacity="0.11"/>
<path d="M212.679 339.611C212.679 340.804 211.711 341.771 210.518 341.771C209.325 341.771 208.357 340.804 208.357 339.611C208.357 338.417 209.325 337.45 210.518 337.45C211.711 337.45 212.679 338.417 212.679 339.611Z" fill="white" fill-opacity="0.11"/>
<path d="M225.643 339.611C225.643 340.804 224.675 341.771 223.482 341.771C222.289 341.771 221.321 340.804 221.321 339.611C221.321 338.417 222.289 337.45 223.482 337.45C224.675 337.45 225.643 338.417 225.643 339.611Z" fill="white" fill-opacity="0.11"/>
<path d="M238.607 339.611C238.607 340.804 237.64 341.771 236.446 341.771C235.253 341.771 234.286 340.804 234.286 339.611C234.286 338.417 235.253 337.45 236.446 337.45C237.64 337.45 238.607 338.417 238.607 339.611Z" fill="white" fill-opacity="0.11"/>
<path d="M80.499 -13.2285C80.6448 -2.76885 86.1845 26.5133 80.4989 32.7715C74.8132 39.0298 43.8562 22.2496 36.9459 28.2453C30.0211 34.2264 24.6366 62.6843 18.499 68.2716C12.3615 73.8442 5.45621 74.0315 -4.50095 75.2715L-4.50095 -13.2285L80.499 -13.2285Z" fill="#B989D3"/>
</g>
</svg>
