<svg width="1432" height="690" viewBox="0 0 1432 690" fill="none" xmlns="http://www.w3.org/2000/svg">
<mask id="mask0_363_800" style="mask-type:alpha" maskUnits="userSpaceOnUse" x="0" y="0" width="1432" height="690">
<rect width="1432" height="690" fill="#142339"/>
</mask>
<g mask="url(#mask0_363_800)">
<rect x="665" y="-7.09521" width="30.9524" height="30.9524" stroke="white" stroke-opacity="0.06" stroke-width="0.619048"/>
<rect x="695.953" y="-7.09521" width="30.9524" height="30.9524" stroke="white" stroke-opacity="0.06" stroke-width="0.619048"/>
<rect x="726.906" y="-7.09521" width="30.9524" height="30.9524" stroke="white" stroke-opacity="0.06" stroke-width="0.619048"/>
<rect x="757.855" y="-7.09521" width="30.9524" height="30.9524" stroke="white" stroke-opacity="0.06" stroke-width="0.619048"/>
<rect x="788.809" y="-7.09521" width="30.9524" height="30.9524" stroke="white" stroke-opacity="0.06" stroke-width="0.619048"/>
<rect x="819.762" y="-7.09521" width="30.9524" height="30.9524" stroke="white" stroke-opacity="0.06" stroke-width="0.619048"/>
<rect x="850.715" y="-7.09521" width="30.9524" height="30.9524" stroke="white" stroke-opacity="0.06" stroke-width="0.619048"/>
<rect x="881.668" y="-7.09521" width="30.9524" height="30.9524" stroke="white" stroke-opacity="0.06" stroke-width="0.619048"/>
<rect x="912.617" y="-7.09521" width="30.9524" height="30.9524" stroke="white" stroke-opacity="0.06" stroke-width="0.619048"/>
<rect x="943.57" y="-7.09521" width="30.9524" height="30.9524" stroke="white" stroke-opacity="0.06" stroke-width="0.619048"/>
<rect x="974.523" y="-7.09521" width="30.9524" height="30.9524" stroke="white" stroke-opacity="0.06" stroke-width="0.619048"/>
<rect x="1005.48" y="-7.09521" width="30.9524" height="30.9524" stroke="white" stroke-opacity="0.06" stroke-width="0.619048"/>
<rect x="1036.43" y="-7.09521" width="30.9524" height="30.9524" stroke="white" stroke-opacity="0.06" stroke-width="0.619048"/>
<rect x="1067.38" y="-7.09521" width="30.9524" height="30.9524" stroke="white" stroke-opacity="0.06" stroke-width="0.619048"/>
<rect x="1098.33" y="-7.09521" width="30.9524" height="30.9524" stroke="white" stroke-opacity="0.06" stroke-width="0.619048"/>
<rect x="1129.29" y="-7.09521" width="30.9524" height="30.9524" stroke="white" stroke-opacity="0.06" stroke-width="0.619048"/>
<rect x="1160.24" y="-7.09521" width="30.9524" height="30.9524" fill="white" fill-opacity="0.05" stroke="white" stroke-opacity="0.06" stroke-width="0.619048"/>
<rect x="1191.19" y="-7.09521" width="30.9524" height="30.9524" stroke="white" stroke-opacity="0.06" stroke-width="0.619048"/>
<rect x="1222.14" y="-7.09521" width="30.9524" height="30.9524" stroke="white" stroke-opacity="0.06" stroke-width="0.619048"/>
<rect x="1253.09" y="-7.09521" width="30.9524" height="30.9524" stroke="white" stroke-opacity="0.06" stroke-width="0.619048"/>
<rect x="1284.05" y="-7.09521" width="30.9524" height="30.9524" stroke="white" stroke-opacity="0.06" stroke-width="0.619048"/>
<rect x="665" y="23.8574" width="30.9524" height="30.9524" stroke="white" stroke-opacity="0.06" stroke-width="0.619048"/>
<rect x="695.953" y="23.8574" width="30.9524" height="30.9524" stroke="white" stroke-opacity="0.06" stroke-width="0.619048"/>
<rect x="726.906" y="23.8574" width="30.9524" height="30.9524" stroke="white" stroke-opacity="0.06" stroke-width="0.619048"/>
<rect x="757.855" y="23.8574" width="30.9524" height="30.9524" stroke="white" stroke-opacity="0.06" stroke-width="0.619048"/>
<rect x="788.809" y="23.8574" width="30.9524" height="30.9524" stroke="white" stroke-opacity="0.06" stroke-width="0.619048"/>
<rect x="819.762" y="23.8574" width="30.9524" height="30.9524" stroke="white" stroke-opacity="0.06" stroke-width="0.619048"/>
<rect x="850.715" y="23.8574" width="30.9524" height="30.9524" stroke="white" stroke-opacity="0.06" stroke-width="0.619048"/>
<rect x="881.668" y="23.8574" width="30.9524" height="30.9524" stroke="white" stroke-opacity="0.06" stroke-width="0.619048"/>
<rect x="912.617" y="23.8574" width="30.9524" height="30.9524" stroke="white" stroke-opacity="0.06" stroke-width="0.619048"/>
<rect x="943.57" y="23.8574" width="30.9524" height="30.9524" stroke="white" stroke-opacity="0.06" stroke-width="0.619048"/>
<rect x="974.523" y="23.8574" width="30.9524" height="30.9524" stroke="white" stroke-opacity="0.06" stroke-width="0.619048"/>
<rect x="1005.48" y="23.8574" width="30.9524" height="30.9524" stroke="white" stroke-opacity="0.06" stroke-width="0.619048"/>
<rect x="1036.43" y="23.8574" width="30.9524" height="30.9524" stroke="white" stroke-opacity="0.06" stroke-width="0.619048"/>
<rect x="1067.38" y="23.8574" width="30.9524" height="30.9524" stroke="white" stroke-opacity="0.06" stroke-width="0.619048"/>
<rect x="1098.33" y="23.8574" width="30.9524" height="30.9524" stroke="white" stroke-opacity="0.06" stroke-width="0.619048"/>
<rect x="1129.29" y="23.8574" width="30.9524" height="30.9524" stroke="white" stroke-opacity="0.06" stroke-width="0.619048"/>
<rect x="1160.24" y="23.8574" width="30.9524" height="30.9524" stroke="white" stroke-opacity="0.06" stroke-width="0.619048"/>
<rect x="1191.19" y="23.8574" width="30.9524" height="30.9524" stroke="white" stroke-opacity="0.06" stroke-width="0.619048"/>
<rect x="1222.14" y="23.8574" width="30.9524" height="30.9524" stroke="white" stroke-opacity="0.06" stroke-width="0.619048"/>
<rect x="1253.09" y="23.8574" width="30.9524" height="30.9524" stroke="white" stroke-opacity="0.06" stroke-width="0.619048"/>
<rect x="1284.05" y="23.8574" width="30.9524" height="30.9524" stroke="white" stroke-opacity="0.06" stroke-width="0.619048"/>
<rect x="665" y="54.8096" width="30.9524" height="30.9524" stroke="white" stroke-opacity="0.06" stroke-width="0.619048"/>
<rect x="695.953" y="54.8096" width="30.9524" height="30.9524" stroke="white" stroke-opacity="0.06" stroke-width="0.619048"/>
<rect x="726.906" y="54.8096" width="30.9524" height="30.9524" stroke="white" stroke-opacity="0.06" stroke-width="0.619048"/>
<rect x="757.855" y="54.8096" width="30.9524" height="30.9524" fill="white" fill-opacity="0.05" stroke="white" stroke-opacity="0.06" stroke-width="0.619048"/>
<rect x="788.809" y="54.8096" width="30.9524" height="30.9524" stroke="white" stroke-opacity="0.06" stroke-width="0.619048"/>
<rect x="819.762" y="54.8096" width="30.9524" height="30.9524" stroke="white" stroke-opacity="0.06" stroke-width="0.619048"/>
<rect x="850.715" y="54.8096" width="30.9524" height="30.9524" stroke="white" stroke-opacity="0.06" stroke-width="0.619048"/>
<rect x="881.668" y="54.8096" width="30.9524" height="30.9524" stroke="white" stroke-opacity="0.06" stroke-width="0.619048"/>
<rect x="912.617" y="54.8096" width="30.9524" height="30.9524" stroke="white" stroke-opacity="0.06" stroke-width="0.619048"/>
<rect x="943.57" y="54.8096" width="30.9524" height="30.9524" stroke="white" stroke-opacity="0.06" stroke-width="0.619048"/>
<rect x="974.523" y="54.8096" width="30.9524" height="30.9524" stroke="white" stroke-opacity="0.06" stroke-width="0.619048"/>
<rect x="1005.48" y="54.8096" width="30.9524" height="30.9524" stroke="white" stroke-opacity="0.06" stroke-width="0.619048"/>
<rect x="1036.43" y="54.8096" width="30.9524" height="30.9524" fill="white" fill-opacity="0.05" stroke="white" stroke-opacity="0.06" stroke-width="0.619048"/>
<rect x="1067.38" y="54.8096" width="30.9524" height="30.9524" stroke="white" stroke-opacity="0.06" stroke-width="0.619048"/>
<rect x="1098.33" y="54.8096" width="30.9524" height="30.9524" stroke="white" stroke-opacity="0.06" stroke-width="0.619048"/>
<rect x="1129.29" y="54.8096" width="30.9524" height="30.9524" stroke="white" stroke-opacity="0.06" stroke-width="0.619048"/>
<rect x="1160.24" y="54.8096" width="30.9524" height="30.9524" stroke="white" stroke-opacity="0.06" stroke-width="0.619048"/>
<rect x="1191.19" y="54.8096" width="30.9524" height="30.9524" stroke="white" stroke-opacity="0.06" stroke-width="0.619048"/>
<rect x="1222.14" y="54.8096" width="30.9524" height="30.9524" stroke="white" stroke-opacity="0.06" stroke-width="0.619048"/>
<rect x="1253.09" y="54.8096" width="30.9524" height="30.9524" stroke="white" stroke-opacity="0.06" stroke-width="0.619048"/>
<rect x="1284.05" y="54.8096" width="30.9524" height="30.9524" stroke="white" stroke-opacity="0.06" stroke-width="0.619048"/>
<rect x="665" y="85.7622" width="30.9524" height="30.9524" stroke="white" stroke-opacity="0.06" stroke-width="0.619048"/>
<rect x="695.953" y="85.7622" width="30.9524" height="30.9524" stroke="white" stroke-opacity="0.06" stroke-width="0.619048"/>
<rect x="726.906" y="85.7622" width="30.9524" height="30.9524" stroke="white" stroke-opacity="0.06" stroke-width="0.619048"/>
<rect x="757.855" y="85.7622" width="30.9524" height="30.9524" stroke="white" stroke-opacity="0.06" stroke-width="0.619048"/>
<rect x="788.809" y="85.7622" width="30.9524" height="30.9524" stroke="white" stroke-opacity="0.06" stroke-width="0.619048"/>
<rect x="819.762" y="85.7622" width="30.9524" height="30.9524" stroke="white" stroke-opacity="0.06" stroke-width="0.619048"/>
<rect x="850.715" y="85.7622" width="30.9524" height="30.9524" stroke="white" stroke-opacity="0.06" stroke-width="0.619048"/>
<rect x="881.668" y="85.7622" width="30.9524" height="30.9524" stroke="white" stroke-opacity="0.06" stroke-width="0.619048"/>
<rect x="912.617" y="85.7622" width="30.9524" height="30.9524" stroke="white" stroke-opacity="0.06" stroke-width="0.619048"/>
<rect x="943.57" y="85.7622" width="30.9524" height="30.9524" stroke="white" stroke-opacity="0.06" stroke-width="0.619048"/>
<rect x="974.523" y="85.7622" width="30.9524" height="30.9524" stroke="white" stroke-opacity="0.06" stroke-width="0.619048"/>
<rect x="1005.48" y="85.7622" width="30.9524" height="30.9524" stroke="white" stroke-opacity="0.06" stroke-width="0.619048"/>
<rect x="1036.43" y="85.7622" width="30.9524" height="30.9524" stroke="white" stroke-opacity="0.06" stroke-width="0.619048"/>
<rect x="1067.38" y="85.7622" width="30.9524" height="30.9524" stroke="white" stroke-opacity="0.06" stroke-width="0.619048"/>
<rect x="1098.33" y="85.7622" width="30.9524" height="30.9524" stroke="white" stroke-opacity="0.06" stroke-width="0.619048"/>
<rect x="1129.29" y="85.7622" width="30.9524" height="30.9524" stroke="white" stroke-opacity="0.06" stroke-width="0.619048"/>
<rect x="1160.24" y="85.7622" width="30.9524" height="30.9524" stroke="white" stroke-opacity="0.06" stroke-width="0.619048"/>
<rect x="1191.19" y="85.7622" width="30.9524" height="30.9524" stroke="white" stroke-opacity="0.06" stroke-width="0.619048"/>
<rect x="1222.14" y="85.7622" width="30.9524" height="30.9524" fill="white" fill-opacity="0.05" stroke="white" stroke-opacity="0.06" stroke-width="0.619048"/>
<rect x="1253.09" y="85.7622" width="30.9524" height="30.9524" stroke="white" stroke-opacity="0.06" stroke-width="0.619048"/>
<rect x="1284.05" y="85.7622" width="30.9524" height="30.9524" stroke="white" stroke-opacity="0.06" stroke-width="0.619048"/>
<rect x="665" y="116.715" width="30.9524" height="30.9524" stroke="white" stroke-opacity="0.06" stroke-width="0.619048"/>
<rect x="695.953" y="116.715" width="30.9524" height="30.9524" stroke="white" stroke-opacity="0.06" stroke-width="0.619048"/>
<rect x="726.906" y="116.715" width="30.9524" height="30.9524" stroke="white" stroke-opacity="0.06" stroke-width="0.619048"/>
<rect x="757.855" y="116.715" width="30.9524" height="30.9524" stroke="white" stroke-opacity="0.06" stroke-width="0.619048"/>
<rect x="788.809" y="116.715" width="30.9524" height="30.9524" stroke="white" stroke-opacity="0.06" stroke-width="0.619048"/>
<rect x="819.762" y="116.715" width="30.9524" height="30.9524" stroke="white" stroke-opacity="0.06" stroke-width="0.619048"/>
<rect x="850.715" y="116.715" width="30.9524" height="30.9524" stroke="white" stroke-opacity="0.06" stroke-width="0.619048"/>
<rect x="881.668" y="116.715" width="30.9524" height="30.9524" stroke="white" stroke-opacity="0.06" stroke-width="0.619048"/>
<rect x="912.617" y="116.715" width="30.9524" height="30.9524" stroke="white" stroke-opacity="0.06" stroke-width="0.619048"/>
<rect x="943.57" y="116.715" width="30.9524" height="30.9524" stroke="white" stroke-opacity="0.06" stroke-width="0.619048"/>
<rect x="974.523" y="116.715" width="30.9524" height="30.9524" stroke="white" stroke-opacity="0.06" stroke-width="0.619048"/>
<rect x="1005.48" y="116.715" width="30.9524" height="30.9524" stroke="white" stroke-opacity="0.06" stroke-width="0.619048"/>
<rect x="1036.43" y="116.715" width="30.9524" height="30.9524" stroke="white" stroke-opacity="0.06" stroke-width="0.619048"/>
<rect x="1067.38" y="116.715" width="30.9524" height="30.9524" stroke="white" stroke-opacity="0.06" stroke-width="0.619048"/>
<rect x="1098.33" y="116.715" width="30.9524" height="30.9524" stroke="white" stroke-opacity="0.06" stroke-width="0.619048"/>
<rect x="1129.29" y="116.715" width="30.9524" height="30.9524" stroke="white" stroke-opacity="0.06" stroke-width="0.619048"/>
<rect x="1160.24" y="116.715" width="30.9524" height="30.9524" stroke="white" stroke-opacity="0.06" stroke-width="0.619048"/>
<rect x="1191.19" y="116.715" width="30.9524" height="30.9524" stroke="white" stroke-opacity="0.06" stroke-width="0.619048"/>
<rect x="1222.14" y="116.715" width="30.9524" height="30.9524" stroke="white" stroke-opacity="0.06" stroke-width="0.619048"/>
<rect x="1253.09" y="116.715" width="30.9524" height="30.9524" stroke="white" stroke-opacity="0.06" stroke-width="0.619048"/>
<rect x="1284.05" y="116.715" width="30.9524" height="30.9524" stroke="white" stroke-opacity="0.06" stroke-width="0.619048"/>
<rect x="665" y="147.667" width="30.9524" height="30.9524" stroke="white" stroke-opacity="0.06" stroke-width="0.619048"/>
<rect x="695.953" y="147.667" width="30.9524" height="30.9524" stroke="white" stroke-opacity="0.06" stroke-width="0.619048"/>
<rect x="726.906" y="147.667" width="30.9524" height="30.9524" stroke="white" stroke-opacity="0.06" stroke-width="0.619048"/>
<rect x="757.855" y="147.667" width="30.9524" height="30.9524" stroke="white" stroke-opacity="0.06" stroke-width="0.619048"/>
<rect x="788.809" y="147.667" width="30.9524" height="30.9524" stroke="white" stroke-opacity="0.06" stroke-width="0.619048"/>
<rect x="819.762" y="147.667" width="30.9524" height="30.9524" stroke="white" stroke-opacity="0.06" stroke-width="0.619048"/>
<rect x="850.715" y="147.667" width="30.9524" height="30.9524" stroke="white" stroke-opacity="0.06" stroke-width="0.619048"/>
<rect x="881.668" y="147.667" width="30.9524" height="30.9524" stroke="white" stroke-opacity="0.06" stroke-width="0.619048"/>
<rect x="912.617" y="147.667" width="30.9524" height="30.9524" fill="white" fill-opacity="0.05" stroke="white" stroke-opacity="0.06" stroke-width="0.619048"/>
<rect x="943.57" y="147.667" width="30.9524" height="30.9524" stroke="white" stroke-opacity="0.06" stroke-width="0.619048"/>
<rect x="974.523" y="147.667" width="30.9524" height="30.9524" stroke="white" stroke-opacity="0.06" stroke-width="0.619048"/>
<rect x="1005.48" y="147.667" width="30.9524" height="30.9524" stroke="white" stroke-opacity="0.06" stroke-width="0.619048"/>
<rect x="1036.43" y="147.667" width="30.9524" height="30.9524" stroke="white" stroke-opacity="0.06" stroke-width="0.619048"/>
<rect x="1067.38" y="147.667" width="30.9524" height="30.9524" stroke="white" stroke-opacity="0.06" stroke-width="0.619048"/>
<rect x="1098.33" y="147.667" width="30.9524" height="30.9524" stroke="white" stroke-opacity="0.06" stroke-width="0.619048"/>
<rect x="1129.29" y="147.667" width="30.9524" height="30.9524" stroke="white" stroke-opacity="0.06" stroke-width="0.619048"/>
<rect x="1160.24" y="147.667" width="30.9524" height="30.9524" stroke="white" stroke-opacity="0.06" stroke-width="0.619048"/>
<rect x="1191.19" y="147.667" width="30.9524" height="30.9524" stroke="white" stroke-opacity="0.06" stroke-width="0.619048"/>
<rect x="1222.14" y="147.667" width="30.9524" height="30.9524" stroke="white" stroke-opacity="0.06" stroke-width="0.619048"/>
<rect x="1253.09" y="147.667" width="30.9524" height="30.9524" stroke="white" stroke-opacity="0.06" stroke-width="0.619048"/>
<rect x="1284.05" y="147.667" width="30.9524" height="30.9524" stroke="white" stroke-opacity="0.06" stroke-width="0.619048"/>
<rect x="665" y="178.62" width="30.9524" height="30.9524" stroke="white" stroke-opacity="0.06" stroke-width="0.619048"/>
<rect x="695.953" y="178.62" width="30.9524" height="30.9524" stroke="white" stroke-opacity="0.06" stroke-width="0.619048"/>
<rect x="726.906" y="178.62" width="30.9524" height="30.9524" stroke="white" stroke-opacity="0.06" stroke-width="0.619048"/>
<rect x="757.855" y="178.62" width="30.9524" height="30.9524" stroke="white" stroke-opacity="0.06" stroke-width="0.619048"/>
<rect x="788.809" y="178.62" width="30.9524" height="30.9524" fill="white" fill-opacity="0.05" stroke="white" stroke-opacity="0.06" stroke-width="0.619048"/>
<rect x="819.762" y="178.62" width="30.9524" height="30.9524" stroke="white" stroke-opacity="0.06" stroke-width="0.619048"/>
<rect x="850.715" y="178.62" width="30.9524" height="30.9524" stroke="white" stroke-opacity="0.06" stroke-width="0.619048"/>
<rect x="881.668" y="178.62" width="30.9524" height="30.9524" stroke="white" stroke-opacity="0.06" stroke-width="0.619048"/>
<rect x="912.617" y="178.62" width="30.9524" height="30.9524" stroke="white" stroke-opacity="0.06" stroke-width="0.619048"/>
<rect x="943.57" y="178.62" width="30.9524" height="30.9524" stroke="white" stroke-opacity="0.06" stroke-width="0.619048"/>
<rect x="974.523" y="178.62" width="30.9524" height="30.9524" stroke="white" stroke-opacity="0.06" stroke-width="0.619048"/>
<rect x="1005.48" y="178.62" width="30.9524" height="30.9524" stroke="white" stroke-opacity="0.06" stroke-width="0.619048"/>
<rect x="1036.43" y="178.62" width="30.9524" height="30.9524" stroke="white" stroke-opacity="0.06" stroke-width="0.619048"/>
<rect x="1067.38" y="178.62" width="30.9524" height="30.9524" stroke="white" stroke-opacity="0.06" stroke-width="0.619048"/>
<rect x="1098.33" y="178.62" width="30.9524" height="30.9524" stroke="white" stroke-opacity="0.06" stroke-width="0.619048"/>
<rect x="1129.29" y="178.62" width="30.9524" height="30.9524" stroke="white" stroke-opacity="0.06" stroke-width="0.619048"/>
<rect x="1160.24" y="178.62" width="30.9524" height="30.9524" stroke="white" stroke-opacity="0.06" stroke-width="0.619048"/>
<rect x="1191.19" y="178.62" width="30.9524" height="30.9524" stroke="white" stroke-opacity="0.06" stroke-width="0.619048"/>
<rect x="1222.14" y="178.62" width="30.9524" height="30.9524" stroke="white" stroke-opacity="0.06" stroke-width="0.619048"/>
<rect x="1253.09" y="178.62" width="30.9524" height="30.9524" stroke="white" stroke-opacity="0.06" stroke-width="0.619048"/>
<rect x="1284.05" y="178.62" width="30.9524" height="30.9524" stroke="white" stroke-opacity="0.06" stroke-width="0.619048"/>
<rect x="665" y="209.571" width="30.9524" height="30.9524" stroke="white" stroke-opacity="0.06" stroke-width="0.619048"/>
<rect x="695.953" y="209.571" width="30.9524" height="30.9524" stroke="white" stroke-opacity="0.06" stroke-width="0.619048"/>
<rect x="726.906" y="209.571" width="30.9524" height="30.9524" stroke="white" stroke-opacity="0.06" stroke-width="0.619048"/>
<rect x="757.855" y="209.571" width="30.9524" height="30.9524" stroke="white" stroke-opacity="0.06" stroke-width="0.619048"/>
<rect x="788.809" y="209.571" width="30.9524" height="30.9524" stroke="white" stroke-opacity="0.06" stroke-width="0.619048"/>
<rect x="819.762" y="209.571" width="30.9524" height="30.9524" stroke="white" stroke-opacity="0.06" stroke-width="0.619048"/>
<rect x="850.715" y="209.571" width="30.9524" height="30.9524" stroke="white" stroke-opacity="0.06" stroke-width="0.619048"/>
<rect x="881.668" y="209.571" width="30.9524" height="30.9524" stroke="white" stroke-opacity="0.06" stroke-width="0.619048"/>
<rect x="912.617" y="209.571" width="30.9524" height="30.9524" stroke="white" stroke-opacity="0.06" stroke-width="0.619048"/>
<rect x="943.57" y="209.571" width="30.9524" height="30.9524" stroke="white" stroke-opacity="0.06" stroke-width="0.619048"/>
<rect x="974.523" y="209.571" width="30.9524" height="30.9524" stroke="white" stroke-opacity="0.06" stroke-width="0.619048"/>
<rect x="1005.48" y="209.571" width="30.9524" height="30.9524" stroke="white" stroke-opacity="0.06" stroke-width="0.619048"/>
<rect x="1036.43" y="209.571" width="30.9524" height="30.9524" stroke="white" stroke-opacity="0.06" stroke-width="0.619048"/>
<rect x="1067.38" y="209.571" width="30.9524" height="30.9524" stroke="white" stroke-opacity="0.06" stroke-width="0.619048"/>
<rect x="1098.33" y="209.571" width="30.9524" height="30.9524" stroke="white" stroke-opacity="0.06" stroke-width="0.619048"/>
<rect x="1129.29" y="209.571" width="30.9524" height="30.9524" stroke="white" stroke-opacity="0.06" stroke-width="0.619048"/>
<rect x="1160.24" y="209.571" width="30.9524" height="30.9524" stroke="white" stroke-opacity="0.06" stroke-width="0.619048"/>
<rect x="1191.19" y="209.571" width="30.9524" height="30.9524" stroke="white" stroke-opacity="0.06" stroke-width="0.619048"/>
<rect x="1222.14" y="209.571" width="30.9524" height="30.9524" stroke="white" stroke-opacity="0.06" stroke-width="0.619048"/>
<rect x="1253.09" y="209.571" width="30.9524" height="30.9524" stroke="white" stroke-opacity="0.06" stroke-width="0.619048"/>
<rect x="1284.05" y="209.571" width="30.9524" height="30.9524" stroke="white" stroke-opacity="0.06" stroke-width="0.619048"/>
<rect x="665" y="240.524" width="30.9524" height="30.9524" stroke="white" stroke-opacity="0.06" stroke-width="0.619048"/>
<rect x="695.953" y="240.524" width="30.9524" height="30.9524" stroke="white" stroke-opacity="0.06" stroke-width="0.619048"/>
<rect x="726.906" y="240.524" width="30.9524" height="30.9524" stroke="white" stroke-opacity="0.06" stroke-width="0.619048"/>
<rect x="757.855" y="240.524" width="30.9524" height="30.9524" stroke="white" stroke-opacity="0.06" stroke-width="0.619048"/>
<rect x="788.809" y="240.524" width="30.9524" height="30.9524" stroke="white" stroke-opacity="0.06" stroke-width="0.619048"/>
<rect x="819.762" y="240.524" width="30.9524" height="30.9524" stroke="white" stroke-opacity="0.06" stroke-width="0.619048"/>
<rect x="850.715" y="240.524" width="30.9524" height="30.9524" stroke="white" stroke-opacity="0.06" stroke-width="0.619048"/>
<rect x="881.668" y="240.524" width="30.9524" height="30.9524" stroke="white" stroke-opacity="0.06" stroke-width="0.619048"/>
<rect x="912.617" y="240.524" width="30.9524" height="30.9524" stroke="white" stroke-opacity="0.06" stroke-width="0.619048"/>
<rect x="943.57" y="240.524" width="30.9524" height="30.9524" stroke="white" stroke-opacity="0.06" stroke-width="0.619048"/>
<rect x="974.523" y="240.524" width="30.9524" height="30.9524" stroke="white" stroke-opacity="0.06" stroke-width="0.619048"/>
<rect x="1005.48" y="240.524" width="30.9524" height="30.9524" stroke="white" stroke-opacity="0.06" stroke-width="0.619048"/>
<rect x="1036.43" y="240.524" width="30.9524" height="30.9524" stroke="white" stroke-opacity="0.06" stroke-width="0.619048"/>
<rect x="1067.38" y="240.524" width="30.9524" height="30.9524" stroke="white" stroke-opacity="0.06" stroke-width="0.619048"/>
<rect x="1098.33" y="240.524" width="30.9524" height="30.9524" stroke="white" stroke-opacity="0.06" stroke-width="0.619048"/>
<rect x="1129.29" y="240.524" width="30.9524" height="30.9524" stroke="white" stroke-opacity="0.06" stroke-width="0.619048"/>
<rect x="1160.24" y="240.524" width="30.9524" height="30.9524" stroke="white" stroke-opacity="0.06" stroke-width="0.619048"/>
<rect x="1191.19" y="240.524" width="30.9524" height="30.9524" stroke="white" stroke-opacity="0.06" stroke-width="0.619048"/>
<rect x="1222.14" y="240.524" width="30.9524" height="30.9524" stroke="white" stroke-opacity="0.06" stroke-width="0.619048"/>
<rect x="1253.09" y="240.524" width="30.9524" height="30.9524" stroke="white" stroke-opacity="0.06" stroke-width="0.619048"/>
<rect x="1284.05" y="240.524" width="30.9524" height="30.9524" stroke="white" stroke-opacity="0.06" stroke-width="0.619048"/>
<rect x="665" y="271.476" width="30.9524" height="30.9524" stroke="white" stroke-opacity="0.06" stroke-width="0.619048"/>
<rect x="695.953" y="271.476" width="30.9524" height="30.9524" stroke="white" stroke-opacity="0.06" stroke-width="0.619048"/>
<rect x="726.906" y="271.476" width="30.9524" height="30.9524" stroke="white" stroke-opacity="0.06" stroke-width="0.619048"/>
<rect x="757.855" y="271.476" width="30.9524" height="30.9524" stroke="white" stroke-opacity="0.06" stroke-width="0.619048"/>
<rect x="788.809" y="271.476" width="30.9524" height="30.9524" stroke="white" stroke-opacity="0.06" stroke-width="0.619048"/>
<rect x="819.762" y="271.476" width="30.9524" height="30.9524" stroke="white" stroke-opacity="0.06" stroke-width="0.619048"/>
<rect x="850.715" y="271.476" width="30.9524" height="30.9524" stroke="white" stroke-opacity="0.06" stroke-width="0.619048"/>
<rect x="881.668" y="271.476" width="30.9524" height="30.9524" stroke="white" stroke-opacity="0.06" stroke-width="0.619048"/>
<rect x="912.617" y="271.476" width="30.9524" height="30.9524" stroke="white" stroke-opacity="0.06" stroke-width="0.619048"/>
<rect x="943.57" y="271.476" width="30.9524" height="30.9524" stroke="white" stroke-opacity="0.06" stroke-width="0.619048"/>
<rect x="974.523" y="271.476" width="30.9524" height="30.9524" stroke="white" stroke-opacity="0.06" stroke-width="0.619048"/>
<rect x="1005.48" y="271.476" width="30.9524" height="30.9524" stroke="white" stroke-opacity="0.06" stroke-width="0.619048"/>
<rect x="1036.43" y="271.476" width="30.9524" height="30.9524" stroke="white" stroke-opacity="0.06" stroke-width="0.619048"/>
<rect x="1067.38" y="271.476" width="30.9524" height="30.9524" stroke="white" stroke-opacity="0.06" stroke-width="0.619048"/>
<rect x="1098.33" y="271.476" width="30.9524" height="30.9524" stroke="white" stroke-opacity="0.06" stroke-width="0.619048"/>
<rect x="1129.29" y="271.476" width="30.9524" height="30.9524" stroke="white" stroke-opacity="0.06" stroke-width="0.619048"/>
<rect x="1160.24" y="271.476" width="30.9524" height="30.9524" stroke="white" stroke-opacity="0.06" stroke-width="0.619048"/>
<rect x="1191.19" y="271.476" width="30.9524" height="30.9524" stroke="white" stroke-opacity="0.06" stroke-width="0.619048"/>
<rect x="1222.14" y="271.476" width="30.9524" height="30.9524" stroke="white" stroke-opacity="0.06" stroke-width="0.619048"/>
<rect x="1253.09" y="271.476" width="30.9524" height="30.9524" stroke="white" stroke-opacity="0.06" stroke-width="0.619048"/>
<rect x="1284.05" y="271.476" width="30.9524" height="30.9524" stroke="white" stroke-opacity="0.06" stroke-width="0.619048"/>
<rect x="665" y="302.429" width="30.9524" height="30.9524" stroke="white" stroke-opacity="0.06" stroke-width="0.619048"/>
<rect x="695.953" y="302.429" width="30.9524" height="30.9524" stroke="white" stroke-opacity="0.06" stroke-width="0.619048"/>
<rect x="726.906" y="302.429" width="30.9524" height="30.9524" stroke="white" stroke-opacity="0.06" stroke-width="0.619048"/>
<rect x="757.855" y="302.429" width="30.9524" height="30.9524" stroke="white" stroke-opacity="0.06" stroke-width="0.619048"/>
<rect x="788.809" y="302.429" width="30.9524" height="30.9524" stroke="white" stroke-opacity="0.06" stroke-width="0.619048"/>
<rect x="819.762" y="302.429" width="30.9524" height="30.9524" stroke="white" stroke-opacity="0.06" stroke-width="0.619048"/>
<rect x="850.715" y="302.429" width="30.9524" height="30.9524" stroke="white" stroke-opacity="0.06" stroke-width="0.619048"/>
<rect x="881.668" y="302.429" width="30.9524" height="30.9524" stroke="white" stroke-opacity="0.06" stroke-width="0.619048"/>
<rect x="912.617" y="302.429" width="30.9524" height="30.9524" stroke="white" stroke-opacity="0.06" stroke-width="0.619048"/>
<rect x="943.57" y="302.429" width="30.9524" height="30.9524" stroke="white" stroke-opacity="0.06" stroke-width="0.619048"/>
<rect x="974.523" y="302.429" width="30.9524" height="30.9524" stroke="white" stroke-opacity="0.06" stroke-width="0.619048"/>
<rect x="1005.48" y="302.429" width="30.9524" height="30.9524" stroke="white" stroke-opacity="0.06" stroke-width="0.619048"/>
<rect x="1036.43" y="302.429" width="30.9524" height="30.9524" stroke="white" stroke-opacity="0.06" stroke-width="0.619048"/>
<rect x="1067.38" y="302.429" width="30.9524" height="30.9524" stroke="white" stroke-opacity="0.06" stroke-width="0.619048"/>
<rect x="1098.33" y="302.429" width="30.9524" height="30.9524" stroke="white" stroke-opacity="0.06" stroke-width="0.619048"/>
<rect x="1129.29" y="302.429" width="30.9524" height="30.9524" stroke="white" stroke-opacity="0.06" stroke-width="0.619048"/>
<rect x="1160.24" y="302.429" width="30.9524" height="30.9524" stroke="white" stroke-opacity="0.06" stroke-width="0.619048"/>
<rect x="1191.19" y="302.429" width="30.9524" height="30.9524" stroke="white" stroke-opacity="0.06" stroke-width="0.619048"/>
<rect x="1222.14" y="302.429" width="30.9524" height="30.9524" stroke="white" stroke-opacity="0.06" stroke-width="0.619048"/>
<rect x="1253.09" y="302.429" width="30.9524" height="30.9524" stroke="white" stroke-opacity="0.06" stroke-width="0.619048"/>
<rect x="1284.05" y="302.429" width="30.9524" height="30.9524" stroke="white" stroke-opacity="0.06" stroke-width="0.619048"/>
<path d="M61.8017 112.958C59.9795 114.78 57.0324 114.78 55.2102 112.958C53.3881 111.136 53.3881 108.189 55.2102 106.367C57.0324 104.544 59.9795 104.544 61.8017 106.367C63.6238 108.189 63.6238 111.136 61.8017 112.958ZM81.5126 126.078C79.6904 124.256 76.7433 124.256 74.9211 126.078C73.099 127.9 73.099 130.847 74.9211 132.67C76.7433 134.492 79.6904 134.492 81.5126 132.67C83.3347 130.847 83.3347 127.9 81.5126 126.078ZM101.223 145.789C99.4013 143.967 96.4542 143.967 94.632 145.789C92.8099 147.612 92.8099 150.559 94.632 152.381C96.4542 154.203 99.4013 154.203 101.223 152.381C103.046 150.559 103.046 147.612 101.223 145.789ZM120.934 165.501C119.112 163.679 116.165 163.679 114.343 165.501C112.521 167.323 112.521 170.27 114.343 172.092C116.165 173.915 119.112 173.915 120.934 172.092C122.757 170.27 122.757 167.323 120.934 165.501ZM140.645 185.212C138.823 183.39 135.876 183.39 134.054 185.212C132.232 187.034 132.232 189.982 134.054 191.804C135.876 193.626 138.823 193.626 140.645 191.804C142.452 189.982 142.452 187.034 140.645 185.212ZM42.0908 126.078C40.2686 124.256 37.3215 124.256 35.4993 126.078C33.6772 127.9 33.6772 130.847 35.4993 132.67C37.3215 134.492 40.2686 134.492 42.0908 132.67C43.9129 130.847 43.9129 127.9 42.0908 126.078ZM61.8017 145.789C59.9795 143.967 57.0324 143.967 55.2102 145.789C53.3881 147.612 53.3881 150.559 55.2102 152.381C57.0324 154.203 59.9795 154.203 61.8017 152.381C63.6238 150.559 63.6238 147.612 61.8017 145.789ZM81.5126 165.501C79.6904 163.679 76.7433 163.679 74.9211 165.501C73.099 167.323 73.099 170.27 74.9211 172.092C76.7433 173.915 79.6904 173.915 81.5126 172.092C83.3347 170.27 83.3347 167.323 81.5126 165.501ZM101.223 185.212C99.4013 183.39 96.4542 183.39 94.632 185.212C92.8099 187.034 92.8099 189.982 94.632 191.804C96.4542 193.626 99.4013 193.626 101.223 191.804C103.046 189.982 103.046 187.034 101.223 185.212ZM120.934 204.924C119.112 203.101 116.165 203.101 114.343 204.924C112.521 206.746 112.521 209.693 114.343 211.515C116.165 213.337 119.112 213.337 120.934 211.515C122.757 209.693 122.757 206.746 120.934 204.924ZM22.3798 145.789C20.5577 143.967 17.6106 143.967 15.7884 145.789C13.9663 147.612 13.9663 150.559 15.7884 152.381C17.6106 154.203 20.5577 154.203 22.3798 152.381C24.202 150.559 24.202 147.612 22.3798 145.789ZM42.0908 165.501C40.2686 163.679 37.3215 163.679 35.4993 165.501C33.6772 167.323 33.6772 170.27 35.4993 172.092C37.3215 173.915 40.2686 173.915 42.0908 172.092C43.9129 170.27 43.9129 167.323 42.0908 165.501ZM61.8017 185.212C59.9795 183.39 57.0324 183.39 55.2102 185.212C53.3881 187.034 53.3881 189.982 55.2102 191.804C57.0324 193.626 59.9795 193.626 61.8017 191.804C63.6238 189.982 63.6238 187.034 61.8017 185.212ZM81.5126 204.924C79.6904 203.101 76.7433 203.101 74.9211 204.924C73.099 206.746 73.099 209.693 74.9211 211.515C76.7433 213.337 79.6904 213.337 81.5126 211.515C83.3347 209.693 83.3347 206.746 81.5126 204.924ZM101.223 224.635C99.4013 222.813 96.4542 222.813 94.632 224.635C92.8099 226.457 92.8099 229.404 94.632 231.226C96.4542 233.049 99.4013 233.049 101.223 231.226C103.046 229.404 103.046 226.441 101.223 224.635ZM2.66894 165.501C0.84679 163.679 -2.10033 163.679 -3.92248 165.501C-5.74463 167.323 -5.74463 170.27 -3.92248 172.092C-2.10033 173.915 0.84679 173.915 2.66894 172.092C4.49109 170.27 4.49109 167.323 2.66894 165.501ZM22.3798 185.212C20.5577 183.39 17.6106 183.39 15.7884 185.212C13.9663 187.034 13.9663 189.982 15.7884 191.804C17.6106 193.626 20.5577 193.626 22.3798 191.804C24.202 189.982 24.202 187.034 22.3798 185.212ZM42.0908 204.924C40.2686 203.101 37.3215 203.101 35.4993 204.924C33.6772 206.746 33.6772 209.693 35.4993 211.515C37.3215 213.337 40.2686 213.337 42.0908 211.515C43.9129 209.693 43.9129 206.746 42.0908 204.924ZM61.8017 224.635C59.9795 222.813 57.0324 222.813 55.2102 224.635C53.3881 226.457 53.3881 229.404 55.2102 231.226C57.0324 233.049 59.9795 233.049 61.8017 231.226C63.6238 229.404 63.6238 226.441 61.8017 224.635ZM81.5126 244.346C79.6904 242.524 76.7433 242.524 74.9211 244.346C73.099 246.168 73.099 249.116 74.9211 250.938C76.7433 252.76 79.6904 252.76 81.5126 250.938C83.3347 249.116 83.3347 246.153 81.5126 244.346ZM-17.042 185.212C-18.8641 183.39 -21.8112 183.39 -23.6334 185.212C-25.4555 187.034 -25.4555 189.982 -23.6334 191.804C-21.8112 193.626 -18.8641 193.626 -17.042 191.804C-15.2198 189.982 -15.2198 187.034 -17.042 185.212ZM2.66894 204.924C0.84679 203.101 -2.10033 203.101 -3.92248 204.924C-5.74463 206.746 -5.74463 209.693 -3.92248 211.515C-2.10033 213.337 0.84679 213.337 2.66894 211.515C4.49109 209.693 4.49109 206.746 2.66894 204.924ZM22.3798 224.635C20.5577 222.813 17.6106 222.813 15.7884 224.635C13.9663 226.457 13.9663 229.404 15.7884 231.226C17.6106 233.049 20.5577 233.049 22.3798 231.226C24.202 229.404 24.202 226.441 22.3798 224.635ZM42.0908 244.346C40.2686 242.524 37.3215 242.524 35.4993 244.346C33.6772 246.168 33.6772 249.116 35.4993 250.938C37.3215 252.76 40.2686 252.76 42.0908 250.938C43.9129 249.116 43.9129 246.153 42.0908 244.346ZM61.8017 264.042C59.9795 262.22 57.0324 262.22 55.2102 264.042C53.3881 265.864 53.3881 268.811 55.2102 270.633C57.0324 272.456 59.9795 272.456 61.8017 270.633C63.6238 268.827 63.6238 265.864 61.8017 264.042Z" fill="#244579"/>
</g>
</svg>
