<svg xmlns="http://www.w3.org/2000/svg" width="512" height="512" viewBox="0 0 512 512" fill="none"><g clip-path="url(#clip0_51_408)"><path d="M467.14 266.225C447.459 257.744 433.698 237.902 433.698 215.101C433.698 192.459 447.459 172.778 467.14 164.137C470.261 162.777 471.861 159.017 471.061 155.736C466.18 137.815 459.06 120.934 450.179 105.253C448.339 101.972 444.259 100.852 440.818 102.212C421.057 109.733 397.695 105.573 381.694 89.5714C365.693 73.5702 361.532 50.2085 369.053 30.447C370.413 26.9268 369.293 22.9265 366.013 21.0863C350.332 12.2857 333.45 5.16515 315.529 0.284784C312.169 -0.595281 308.488 1.00484 307.128 4.20507C298.488 23.8865 278.966 37.4876 256.165 37.4876C233.363 37.4876 213.681 23.8065 205.201 4.20507C203.681 1.08484 200.08 -0.515275 196.72 0.284784C178.799 5.16515 161.918 12.2857 146.236 21.0863C142.956 22.9265 141.836 27.0068 143.196 30.447C150.717 50.2085 146.556 73.5702 130.555 89.5714C114.554 105.573 91.1923 109.733 71.4308 102.212C67.9106 100.852 63.9103 101.972 62.0701 105.253C53.1895 120.934 46.069 137.815 41.1886 155.736C40.3085 159.017 41.9087 162.777 45.1089 164.137C64.7904 172.778 78.5514 192.459 78.5514 215.101C78.5514 237.902 64.7904 257.664 45.1089 266.225C41.9887 267.585 40.3885 271.345 41.1886 274.625C46.069 292.547 53.1895 309.428 62.0701 325.189C63.9103 328.469 67.9906 329.429 71.4308 328.069C91.1923 320.549 114.394 324.709 130.395 340.71C146.396 356.711 150.717 380.073 143.196 399.835C141.836 403.355 142.956 407.355 146.236 409.195C161.918 417.996 178.799 425.116 196.72 429.997C200.08 430.877 203.761 429.357 205.201 426.076C213.681 406.395 233.363 392.794 256.165 392.794C278.966 392.794 298.488 406.475 307.128 426.076C308.488 429.357 312.169 430.797 315.529 429.997C333.45 425.116 350.332 417.996 366.013 409.195C369.293 407.355 370.413 403.275 369.053 399.835C361.532 380.073 365.773 356.711 381.854 340.71C397.855 324.709 421.057 320.549 440.818 328.069C444.339 329.429 448.339 328.469 450.179 325.189C459.06 309.428 466.18 292.467 471.061 274.625C471.861 271.345 470.261 267.585 467.14 266.225ZM256.085 308.948C204.241 308.948 162.238 267.025 162.238 215.261C162.238 163.417 204.161 121.414 256.085 121.414C307.848 121.414 349.772 163.337 349.772 215.261C349.772 266.945 307.768 308.948 256.085 308.948Z" fill="#FFD659"></path><path d="M256.085 369.352C171.039 369.352 101.754 300.227 101.754 215.18C101.754 130.134 170.959 61.0088 256.085 61.0088C341.052 61.0088 410.257 130.134 410.257 215.18C410.257 300.227 341.052 369.352 256.085 369.352ZM256.085 86.0507C184.8 86.0507 126.796 143.975 126.796 215.18C126.796 286.386 184.8 344.31 256.085 344.31C327.291 344.31 385.215 286.386 385.215 215.18C385.215 143.975 327.291 86.0507 256.085 86.0507Z" fill="#F2B725"></path><path opacity="0.15" d="M315.451 0.284706C312.171 -0.515354 308.411 1.08477 307.05 4.12499C298.33 23.8065 278.808 37.4875 256.007 37.4875C233.285 37.4875 213.683 23.7264 205.123 4.04498C203.603 1.00476 199.922 -0.595361 196.562 0.204698C178.721 5.16507 161.76 12.2856 146.078 21.0062C142.798 22.9264 141.678 26.9267 143.038 30.527C150.639 50.3684 146.478 73.5702 130.397 89.6513C114.316 105.573 91.0343 109.733 71.2729 102.292C67.8326 100.932 63.6723 102.052 61.9122 105.172C52.9515 120.854 45.831 137.735 41.0306 155.656C40.0705 158.936 41.7507 162.697 44.8709 164.217C64.5524 172.778 78.3134 192.379 78.3134 215.101C78.3134 237.902 64.5524 257.744 44.8709 266.224C41.6707 267.585 40.0705 271.345 41.0306 274.625C43.1108 282.306 45.671 289.906 48.7112 297.347C94.9546 297.107 138.638 285.826 177.281 266.304C167.68 251.583 162.16 234.142 162.16 215.261C162.16 163.417 204.083 121.494 255.927 121.494C274.728 121.494 292.249 127.014 306.81 136.615C326.492 97.972 337.773 54.2087 338.013 8.04528C330.652 4.92505 323.132 2.44487 315.451 0.284706Z" fill="#FFD659"></path><path d="M373.453 443.038H138.556C138.556 443.038 132.795 367.992 149.757 344.79C162.958 326.629 232.243 309.268 232.243 309.268H279.606C279.606 309.268 348.891 326.629 362.092 344.79C379.134 367.992 373.453 443.038 373.453 443.038Z" fill="#F15954"></path><path d="M279.686 278.146V337.43L256.004 345.111L232.242 337.43V278.146H279.686Z" fill="#F7BD89"></path><path d="M232.325 309.268L213.363 314.548C215.603 333.909 222.884 353.751 237.445 365.592L256.006 345.11C240.325 335.19 235.685 323.269 232.325 309.268Z" fill="#E04E4E"></path><path d="M279.69 309.268L298.651 314.628C296.411 333.989 289.13 353.671 274.569 365.512L256.008 345.11C271.689 335.19 276.329 323.269 279.69 309.268Z" fill="#E04E4E"></path><path d="M334.577 443.037H326.977L330.737 402.954L334.577 443.037Z" fill="#E04E4E"></path><path d="M185.042 443.037H177.441L181.282 402.954L185.042 443.037Z" fill="#E04E4E"></path><path d="M308.088 234.142C308.088 262.865 284.726 314.868 256.004 314.868C227.202 314.868 203.84 262.865 203.84 234.142C203.84 205.34 227.202 181.979 256.004 181.979C284.806 182.059 308.088 205.34 308.088 234.142Z" fill="#FFCC99"></path><path d="M209.363 261.824C208.563 241.983 209.603 223.902 217.764 213.021C245.206 223.262 270.407 219.421 293.449 201.74C292.329 211.341 293.449 219.261 298.09 224.542C299.69 226.382 300.57 228.942 299.53 231.262C296.089 238.943 298.97 250.784 300.65 261.904H308.57C312.971 228.302 319.851 191.099 303.77 186.939C293.129 161.817 270.167 151.976 241.205 158.057C239.765 158.377 238.405 158.697 237.045 159.097C212.323 166.137 196.642 190.539 198.322 216.221C199.282 230.942 201.442 245.183 204.563 259.024L209.363 261.824Z" fill="#213C46"></path><path d="M312.733 260.064C308.572 267.505 302.012 271.745 298.092 269.505C294.171 267.345 294.331 259.504 298.492 252.064C302.652 244.703 309.212 240.383 313.133 242.623C317.053 244.863 316.813 252.704 312.733 260.064Z" fill="#FFCC99"></path><path d="M199.283 260.064C203.443 267.505 210.004 271.745 213.924 269.505C217.845 267.345 217.685 259.504 213.524 252.064C209.364 244.703 202.803 240.383 198.883 242.623C194.963 244.863 195.203 252.704 199.283 260.064Z" fill="#FFCC99"></path><path d="M235.76 512.082H0.942496C0.942496 512.082 -4.81793 437.037 12.1433 413.835C25.3443 395.674 94.6295 378.312 94.6295 378.312H141.993C141.993 378.312 211.278 395.674 224.479 413.835C241.44 437.037 235.76 512.082 235.76 512.082Z" fill="#DBD7D9"></path><path d="M141.992 347.191V406.476L118.311 414.156L94.6289 406.476V347.191H141.992Z" fill="#F7BD89"></path><path d="M94.6294 378.312L75.668 383.593C77.9081 402.954 85.1887 422.796 99.7498 434.637L118.391 414.235C102.63 404.314 97.9896 392.314 94.6294 378.312Z" fill="#EBEBEB"></path><path d="M141.992 378.312L160.954 383.673C158.713 403.034 151.433 422.716 136.872 434.557L118.23 414.155C133.992 404.314 138.632 392.314 141.992 378.312Z" fill="#EBEBEB"></path><path d="M196.874 512.082H189.273L193.114 471.999L196.874 512.082Z" fill="#BFBBBE"></path><path d="M47.3428 512.082H39.7422L43.5825 471.999L47.3428 512.082Z" fill="#BFBBBE"></path><path d="M170.474 303.187C170.474 331.909 147.113 383.913 118.39 383.913C89.5883 383.913 66.2266 331.909 66.2266 303.187C66.2266 274.385 89.5883 251.023 118.39 251.023C147.113 251.103 170.474 274.385 170.474 303.187Z" fill="#FFCC99"></path><path d="M71.6676 330.869C70.8676 311.028 71.9077 292.946 80.0683 282.066C107.51 292.306 132.712 288.466 155.754 270.785C154.634 280.386 155.754 288.306 160.394 293.587C161.994 295.427 162.874 297.987 161.834 300.307C158.394 307.988 161.274 319.828 162.954 330.949H170.875C175.275 297.347 182.156 260.144 166.075 255.984C155.434 230.862 132.472 221.021 103.51 227.102C102.07 227.422 100.71 227.742 99.3497 228.142C74.6279 235.182 58.9467 259.584 60.6268 285.266C61.5869 299.987 63.747 314.228 66.8673 328.069L71.6676 330.869Z" fill="#213C46"></path><path d="M175.041 329.109C170.881 336.55 164.321 340.79 160.4 338.55C156.48 336.39 156.64 328.549 160.8 321.108C164.961 313.748 171.521 309.428 175.441 311.668C179.362 313.908 179.122 321.748 175.041 329.109Z" fill="#FFCC99"></path><path d="M61.6712 329.109C65.8315 336.55 72.392 340.79 76.3123 338.55C80.2326 336.39 80.0726 328.549 75.9123 321.108C71.7519 313.748 65.1915 309.428 61.2712 311.668C57.2709 313.908 57.5109 321.748 61.6712 329.109Z" fill="#FFCC99"></path><path d="M511.061 512.082H276.243C276.243 512.082 270.483 437.037 287.444 413.835C300.645 395.674 369.93 378.312 369.93 378.312H417.294C417.294 378.312 486.579 395.674 499.78 413.835C516.821 437.037 511.061 512.082 511.061 512.082Z" fill="#71C6F0"></path><path d="M417.377 347.19V406.475L393.695 414.155L369.934 406.475V347.19H417.377Z" fill="#F7BD89"></path><path d="M370.012 378.312L351.051 383.593C353.291 402.954 360.571 422.796 375.133 434.637L393.774 414.235C377.933 404.314 373.372 392.314 370.012 378.312Z" fill="#46AAC9"></path><path d="M417.375 378.312L436.336 383.673C434.096 403.034 426.816 422.716 412.255 434.557L393.613 414.155C409.374 404.314 414.015 392.314 417.375 378.312Z" fill="#46AAC9"></path><path d="M472.265 512.082H464.664L468.424 471.999L472.265 512.082Z" fill="#4AADD3"></path><path d="M322.729 512.082H315.129L318.889 471.999L322.729 512.082Z" fill="#4AADD3"></path><path d="M445.779 303.187C445.779 331.909 422.417 383.913 393.695 383.913C364.893 383.913 341.531 331.909 341.531 303.187C341.531 274.385 364.893 251.023 393.695 251.023C422.497 251.103 445.779 274.385 445.779 303.187Z" fill="#FFCC99"></path><path d="M347.05 330.869C346.25 311.028 347.29 292.946 355.451 282.066C382.893 292.306 408.095 288.466 431.137 270.785C430.017 280.386 431.137 288.306 435.777 293.587C437.377 295.427 438.257 297.987 437.217 300.307C433.777 307.988 436.657 319.828 438.337 330.949H446.258C450.658 297.347 457.539 260.144 441.457 255.984C430.817 230.862 407.855 221.021 378.893 227.102C377.453 227.422 376.093 227.742 374.733 228.142C350.011 235.182 334.329 259.584 336.01 285.266C336.97 299.987 339.13 314.228 342.25 328.069L347.05 330.869Z" fill="#213C46"></path><path d="M450.338 329.109C446.178 336.55 439.617 340.79 435.697 338.55C431.777 336.39 431.937 328.549 436.097 321.108C440.257 313.748 446.818 309.428 450.738 311.668C454.739 313.908 454.499 321.748 450.338 329.109Z" fill="#FFCC99"></path><path d="M336.971 329.109C341.131 336.55 347.691 340.79 351.612 338.55C355.532 336.39 355.372 328.549 351.212 321.108C347.051 313.748 340.491 309.428 336.571 311.668C332.65 313.908 332.89 321.748 336.971 329.109Z" fill="#FFCC99"></path><path opacity="0.15" d="M410.095 397.914C408.335 406.875 404.575 415.275 400.495 423.116C384.253 454.718 351.291 476.4 313.288 476.4H275.445C275.845 453.678 278.406 426.316 287.526 413.835C297.367 400.314 338.33 387.193 358.571 381.433C364.732 379.673 368.972 378.552 369.852 378.312L370.012 378.232C372.813 392.313 379.133 405.034 393.694 414.075C401.615 409.195 406.095 403.914 410.095 397.914Z" fill="#71C6F0"></path></g><defs><clipPath id="clip0_51_408"><rect width="512" height="512" fill="white"></rect></clipPath></defs></svg>