<svg xmlns="http://www.w3.org/2000/svg" width="512" height="512" viewBox="0 0 512 512" fill="none"><path d="M327.829 216.085L318.443 158.443L358.123 117.76C367.189 108.48 361.984 92.7362 349.099 90.7735L294.891 82.4748L270.485 30.5068C265.216 19.2855 246.805 19.2855 241.536 30.5068L217.131 82.4748L162.923 90.7735C149.995 92.7575 144.832 108.48 153.899 117.76L193.579 158.443L184.192 216.085C182.037 229.291 196.117 239.104 207.723 232.661L256 205.973L304.299 232.661C315.819 239.083 330.005 229.376 327.829 216.085Z" fill="#FFD659"></path><path d="M221.077 304.106L166.869 295.808L142.464 243.84C137.195 232.618 118.784 232.618 113.515 243.84L89.1094 295.808L34.9014 304.106C21.9734 306.09 16.8107 321.813 25.8774 331.093L65.5574 371.776L56.1707 429.418C54.016 442.56 68.032 452.48 79.7014 445.994L128 419.307L176.299 445.994C187.819 452.395 202.005 442.709 199.829 429.418L190.443 371.776L230.123 331.093C239.168 321.813 233.984 306.09 221.077 304.106Z" fill="#FFD659"></path><path d="M477.077 304.106L422.869 295.808L398.464 243.84C393.195 232.618 374.784 232.618 369.515 243.84L345.109 295.808L290.901 304.106C277.973 306.09 272.811 321.813 281.877 331.093L321.557 371.776L312.171 429.418C310.016 442.581 324.053 452.48 335.701 445.994L384 419.307L432.299 445.994C443.819 452.395 458.005 442.709 455.829 429.418L446.443 371.776L486.123 331.093C495.168 321.813 489.984 306.09 477.077 304.106Z" fill="#FFD659"></path></svg>