<svg xmlns="http://www.w3.org/2000/svg" width="100" height="100" viewBox="0 0 100 100" fill="none"><path d="M72.5806 44.3545V45.4863C72.5806 46.8732 72.8042 48.251 73.2427 49.5666L75.8063 57.2576H80.645V39.5156H77.4192C74.747 39.5158 72.5806 41.682 72.5806 44.3545Z" fill="#5A4146"></path><path d="M94.665 47.7053L91.9357 57.258L79.0324 45.9678C77.2508 45.9678 75.8066 44.5234 75.8066 42.742C75.8066 40.0697 77.9731 37.9033 80.6453 37.9033H91.9356C93.7172 37.9033 95.1613 39.3477 95.1613 41.1291V44.1607C95.1615 45.3594 94.9943 46.5523 94.665 47.7053Z" fill="#694B4B"></path><path d="M88.7086 62.0977H79.0312V69.2361H88.7086V62.0977Z" fill="#E6AF78"></path><path d="M79.0322 65.0594C80.5281 65.6672 82.1594 66.0094 83.8709 66.0094C85.5824 66.0094 87.2137 65.6672 88.7096 65.0594V62.0967H79.0322V65.0594Z" fill="#D29B6E"></path><path d="M96.4906 68.233L88.7094 66.01L83.8711 69.2207L79.0324 66.0098L71.2516 68.233C69.1742 68.8266 67.7422 70.7252 67.7422 72.8855V84.6777C67.7422 85.5686 68.4643 86.2906 69.3551 86.2906H98.3873C99.2781 86.2906 100 85.5686 100 84.6777V72.8855C100 70.725 98.568 68.8266 96.4906 68.233Z" fill="#D5DCED"></path><path d="M85.4836 86.2902H82.2578L83.0643 69.2354H84.6771L85.4836 86.2902Z" fill="#AFB9D2"></path><path d="M83.8707 63.7095C78.526 63.7095 74.1934 59.3767 74.1934 54.0322V52.1425C74.1934 51.287 74.5332 50.4665 75.1381 49.8614L78.0629 46.9366C78.6822 46.3173 79.5291 45.9613 80.4045 45.9888C85.5604 46.1515 90.124 47.256 92.6188 49.6925C93.2295 50.289 93.5482 51.1234 93.5482 51.9769V54.0322C93.5482 59.3769 89.2154 63.7095 83.8707 63.7095Z" fill="#F0C087"></path><path d="M79.032 52.5427C79.032 50.6822 80.5945 49.2032 82.4514 49.3216C85.7074 49.5294 90.5391 50.0736 93.5033 51.4993C93.4066 50.8189 93.1143 50.1765 92.6188 49.6925C90.124 47.256 85.5604 46.1515 80.4045 45.9888L80.4043 45.989C79.5291 45.9614 78.682 46.3175 78.0629 46.9366L75.1383 49.8613C74.5332 50.4661 74.1934 51.2866 74.1934 52.1423V54.032C74.1934 58.4452 77.1506 62.1611 81.1895 63.3247C79.8451 61.6661 79.0322 59.5607 79.0322 57.2577L79.032 52.5427Z" fill="#E6AF78"></path><path d="M93.5483 77.6914C93.5483 76.408 94.0581 75.1773 94.9655 74.2699L99.1173 70.1182C99.6722 70.9113 99.9999 71.8662 99.9999 72.8855V84.6777C99.9999 85.5686 99.2778 86.2906 98.387 86.2906H93.5483V77.6914Z" fill="#C7CFE2"></path><path d="M84.6771 72.4611H83.0643C82.6189 72.4611 82.2578 72.1 82.2578 71.6547V69.2354H85.4836V71.6547C85.4836 72.1 85.1227 72.4611 84.6771 72.4611Z" fill="#959CB5"></path><path d="M83.871 69.2204L81.1372 71.3085C80.6663 71.6683 79.9854 71.5241 79.7009 71.0042L77.2485 66.5257L78.2356 65.02C78.4546 64.686 78.9212 64.6292 79.214 64.9007L83.871 69.2204Z" fill="#C7CFE2"></path><path d="M83.8711 69.2202L86.6049 71.3085C87.0758 71.6683 87.7566 71.5241 88.0412 71.0042L90.4936 66.5257L89.5064 65.02C89.2875 64.686 88.8209 64.6292 88.5281 64.9007L83.8711 69.2202Z" fill="#C7CFE2"></path><path d="M28.8713 63.0365C27.493 59.3846 26.3999 53.1066 26.1637 49.8381C25.7145 43.6182 21.0272 38.5479 14.6909 38.5479C8.35454 38.5479 3.66724 43.6184 3.21802 49.8381C2.98189 53.1064 1.88872 59.3846 0.510401 63.0365C0.20669 63.8416 0.557276 64.7293 1.35005 65.0887C2.827 65.758 5.97603 67.0693 9.77388 67.5801H19.6077C23.3877 67.0682 26.5588 65.7561 28.0315 65.0887C28.8245 64.7293 29.1751 63.8416 28.8713 63.0365Z" fill="#5A4146"></path><path d="M28.0318 65.0887C28.8244 64.7293 29.1752 63.8416 28.8713 63.0365C27.4932 59.3846 26.3998 53.1066 26.1639 49.8381C25.7148 43.6182 21.0273 38.5479 14.6912 38.5479C14.6752 38.5479 14.6594 38.5479 14.6434 38.548C9.78144 38.5678 8.06328 45.1984 12.2486 47.6725C12.5 47.8211 12.6611 47.8926 12.6611 47.8926L16.327 67.5801H19.608C23.3881 67.0678 26.5592 65.7559 28.0318 65.0887Z" fill="#694B4B"></path><path d="M26.3574 70.8184L21.1379 68.2088C20.0449 67.6623 19.3545 66.5451 19.3547 65.3232L19.3551 60.4844H9.67734V65.3234C9.67734 66.5453 8.98711 67.6621 7.89414 68.2086L2.67461 70.8184C1.03535 71.6379 0 73.3133 0 75.1459V84.6775C0 85.5682 0.72207 86.2904 1.61289 86.2904H27.4193C28.3102 86.2904 29.0322 85.5682 29.0322 84.6775V75.1461C29.0322 73.3133 27.9967 71.6379 26.3574 70.8184Z" fill="#E6AF78"></path><path d="M14.5163 66.935C16.253 66.935 17.9165 66.577 19.4415 65.9396C19.4015 65.7363 19.3548 65.5342 19.3548 65.3223L19.3552 60.4834H9.67744V65.3225C9.67744 65.5355 9.63076 65.7387 9.59033 65.9428C11.1163 66.5768 12.779 66.935 14.5163 66.935Z" fill="#D29B6E"></path><path d="M26.3574 70.8184L22.6391 68.9592C20.9148 71.6217 17.9244 73.3875 14.5162 73.3875C11.108 73.3875 8.11738 71.6217 6.39316 68.959L2.6748 70.8184C1.03555 71.6379 0 73.3133 0 75.1459V84.6775C0 85.5684 0.72207 86.2904 1.61289 86.2904H27.4193C28.3102 86.2904 29.0322 85.5684 29.0322 84.6775V75.1461C29.0322 73.3133 27.9967 71.6379 26.3574 70.8184Z" fill="#D5DCED"></path><path d="M14.5162 63.7092C9.59586 63.7092 5.53336 60.0373 4.91911 55.2844C4.83004 54.5957 5.1611 53.9205 5.78102 53.6078C6.5236 53.2332 7.6027 52.6015 8.6359 51.6797C9.78649 50.6531 10.4615 49.5705 10.8427 48.7758C11.1711 48.0914 11.9257 47.7043 12.6613 47.892C18.3402 49.3404 22.2064 52.2949 23.6091 53.5012C23.9857 53.825 24.2027 54.3025 24.164 54.7978C23.7732 59.7842 19.6031 63.7092 14.5162 63.7092Z" fill="#F0C087"></path><path d="M23.6089 53.5012C22.2064 52.2949 18.34 49.3404 12.661 47.892C11.9255 47.7043 11.1708 48.0914 10.8425 48.7758C10.5538 49.3777 10.0767 50.1445 9.36866 50.9273C9.36847 50.9293 9.36788 50.9308 9.36769 50.9328C9.14796 51.1818 8.91398 51.4314 8.63585 51.6799C7.60265 52.6019 6.52355 53.2334 5.78097 53.608C5.16105 53.9207 4.83019 54.5961 4.91906 55.2848C5.47081 59.5533 8.81105 62.951 13.0489 63.599C11.1179 62.2853 9.67745 60.4787 9.67745 57.258V54.958C10.0439 54.6875 10.4128 54.4178 10.7835 54.0869C11.68 53.2869 12.4626 52.3617 13.0902 51.3656C17.4345 52.7213 20.3798 54.9793 21.4964 55.9394C21.8021 56.2074 22.5607 56.9066 23.4482 57.7392C23.83 56.8203 24.0825 55.8344 24.1636 54.7982C24.2025 54.3027 23.9855 53.8252 23.6089 53.5012Z" fill="#E6AF78"></path><path d="M0.983203 72.2383C0.361914 73.0629 0 74.0744 0 75.1457V84.6773C0 85.5682 0.72207 86.2902 1.61289 86.2902H6.45156V78.1633C6.45156 77.1834 6.00605 76.2564 5.24082 75.6443L0.983203 72.2383Z" fill="#C7CFE2"></path><path d="M73.1724 68.6164L59.6772 63.709L49.9999 66.935L40.3226 63.7092L26.8274 68.6166C24.2778 69.5438 22.5806 71.9668 22.5806 74.6797V84.677C22.5806 85.5676 23.3026 86.2898 24.1935 86.2898H75.8063C76.6972 86.2898 77.4192 85.5676 77.4192 84.677V74.6797C77.4192 71.9666 75.7222 69.5436 73.1724 68.6164Z" fill="#FF507D"></path><path d="M48.3105 70.1611L46.7744 86.2898H53.226L51.6898 70.1611H48.3105Z" fill="#707487"></path><path d="M51.6936 72.3773H48.3068C47.6832 72.3773 47.1777 71.8719 47.1777 71.2482V66.9355H52.8225V71.2482C52.8227 71.8717 52.3172 72.3773 51.6936 72.3773Z" fill="#5B5D6E"></path><path d="M75.6834 70.2842C76.7725 71.4531 77.4195 73.01 77.4195 74.6799V84.6771C77.4195 85.568 76.6975 86.29 75.8066 86.29H67.7422V80.8978C67.7422 79.1867 68.4219 77.5457 69.6318 76.3359L75.6834 70.2842Z" fill="#D23C69"></path><path d="M67.7418 30.4475V16.9357C67.7418 15.1541 66.2975 13.71 64.516 13.71H45.1611C38.035 13.71 32.2578 19.4869 32.2578 26.6133V30.4475C32.2578 32.1811 32.5373 33.9033 33.0855 35.5479L33.6225 37.1586C33.7869 37.652 33.8707 38.1686 33.8707 38.6887V39.5164H66.1287V38.6887C66.1287 38.1686 66.2125 37.652 66.377 37.1586L66.9139 35.5479C67.4623 33.9031 67.7418 32.1809 67.7418 30.4475Z" fill="#5A4146"></path><path d="M40.3228 20.2623C40.3228 23.8811 43.2563 26.8146 46.8751 26.8146H47.7823L48.2202 39.5162H66.129V38.6885C66.129 38.1684 66.2128 37.6518 66.3772 37.1584L66.9142 35.5477C67.4624 33.9031 67.7419 32.1809 67.7419 30.4473V16.9357C67.7419 15.1541 66.2976 13.71 64.5161 13.71H46.8751C43.2563 13.71 40.3228 16.6436 40.3228 20.2623Z" fill="#694B4B"></path><path d="M59.6777 52.4199H40.3223V66.9355H59.6777V52.4199Z" fill="#E6AF78"></path><path d="M40.3225 57.8729C43.1717 59.5234 46.4703 60.4834 49.9998 60.4834C53.5293 60.4834 56.8281 59.5234 59.6771 57.8729V52.4189H40.3223L40.3225 57.8729Z" fill="#D29B6E"></path><path d="M49.9998 66.9357L44.8557 72.0799C44.1643 72.7713 43.0215 72.6934 42.4305 71.9144L37.0967 64.8863L38.4918 61.9463C38.9035 61.0787 39.9773 60.7607 40.7949 61.2646L49.9998 66.9357Z" fill="#D23C69"></path><path d="M50 66.9357L55.1441 72.0799C55.8355 72.7713 56.9783 72.6934 57.5693 71.9144L62.9031 64.8863L61.508 61.9463C61.0963 61.0787 60.0225 60.7607 59.2049 61.2646L50 66.9357Z" fill="#D23C69"></path><path d="M50.0002 57.2581C41.0924 57.2581 33.8711 50.0368 33.8711 41.129V39.2393C33.8711 38.3839 34.2109 37.5633 34.8158 36.9583L36.152 35.6221C36.7568 35.0173 37.0967 34.1967 37.0967 33.3411V29.4747C37.0967 28.7278 37.5982 28.079 38.325 27.9073C42.1396 27.0063 54.0102 24.8721 62.0885 30.8135C62.6131 31.1993 62.9031 31.8331 62.9031 32.4842V33.3411C62.9031 34.1965 63.243 35.0171 63.8479 35.6221L65.184 36.9583C65.7889 37.5632 66.1287 38.3837 66.1287 39.2393V41.129C66.1293 50.0368 58.908 57.2581 50.0002 57.2581Z" fill="#F0C087"></path><path d="M62.0887 30.8138C56.407 26.6351 48.86 26.4542 43.5486 27.0263C41.3082 27.2675 39.457 27.6403 38.3254 27.9075C37.5986 28.0792 37.0971 28.728 37.0971 29.4749V33.3411C37.0971 34.1968 36.7572 35.0173 36.1521 35.6224L34.816 36.9585C34.2109 37.5636 33.8711 38.3841 33.8711 39.2397V41.1292C33.8711 49.3761 40.0645 56.1653 48.0512 57.1292C45.2682 54.231 43.5484 50.3034 43.5484 45.9679V34.1786C43.5484 32.544 44.7639 31.178 46.3855 30.9747C50.2562 30.4894 57.3457 30.1976 62.9031 33.3415V32.4845C62.9035 31.8333 62.6129 31.1993 62.0887 30.8138Z" fill="#E6AF78"></path><path d="M24.3167 70.2842C23.2276 71.4531 22.5806 73.01 22.5806 74.6799V84.6771C22.5806 85.568 23.3026 86.29 24.1935 86.29H32.2579V80.8978C32.2579 79.1867 31.5782 77.5457 30.3683 76.3359L24.3167 70.2842Z" fill="#D23C69"></path></svg>