<svg width="96" height="96" viewBox="0 0 96 96" fill="none" xmlns="http://www.w3.org/2000/svg">
<g clip-path="url(#clip0_360_3017)">
<path d="M38.567 22.4835C40.9677 21.4768 41.9745 18.6114 40.8903 16.288L37.0955 8.31134C36.0113 6.06625 33.3782 5.0587 31.0549 6.06625C24.4722 8.85422 18.8188 12.4941 14.3271 16.9084C8.82858 22.0963 5.11129 28.0595 3.09775 34.6422C1.08421 41.3031 0 50.3633 0 61.9024V85.6776C0 88.2333 2.09098 90.3242 4.64662 90.3242H35.082C37.6376 90.3242 39.7286 88.2333 39.7286 85.6776V55.2422C39.7286 52.6858 37.6376 50.5956 35.082 50.5956H20.5226C20.6775 42.773 22.5361 36.5008 25.9436 31.776C28.7316 27.9828 32.9136 24.8851 38.567 22.4835Z" fill="#9EACFF"/>
<path d="M93.2434 22.4834C95.6442 21.4766 96.6502 18.6112 95.5667 16.2879L91.772 8.3894C90.6878 6.14354 88.0547 5.13677 85.7314 6.14354C79.2261 8.93151 73.6494 12.5714 69.081 16.9082C63.5817 22.1744 59.7877 28.1376 57.7734 34.7203C55.7599 41.2248 54.7539 50.2864 54.7539 61.903V85.6782C54.7539 88.2339 56.8449 90.3249 59.4005 90.3249H89.8359C92.3916 90.3249 94.4825 88.2339 94.4825 85.6782V55.2428C94.4825 52.6864 92.3916 50.5962 89.8359 50.5962H75.199C75.3539 42.7736 77.2134 36.5015 80.6201 31.7766C83.4081 27.9827 87.59 24.8849 93.2434 22.4834Z" fill="#9EACFF"/>
</g>
<defs>
<clipPath id="clip0_360_3017">
<rect width="96" height="96" fill="white"/>
</clipPath>
</defs>
</svg>
