<svg width="808" height="808" viewBox="0 0 808 808" fill="none" xmlns="http://www.w3.org/2000/svg">
<mask id="mask0_1124_10481" style="mask-type:alpha" maskUnits="userSpaceOnUse" x="0" y="0" width="808" height="808">
<rect width="808" height="808" fill="url(#paint0_linear_1124_10481)"/>
</mask>
<g mask="url(#mask0_1124_10481)">
<rect y="4" width="808" height="808" rx="404" fill="#BA9CFF" fill-opacity="0.18"/>
<rect x="0.5" y="4.5" width="807" height="807" rx="403.5" stroke="#BA9CFF" stroke-opacity="0.18"/>
<rect x="-4" y="404" width="8" height="8" rx="4" fill="#BA9CFF" fill-opacity="0.18"/>
<rect x="-3.5" y="404.5" width="7" height="7" rx="3.5" stroke="#BA9CFF" stroke-opacity="0.18"/>
<rect x="114.73" y="118.73" width="8" height="8" rx="4" fill="#BA9CFF" fill-opacity="0.18"/>
<rect x="115.23" y="119.23" width="7" height="7" rx="3.5" stroke="#BA9CFF" stroke-opacity="0.18"/>
<rect x="114.73" y="689.27" width="8" height="8" rx="4" fill="#BA9CFF" fill-opacity="0.18"/>
<rect x="115.23" y="689.77" width="7" height="7" rx="3.5" stroke="#BA9CFF" stroke-opacity="0.18"/>
<rect x="400" width="8" height="8" rx="4" fill="#BA9CFF" fill-opacity="0.18"/>
<rect x="400.5" y="0.5" width="7" height="7" rx="3.5" stroke="#BA9CFF" stroke-opacity="0.18"/>
<rect x="685.27" y="118.73" width="8" height="8" rx="4" fill="#BA9CFF" fill-opacity="0.18"/>
<rect x="685.77" y="119.23" width="7" height="7" rx="3.5" stroke="#BA9CFF" stroke-opacity="0.18"/>
<rect x="685.27" y="689.27" width="8" height="8" rx="4" fill="#BA9CFF" fill-opacity="0.18"/>
<rect x="685.77" y="689.77" width="7" height="7" rx="3.5" stroke="#BA9CFF" stroke-opacity="0.18"/>
<rect x="804" y="404" width="8" height="8" rx="4" fill="#BA9CFF" fill-opacity="0.18"/>
<rect x="804.5" y="404.5" width="7" height="7" rx="3.5" stroke="#BA9CFF" stroke-opacity="0.18"/>
<mask id="mask1_1124_10481" style="mask-type:alpha" maskUnits="userSpaceOnUse" x="100" y="100" width="608" height="608">
<rect x="100" y="100" width="608" height="608" fill="url(#paint1_linear_1124_10481)"/>
</mask>
<g mask="url(#mask1_1124_10481)">
<g opacity="0.6">
<rect x="100" y="104" width="608" height="608" rx="304" fill="#BA9CFF" fill-opacity="0.18"/>
<rect x="100.5" y="104.5" width="607" height="607" rx="303.5" stroke="#BA9CFF" stroke-opacity="0.18"/>
<rect x="96" y="404" width="8" height="8" rx="4" fill="#BA9CFF" fill-opacity="0.18"/>
<rect x="96.5" y="404.5" width="7" height="7" rx="3.5" stroke="#BA9CFF" stroke-opacity="0.18"/>
<rect x="185.719" y="189.72" width="8" height="8" rx="4" fill="#BA9CFF" fill-opacity="0.18"/>
<rect x="186.219" y="190.22" width="7" height="7" rx="3.5" stroke="#BA9CFF" stroke-opacity="0.18"/>
<rect x="185.719" y="618.28" width="8" height="8" rx="4" fill="#BA9CFF" fill-opacity="0.18"/>
<rect x="186.219" y="618.78" width="7" height="7" rx="3.5" stroke="#BA9CFF" stroke-opacity="0.18"/>
<rect x="400" y="100" width="8" height="8" rx="4" fill="#BA9CFF" fill-opacity="0.18"/>
<rect x="400.5" y="100.5" width="7" height="7" rx="3.5" stroke="#BA9CFF" stroke-opacity="0.18"/>
<rect x="614.281" y="189.72" width="8" height="8" rx="4" fill="#BA9CFF" fill-opacity="0.18"/>
<rect x="614.781" y="190.22" width="7" height="7" rx="3.5" stroke="#BA9CFF" stroke-opacity="0.18"/>
<rect x="614.281" y="618.28" width="8" height="8" rx="4" fill="#BA9CFF" fill-opacity="0.18"/>
<rect x="614.781" y="618.78" width="7" height="7" rx="3.5" stroke="#BA9CFF" stroke-opacity="0.18"/>
<rect x="704" y="404" width="8" height="8" rx="4" fill="#BA9CFF" fill-opacity="0.18"/>
<rect x="704.5" y="404.5" width="7" height="7" rx="3.5" stroke="#BA9CFF" stroke-opacity="0.18"/>
</g>
</g>
<mask id="mask2_1124_10481" style="mask-type:alpha" maskUnits="userSpaceOnUse" x="196" y="196" width="416" height="416">
<rect x="196" y="196" width="416" height="416" fill="url(#paint2_linear_1124_10481)"/>
</mask>
<g mask="url(#mask2_1124_10481)">
<rect x="196" y="200" width="416" height="416" rx="208" fill="#BA9CFF" fill-opacity="0.18"/>
<rect x="196.5" y="200.5" width="415" height="415" rx="207.5" stroke="#BA9CFF" stroke-opacity="0.18"/>
<rect x="192" y="404" width="8" height="8" rx="4" fill="#BA9CFF" fill-opacity="0.18"/>
<rect x="192.5" y="404.5" width="7" height="7" rx="3.5" stroke="#BA9CFF" stroke-opacity="0.18"/>
<rect x="253.41" y="257.41" width="8" height="8" rx="4" fill="#BA9CFF" fill-opacity="0.18"/>
<rect x="253.91" y="257.91" width="7" height="7" rx="3.5" stroke="#BA9CFF" stroke-opacity="0.18"/>
<rect x="253.41" y="550.59" width="8" height="8" rx="4" fill="#BA9CFF" fill-opacity="0.18"/>
<rect x="253.91" y="551.09" width="7" height="7" rx="3.5" stroke="#BA9CFF" stroke-opacity="0.18"/>
<rect x="400" y="196" width="8" height="8" rx="4" fill="#BA9CFF" fill-opacity="0.18"/>
<rect x="400.5" y="196.5" width="7" height="7" rx="3.5" stroke="#BA9CFF" stroke-opacity="0.18"/>
<rect x="546.59" y="257.41" width="8" height="8" rx="4" fill="#BA9CFF" fill-opacity="0.18"/>
<rect x="547.09" y="257.91" width="7" height="7" rx="3.5" stroke="#BA9CFF" stroke-opacity="0.18"/>
<rect x="546.59" y="550.59" width="8" height="8" rx="4" fill="#BA9CFF" fill-opacity="0.18"/>
<rect x="547.09" y="551.09" width="7" height="7" rx="3.5" stroke="#BA9CFF" stroke-opacity="0.18"/>
<rect x="608" y="404" width="8" height="8" rx="4" fill="#BA9CFF" fill-opacity="0.18"/>
<rect x="608.5" y="404.5" width="7" height="7" rx="3.5" stroke="#BA9CFF" stroke-opacity="0.18"/>
</g>
</g>
<defs>
<linearGradient id="paint0_linear_1124_10481" x1="404" y1="0" x2="404" y2="808" gradientUnits="userSpaceOnUse">
<stop offset="0.0941" stop-color="#BA9CFF" stop-opacity="0.6"/>
<stop offset="0.2979" stop-color="#BA9CFF" stop-opacity="0"/>
</linearGradient>
<linearGradient id="paint1_linear_1124_10481" x1="404" y1="100" x2="404" y2="708" gradientUnits="userSpaceOnUse">
<stop offset="0.0941" stop-color="#BA9CFF" stop-opacity="0.6"/>
<stop offset="0.2979" stop-color="#BA9CFF" stop-opacity="0"/>
</linearGradient>
<linearGradient id="paint2_linear_1124_10481" x1="404" y1="196" x2="404" y2="612" gradientUnits="userSpaceOnUse">
<stop offset="0.0941" stop-color="#BA9CFF" stop-opacity="0.6"/>
<stop offset="0.2979" stop-color="#BA9CFF" stop-opacity="0"/>
</linearGradient>
</defs>
</svg>
