<svg xmlns="http://www.w3.org/2000/svg" width="45" height="45" viewBox="0 0 45 45" fill="none"><g clip-path="url(#clip0_122_557)"><path d="M18.2833 41.2827C18.1333 41.2827 17.9795 41.2655 17.8277 41.2264C16.8225 40.9751 16.2114 39.9568 16.4627 38.9519L24.9 5.20262C25.1513 4.19774 26.1676 3.58286 27.1724 3.8376C28.1773 4.08891 28.7888 5.10718 28.5375 6.11207L20.1001 39.8614C19.8863 40.7145 19.1234 41.2827 18.2833 41.2827Z" fill="#F44336"></path><path d="M13.1253 35.658C12.6453 35.658 12.165 35.4739 11.7998 35.1083L0.549992 23.8585C-0.183331 23.1256 -0.183331 21.9408 0.549992 21.2075L11.7998 9.95769C12.5327 9.22471 13.7175 9.22471 14.4508 9.95769C15.1838 10.691 15.1838 11.8758 14.4508 12.6088L4.52662 22.533L14.4508 32.4572C15.1838 33.1905 15.1838 34.3753 14.4508 35.1083C14.0852 35.4739 13.6053 35.658 13.1253 35.658Z" fill="#607D8B"></path><path d="M31.8748 35.658C31.3948 35.658 30.9149 35.4739 30.5493 35.1083C29.8159 34.3753 29.8159 33.1905 30.5493 32.4572L40.4735 22.533L30.5493 12.6088C29.8159 11.8758 29.8159 10.691 30.5493 9.95769C31.2822 9.22471 32.4674 9.22471 33.2003 9.95769L44.4501 21.2075C45.1834 21.9408 45.1834 23.1256 44.4501 23.8585L33.2003 35.1083C32.8347 35.4739 32.3548 35.658 31.8748 35.658Z" fill="#607D8B"></path></g><defs><clipPath id="clip0_122_557"><rect width="45" height="45" fill="white"></rect></clipPath></defs></svg>