<svg xmlns="http://www.w3.org/2000/svg" width="32" height="46" viewBox="0 0 32 46" fill="none"><path d="M31.0141 3.66562V42.3344C31.0141 44.3684 29.3753 46 27.3556 46H3.66562C1.64594 46 0 44.3684 0 42.3344V3.66562C0 1.63875 1.64594 0 3.66562 0H27.3556C29.3753 0 31.0141 1.63875 31.0141 3.66562Z" fill="#44394A"></path><path d="M28.4553 4.39873V41.6084C28.4553 42.2265 28.1462 42.7728 27.6719 43.1034C27.3772 43.319 27.0106 43.4412 26.6225 43.4412H4.39873C3.39248 43.4412 2.56592 42.6147 2.56592 41.6084V4.39873C2.56592 3.39248 3.39248 2.56592 4.39873 2.56592H13.2681C13.5844 2.56592 13.8431 2.82467 13.8431 3.14092C13.8431 3.79498 14.1953 4.42748 14.7559 4.71498C14.8781 4.78686 15.0075 4.82998 15.144 4.85873C15.2662 4.88748 15.3884 4.90186 15.5106 4.90186C15.6328 4.90186 15.755 4.88748 15.8772 4.85873C16.6606 4.70061 17.1781 3.93873 17.1781 3.14092C17.1781 3.02592 17.214 2.91811 17.2787 2.82467V2.81748C17.3794 2.66654 17.559 2.56592 17.7531 2.56592H26.6225C27.6287 2.56592 28.4553 3.39248 28.4553 4.39873Z" fill="white"></path><path d="M16.8044 12.4846V13.8933C16.8044 14.0011 16.7253 14.0946 16.6175 14.1017L15.64 14.2024C15.5034 14.2167 15.3884 14.3174 15.3597 14.4539C15.3453 14.5042 15.3381 14.5474 15.3309 14.5689C15.259 14.8492 15.1584 15.1152 15.0362 15.3667C14.9931 15.4602 14.9428 15.5536 14.8997 15.6399C14.8781 15.6758 14.8637 15.7117 14.8422 15.7477C14.7775 15.8627 14.7919 16.0064 14.8709 16.1142L15.4819 16.8617C15.5465 16.948 15.5394 17.0702 15.4675 17.1421L14.4684 18.1339C14.3965 18.213 14.2744 18.2202 14.1881 18.1483L13.8072 17.8392L13.4622 17.5589C13.3544 17.4727 13.2034 17.4583 13.0884 17.5302C12.8153 17.6883 12.2978 17.9686 11.8881 18.0621C11.8594 18.0692 11.8162 18.0764 11.7587 18.0908C11.6222 18.1267 11.5287 18.2417 11.5144 18.3711L11.4137 19.2911C11.3994 19.3917 11.3131 19.478 11.2053 19.478H9.76061C9.66717 19.478 9.59529 19.4133 9.5881 19.3199L9.48748 18.3783C9.47311 18.2417 9.37967 18.1267 9.24311 18.098C9.24311 18.098 9.23592 18.098 9.22873 18.0908C9.14967 18.0692 9.0706 18.0477 8.99873 18.0261C8.61779 17.9039 8.25123 17.7386 7.91342 17.5374C7.79123 17.4655 7.64029 17.4727 7.53248 17.5589L6.80654 18.1411C6.72029 18.2058 6.59811 18.1986 6.52623 18.1267L5.52717 17.1349C5.44811 17.0558 5.44811 16.9336 5.51279 16.8546L6.11654 16.1071C6.20279 16.0064 6.21717 15.8555 6.14529 15.7477L6.08779 15.6399C6.04467 15.5536 6.00154 15.4674 5.95842 15.3811C5.87217 15.2086 5.80029 15.0289 5.74279 14.8421C5.71404 14.7486 5.68529 14.6552 5.65654 14.5617C5.64936 14.533 5.64217 14.4899 5.62779 14.4467C5.59904 14.3102 5.48404 14.2096 5.34748 14.1952L4.36998 14.0946C4.26217 14.0874 4.18311 13.9939 4.18311 13.8861V12.4774C4.18311 12.3696 4.26217 12.2833 4.36998 12.2689L4.89467 12.2186L5.39061 12.1683C5.52717 12.1539 5.63498 12.0533 5.67092 11.9239C5.79311 11.4855 5.97279 11.0758 6.19561 10.6877C6.26748 10.5727 6.25311 10.4217 6.16686 10.3211L5.50561 9.50894C5.44092 9.42269 5.44811 9.30769 5.51998 9.22862L6.51904 8.22956C6.59092 8.15769 6.71311 8.1505 6.79936 8.21519L7.63311 8.89081C7.74092 8.97706 7.89186 8.99144 8.00686 8.91956C8.08592 8.87644 8.15779 8.83331 8.23686 8.79737C8.28717 8.77581 8.33748 8.74706 8.38779 8.7255C8.65373 8.60331 8.92686 8.50269 9.21436 8.43081C9.34373 8.39487 9.43717 8.27987 9.45873 8.14331L9.57373 7.07237C9.58092 6.97175 9.67435 6.8855 9.78217 6.8855H11.1909C11.2915 6.8855 11.385 6.96456 11.3994 7.07237L11.5144 8.1505C11.5287 8.28706 11.6222 8.40206 11.7587 8.438C12.0462 8.50987 12.3265 8.6105 12.5853 8.73269C12.6212 8.74706 12.65 8.76144 12.6859 8.783C12.7362 8.81175 12.8584 8.87644 12.9662 8.94112C13.0812 9.00581 13.225 8.99144 13.3328 8.91237C13.6203 8.67519 14.1737 8.23675 14.1737 8.23675C14.26 8.17206 14.3822 8.17925 14.454 8.25112L15.4531 9.25019C15.5322 9.32925 15.5394 9.44425 15.4675 9.5305L14.8062 10.3427C14.72 10.4505 14.7056 10.6014 14.7847 10.7236C14.8062 10.7596 14.8278 10.7883 14.835 10.8099C15.0075 11.1046 15.2015 11.6652 15.3022 11.9671C15.3453 12.0892 15.4531 12.1755 15.5753 12.1899L16.0856 12.2186L16.6103 12.2761C16.7253 12.2905 16.8044 12.3767 16.8044 12.4846Z" fill="#FC8068"></path><path d="M26.8453 18.8743V20.1321C26.8453 20.2255 26.7734 20.3118 26.6799 20.319L25.8103 20.4124C25.6881 20.4268 25.5874 20.5202 25.5587 20.6352C25.5443 20.6784 25.5371 20.7143 25.5299 20.743C25.4653 20.9946 25.379 21.2246 25.2712 21.4546C25.2353 21.5409 25.1921 21.6199 25.149 21.699C25.1346 21.7349 25.1131 21.7637 25.0987 21.7924C25.0412 21.9002 25.0484 22.0224 25.1274 22.1159L25.6665 22.7771C25.724 22.849 25.7168 22.9568 25.6521 23.0287L24.7609 23.9127C24.6962 23.9846 24.5884 23.9846 24.5093 23.9271L24.1715 23.654L23.8624 23.4024C23.769 23.3234 23.6324 23.3162 23.5318 23.3809C23.2874 23.5246 22.8274 23.7762 22.4609 23.8552C22.4393 23.8624 22.3962 23.8696 22.3459 23.884C22.2237 23.9127 22.1374 24.0134 22.1303 24.1355L22.044 24.9549C22.0296 25.0484 21.9506 25.1202 21.8571 25.1202H20.5706C20.4915 25.1202 20.4268 25.0627 20.4124 24.9765L20.3262 24.1355C20.3118 24.0134 20.2256 23.9127 20.1106 23.884C20.1106 23.884 20.1034 23.884 20.0962 23.8768C20.0243 23.8624 19.9524 23.8409 19.8878 23.8193C19.5499 23.7115 19.2265 23.5677 18.9246 23.388C18.8168 23.3234 18.6803 23.3305 18.5868 23.4096L17.9471 23.9271C17.8753 23.9846 17.7674 23.9774 17.6956 23.9127L16.8043 23.0287C16.7324 22.9568 16.7324 22.849 16.7899 22.7771L17.3218 22.1159C17.4009 22.0224 17.4081 21.893 17.3506 21.7924L17.3003 21.6918C17.2643 21.6199 17.2212 21.5409 17.1853 21.4618C17.1134 21.3037 17.0487 21.1455 16.9912 20.9802C16.9624 20.894 16.9409 20.8149 16.9193 20.7287C16.9121 20.7071 16.9049 20.664 16.8906 20.6209C16.8618 20.4987 16.7612 20.4052 16.639 20.398L15.7693 20.3046C15.6759 20.2974 15.604 20.2184 15.604 20.1177V18.8599C15.604 18.7665 15.6759 18.6874 15.7693 18.673L16.2365 18.6227L16.6749 18.5796C16.7971 18.5652 16.8906 18.479 16.9265 18.364C17.0343 17.9759 17.1924 17.6093 17.3937 17.2643C17.4584 17.1637 17.444 17.0271 17.3721 16.9337L16.7828 16.2077C16.7253 16.1359 16.7324 16.028 16.7971 15.9562L17.6884 15.0649C17.7531 15.0002 17.8609 14.993 17.9399 15.0505L18.6874 15.6543C18.7809 15.7334 18.9174 15.7405 19.0181 15.6759C19.0899 15.6399 19.1546 15.604 19.2193 15.568C19.2624 15.5465 19.3056 15.5249 19.3487 15.5034C19.5859 15.3955 19.8303 15.3093 20.089 15.2374C20.204 15.2087 20.2903 15.1009 20.3046 14.9787L20.4053 14.0227C20.4124 13.9293 20.4915 13.8574 20.5921 13.8574H21.8499C21.9434 13.8574 22.0224 13.9293 22.0368 14.0227L22.1374 14.9787C22.1518 15.1009 22.2309 15.2015 22.3531 15.2302C22.6046 15.2949 22.8562 15.3884 23.0862 15.4962L23.1724 15.5393C23.2228 15.5609 23.3306 15.6255 23.424 15.6759C23.5318 15.7334 23.654 15.7262 23.7474 15.6471C24.0062 15.4387 24.4949 15.0434 24.4949 15.0434C24.5668 14.9859 24.6746 14.993 24.7465 15.0577L25.6378 15.949C25.7096 16.0209 25.7096 16.1215 25.6521 16.2005L25.0628 16.9265C24.9837 17.0199 24.9765 17.1565 25.0412 17.2643C25.0556 17.293 25.0771 17.3218 25.0843 17.3434C25.2353 17.6093 25.4149 18.1052 25.5012 18.3712C25.5371 18.479 25.6306 18.558 25.7456 18.5652L26.1984 18.6155L26.6799 18.6874C26.7734 18.7018 26.8453 18.7809 26.8453 18.8743Z" fill="#FCD131"></path><path d="M10.4866 15.8053C11.9315 15.8053 13.1029 14.6339 13.1029 13.189C13.1029 11.7441 11.9315 10.5728 10.4866 10.5728C9.0417 10.5728 7.87036 11.7441 7.87036 13.189C7.87036 14.6339 9.0417 15.8053 10.4866 15.8053Z" fill="white"></path><path d="M21.232 22.1158C22.6769 22.1158 23.8482 20.9445 23.8482 19.4996C23.8482 18.0546 22.6769 16.8833 21.232 16.8833C19.7871 16.8833 18.6157 18.0546 18.6157 19.4996C18.6157 20.9445 19.7871 22.1158 21.232 22.1158Z" fill="white"></path><path d="M26.22 28.8003H5.19653C4.90185 28.8003 4.65747 28.5559 4.65747 28.2612C4.65747 27.9665 4.90185 27.7222 5.19653 27.7222H26.22C26.5147 27.7222 26.759 27.9665 26.759 28.2612C26.759 28.5559 26.5147 28.8003 26.22 28.8003Z" fill="#E5E5E5"></path><path d="M25.1563 31.6321H6.25317C5.95849 31.6321 5.71411 31.3877 5.71411 31.093C5.71411 30.7983 5.95849 30.554 6.25317 30.554H25.1563C25.451 30.554 25.6954 30.7983 25.6954 31.093C25.6954 31.3877 25.451 31.6321 25.1563 31.6321Z" fill="#E5E5E5"></path><path d="M22.576 34.4641H8.8335C8.53881 34.4641 8.29443 34.2197 8.29443 33.925C8.29443 33.6304 8.53881 33.386 8.8335 33.386H22.576C22.8707 33.386 23.1151 33.6304 23.1151 33.925C23.1151 34.2197 22.8707 34.4641 22.576 34.4641Z" fill="#E5E5E5"></path><path d="M20.9946 39.1934C20.9946 39.7756 20.7574 40.3075 20.3693 40.6956C19.9884 41.0837 19.4565 41.3209 18.8671 41.3209H12.1612C10.9896 41.3209 10.0337 40.365 10.0337 39.1934C10.0337 38.604 10.2709 38.0722 10.659 37.6912C11.0399 37.3031 11.5718 37.0659 12.1612 37.0659H18.8671C20.0459 37.0659 20.9946 38.0147 20.9946 39.1934Z" fill="#8C9FFA"></path></svg>