<svg xmlns="http://www.w3.org/2000/svg" width="45" height="45" viewBox="0 0 45 45" fill="none"><path d="M44.3912 1.96146C40.8412 -1.58854 27.4588 11.4351 24.8121 14.0818C22.4989 16.395 19.705 19.4167 17.9978 21.4629L18.5885 25.7829L19.5792 26.7736L21.1525 28.3469L24.8898 28.3549C26.9678 26.6207 29.9684 23.8432 32.2709 21.5406C34.9176 18.8937 47.9412 5.51138 44.3912 1.96146Z" fill="#FF7B4A"></path><path d="M24.8897 28.3548C26.9677 26.6206 29.9682 23.8431 32.2708 21.5405C34.9176 18.8937 47.9412 5.51134 44.3912 1.96143L19.5791 26.7736L21.1525 28.3469L24.8897 28.3548Z" fill="#FF435B"></path><path d="M21.4437 24.9088L17.9978 21.4629C15.2975 24.6986 13.2358 27.6493 12.2251 29.8191L14.3766 31.976L16.5262 34.1311C18.6967 33.1215 21.6501 31.0583 24.8897 28.3547L21.4437 24.9088Z" fill="#E8F7FF"></path><path d="M24.8899 28.3549L21.4439 24.9089L14.3767 31.9762L16.5263 34.1312C18.6968 33.1217 21.6502 31.0585 24.8899 28.3549Z" fill="#BCDBFD"></path><path d="M15.841 30.5117C13.5584 28.2259 10.1976 28.0538 7.84664 29.4722C6.2979 30.4073 5.2117 31.865 4.78827 33.5776C4.25286 35.7464 3.48267 37.276 2.36544 38.3932L0 40.7586L0.932374 41.691C1.58926 42.3479 2.3708 42.8117 3.22301 43.1297C7.28196 44.6445 13.0572 42.6189 15.8497 39.8263C18.4777 37.1984 18.3641 33.0387 15.841 30.5117Z" fill="#596C76"></path><path d="M15.8496 39.8263C18.4776 37.1984 18.364 33.0386 15.8409 30.5117L3.2229 43.1297C7.28185 44.6445 13.0571 42.6189 15.8496 39.8263Z" fill="#465A61"></path></svg>