<svg width="25" height="25" viewBox="0 0 25 25" fill="none" xmlns="http://www.w3.org/2000/svg">
<path d="M12.4398 23.8953C18.7665 23.8953 23.8953 18.7665 23.8953 12.4398C23.8953 6.11316 18.7665 0.984375 12.4398 0.984375C6.11316 0.984375 0.984375 6.11316 0.984375 12.4398C0.984375 18.7665 6.11316 23.8953 12.4398 23.8953Z" fill="#80C783"/>
<path fill-rule="evenodd" clip-rule="evenodd" d="M7.8693 11.6338C7.44743 11.352 6.88388 11.4161 6.53492 11.7848C6.18648 12.153 6.15367 12.7197 6.45836 13.1254L9.58336 17.2921C9.7719 17.5431 10.0636 17.6963 10.3776 17.7082C10.6912 17.7197 10.9938 17.5895 11.2005 17.353L18.4922 9.01969C18.8521 8.60875 18.8328 7.98948 18.4485 7.60094C18.0641 7.2124 17.4453 7.1874 17.0302 7.54261L10.338 13.2791L7.8693 11.6338Z" fill="#FAFAFA"/>
</svg>
